/* XPM */
static char *_99847509a6a425fa9f71cc4740a7952TYC36GdfuNM1uiBz[] = {
/* columns rows colors chars-per-pixel */
"56 56 162 2 ",
"   c None",
".  c #391428",
"X  c #3E1B2D",
"o  c #3F1E30",
"O  c #65201F",
"+  c #7D2214",
"@  c #4E1E27",
"#  c #421E2F",
"$  c #511F28",
"%  c #521E23",
"&  c #421F30",
"*  c #4D202C",
"=  c #572327",
"-  c #592529",
";  c #55292F",
":  c #5E2C2E",
">  c #442132",
",  c #4C2432",
"<  c #4D2B39",
"1  c #542633",
"2  c #572834",
"3  c #592A35",
"4  c #542E3B",
"5  c #5B2D39",
"6  c #55333E",
"7  c #5D313B",
"8  c #6E2522",
"9  c #62272C",
"0  c #612F36",
"q  c #643236",
"w  c #6A3737",
"e  c #62343E",
"r  c #6D3C3C",
"t  c #713C39",
"y  c #77413A",
"u  c #7B453B",
"i  c #5D3B43",
"p  c #693F46",
"a  c #653F45",
"s  c #644046",
"d  c #64434B",
"f  c #6D464A",
"g  c #6C4A4D",
"h  c #73484C",
"j  c #674E52",
"k  c #784F52",
"l  c #6A5355",
"z  c #755457",
"x  c #735B5B",
"c  c #766260",
"v  c #7E6463",
"b  c #7F6864",
"n  c #7F6D68",
"m  c #812515",
"M  c #852A17",
"N  c #8D3219",
"B  c #8D3A1F",
"V  c #963B1C",
"C  c #983E1D",
"Z  c #853620",
"A  c #9B421D",
"S  c #A44D1A",
"D  c #A0441D",
"F  c #A7511B",
"G  c #AA5519",
"H  c #AE5A19",
"J  c #B05D19",
"K  c #B26017",
"L  c #B86716",
"P  c #BB6B16",
"I  c #B46218",
"U  c #B8661C",
"Y  c #9C4422",
"T  c #9A4A2A",
"R  c #A44C25",
"E  c #AB5329",
"W  c #AF592E",
"Q  c #AA5421",
"!  c #B25B2C",
"~  c #A35432",
"^  c #A55A3C",
"/  c #AC5F3B",
"(  c #B66131",
")  c #B96432",
"_  c #BD6935",
"`  c #C97827",
"'  c #CB7A28",
"]  c #C16B36",
"[  c #C26E38",
"{  c #C8763D",
"}  c #CA783E",
"|  c #815D5E",
" . c #A65D40",
".. c #AD6A44",
"X. c #B57045",
"o. c #BE7746",
"O. c #BF7847",
"+. c #B07C56",
"@. c #816060",
"#. c #826E69",
"$. c #8A6562",
"%. c #84736C",
"&. c #8B726D",
"*. c #94736E",
"=. c #8D7C72",
"-. c #9A7B74",
";. c #B07964",
":. c #C77C47",
">. c #C97E47",
",. c #948177",
"<. c #9E847A",
"1. c #B78065",
"2. c #BA8469",
"3. c #A08279",
"4. c #AA857B",
"5. c #B68673",
"6. c #BD8B71",
"7. c #BC907C",
"8. c #CD834A",
"9. c #D48344",
"0. c #D88747",
"q. c #DA8947",
"w. c #DC8C4A",
"e. c #D78B4B",
"r. c #DE904D",
"t. c #D29057",
"y. c #DE9B5F",
"u. c #DA9151",
"i. c #E2934D",
"p. c #E79951",
"a. c #AF8E82",
"s. c #B18F82",
"d. c #AA9686",
"f. c #BB9B8B",
"g. c #B49385",
"h. c #BDA090",
"j. c #C59C83",
"k. c #DAAE87",
"l. c #C3A694",
"z. c #C6A995",
"x. c #CCAD98",
"c. c #CCAA93",
"v. c #CFB29C",
"b. c #D1B59F",
"n. c #D2B7A0",
"m. c #D4BAA3",
"M. c #DABBA4",
"N. c #E0C0A7",
"B. c #E4C4AA",
"V. c #E8C7AC",
"C. c #EBCAAE",
"Z. c #EECCB0",
"A. c #F2CFB2",
"S. c #F5D2B4",
"D. c #F9D5B6",
"F. c #FCD7B8",
"G. c #FFD9B9",
"H. c #FFDABA",
"J. c #FFDAB9",
"K. c #FFDCBB",
"L. c #FFDFBE",
"P. c #FFD9B9",
/* pixels */
"                                                                                                                ",
"                                                                                                                ",
"                                                                                                                ",
"                                                                                                                ",
"                                                                                                                ",
"                                                                                                                ",
"                                            C C A K H C A                                                       ",
"                                            C C A K H A J S C                                                   ",
"                                          C C A H P G A P F C                                                   ",
"                                        C C S J P P I G L F C                                                   ",
"                                        C C S U ` ` ' ' ` Q V                                                   ",
"                                      R R C Y W >.8.8.8.w._ R                                                   ",
"                                  C C ( 9.R ] O.r q 0 y 8.i.w.                                                  ",
"                                  C C ) 9.R ] r.:.T ~ 8.r.i.i.                                                  ",
"                                  C V ) 0.R ] p.i.9.] ) w.p.9.Y                                                 ",
"                                      W ( D E { r.} E Y ( _ ! A                                                 ",
"                                        V A V T _ R B C V V V C                                                 ",
"                                        B B B B V A A V C C C C                                                 ",
"                                        , , > : B V V A C V C B : o >                                           ",
"                                  1 1 g n n #.x ; B A V C V B ; x j # o                                         ",
"                                2 2 2 5 h %.=.,.-.r % = - = @ o x %.l > X #                                     ",
"                              2 2 2 2 1 5 g v d.C.f.-.v > j &.*.f.b.z.-.i . .                                   ",
"                            1 1 2 2 2 2 1 1 a -.Z.L.H.M.*.f.C.V.D.K.H.C.s.| z 6                                 ",
"                      a p h f a 2 2 2 2 3 3 1 f g.B.F.H.K.H.H.H.H.H.H.H.K.D.M.@.6                               ",
"                    %.%.<.l.z.$.2 2 2 2 2 2 2 2 e s.C.D.H.F.H.F.G.G.G.G.G.G.D.N.*.#                             ",
"                    7 7 4 i %.=.x 5 2 2 2 2 2 1 5 a.m.M.D.H.F.H.G.G.G.G.G.G.H.H.4.>                             ",
"                  2 2 1 1 1 6 c @.5 2 2 2 2 2 1 e s.m.m.D.H.H.H.G.G.G.G.G.G.G.H.M.3.6                           ",
"                1 3 2 2 3 1 * i d , @ # 1 1 2 1 5 s.m.M.D.H.H.D.G.G.G.G.G.G.G.H.A.l.6                           ",
"                  2 2 2 2 2 2 1 1 > # # & , 1 1 3 7.b.m.S.H.H.D.G.G.G.G.G.H.F.H.C.l.d                           ",
"                    2 2 2 2 1 w u t 1 # X X # 5 k f.b.M.D.H.H.H.G.G.G.G.G.F.H.H.C.b.                            ",
"                    2 2 2 2 q ..i.e.u , < 4 < z z.m.b.m.S.H.H.G.G.G.G.G.G.G.H.H.C.b.                            ",
"                      2 1 w :.r.i.r.e.+.=.h.z.z.b.b.b.M.D.H.G.G.G.G.G.G.G.G.H.H.C.b.                            ",
"                        2 3 t X.i.i.i.u.t.y.k.m.n.b.b.M.D.H.G.G.G.G.G.G.G.G.G.H.C.b.                            ",
"                                i.i.i.i.q.) / 1.b.b.v.M.D.H.G.G.G.G.G.G.G.G.G.V.M.b.                            ",
"                                  i.i.i.w.] D ^ x.n.b.M.D.H.H.H.G.G.G.G.G.G.G.M.v.b.                            ",
"                                    i.i.i.i.!  .x.b.v.m.C.D.H.F.G.G.G.G.G.H.G.N.v.m.                            ",
"                                    i.i.i.0.W  .x.m.b.b.b.V.D.H.G.G.H.H.H.D.S.M.b.b.                            ",
"                                    w.i.9.R V ^ c.b.b.b.b.b.B.D.H.D.D.D.H.A.m.b.b.b.                            ",
"                                    E R R C C Y ^ j.m.b.b.b.b.M.M.M.M.M.M.M.b.b.b.b.                            ",
"                                    V V V C C V C ^ 6.m.b.b.b.b.b.b.b.b.b.b.b.b.b.b.                            ",
"                                    C C C C C C V V ~ 2.v.m.m.m.m.m.m.m.m.m.b.n.n.                              ",
"                                    C C C C C C C V V T ;.5.5.5.5.5.5.5.5.7.v.                                  ",
"                                    C C C C C C C C C V m + + + + + + + + +                                     ",
"                                        C C C C C C C C   + + + + + + + + +                                     ",
"                                        C C C C C C C C   + + + + + + + + +                                     ",
"                                        C C C C C C C C   + + + + + + + + +                                     ",
"                                        C C C C C C C C     + + + + + + + +                                     ",
"                                        C C C C C C C C       + + + + + + +                                     ",
"                                          V N V C C V V       + + + + + + +                                     ",
"                                          m + M C C N +       + + + + +                                         ",
"                                          + + M C C N +       + + + + +                                         ",
"                                            m m M M m +       $ * - 9 9                                         ",
"                                            $ O + + + +       & o > , 2 2 5 2                                   ",
"                                          # o * 8 8 8 8       # # & & , 1 , ,                                   ",
"                                          # # > 1 2 5 2 2       # # # # # # >                                   ",
"                                            # # & 1 2 2 2                                                       "
};
