/* XPM */
static char *c31679561429[] = {
/* columns rows colors chars-per-pixel */
"56 56 256 2 ",
"   c #3D1E1C",
".  c #4F1D1D",
"X  c #771E13",
"o  c #53271D",
"O  c #7C2315",
"+  c #752C1C",
"@  c #782719",
"#  c #75311D",
"$  c #722914",
"%  c #471C26",
"&  c #491E31",
"*  c #4C2529",
"=  c #572927",
"-  c #553928",
";  c #4E2435",
":  c #532533",
">  c #552A33",
",  c #582B38",
"<  c #5B3636",
"1  c #4D322A",
"2  c #652726",
"3  c #742922",
"4  c #6B3524",
"5  c #773727",
"6  c #623936",
"7  c #703332",
"8  c #5C5928",
"9  c #5D453B",
"0  c #654638",
"q  c #724E33",
"w  c #5A6425",
"e  c #65692C",
"r  c #65742B",
"t  c #6C6D36",
"y  c #6D6C3A",
"u  c #686735",
"i  c #726D3D",
"p  c #76693A",
"a  c #6B7436",
"s  c #74733D",
"d  c #78773B",
"f  c #78772E",
"g  c #68501B",
"h  c #5B3542",
"j  c #613F40",
"k  c #674745",
"l  c #6D5746",
"z  c #755649",
"x  c #785655",
"c  c #754B4E",
"v  c #746D44",
"b  c #7B6D43",
"n  c #7A6748",
"m  c #6E7441",
"M  c #757342",
"N  c #7B7344",
"B  c #7C7B44",
"V  c #7D754A",
"C  c #7D7B4B",
"Z  c #757B45",
"A  c #736C4D",
"S  c #7D5E63",
"D  c #811D15",
"F  c #832619",
"G  c #8B3B1B",
"H  c #933B1C",
"J  c #9B3C1C",
"K  c #963C15",
"L  c #973A0F",
"P  c #963C24",
"I  c #873B26",
"U  c #95421C",
"Y  c #99461A",
"T  c #8F4E17",
"R  c #A9571A",
"E  c #A14713",
"W  c #B1611E",
"Q  c #8A4529",
"!  c #934223",
"~  c #984628",
"^  c #9A5927",
"/  c #98583A",
"(  c #8B5032",
")  c #A94E22",
"_  c #A65827",
"`  c #A55939",
"'  c #B55729",
"]  c #8E6934",
"[  c #B86628",
"{  c #AB683B",
"}  c #BA693A",
"|  c #AF6D32",
" . c #C87339",
".. c #CB733D",
"X. c #9A5F45",
"o. c #845C59",
"O. c #8F5649",
"+. c #A55D44",
"@. c #866849",
"#. c #9B6648",
"$. c #837445",
"%. c #837B46",
"&. c #83734C",
"*. c #837C4C",
"=. c #8A7C4D",
"-. c #8A774B",
";. c #93784C",
":. c #846954",
">. c #996B52",
",. c #857351",
"<. c #8B7653",
"1. c #857C53",
"2. c #8C7C53",
"3. c #8D7D59",
"4. c #8B735A",
"5. c #927D54",
"6. c #937D5B",
"7. c #997958",
"8. c #A66847",
"9. c #A76B55",
"0. c #A87757",
"q. c #B77C5A",
"w. c #B46F4B",
"e. c #896868",
"r. c #8C7764",
"t. c #967C67",
"y. c #997A76",
"u. c #8F6F76",
"i. c #A37B72",
"p. c #B07C64",
"a. c #885F65",
"s. c #C67747",
"d. c #D2794B",
"f. c #728438",
"g. c #7C8546",
"h. c #7A8054",
"j. c #84834D",
"k. c #8C844E",
"l. c #858747",
"z. c #93874C",
"x. c #858352",
"c. c #8C8354",
"v. c #8C8A54",
"b. c #8D835A",
"n. c #8D8A5A",
"m. c #858854",
"M. c #928455",
"N. c #938B54",
"B. c #94845B",
"V. c #9A855D",
"C. c #948B5B",
"Z. c #9A8C5D",
"A. c #9A8856",
"S. c #8C9356",
"D. c #95915B",
"F. c #9C925C",
"G. c #9A9659",
"H. c #A6865B",
"J. c #A2945D",
"K. c #A9804C",
"L. c #8E8A63",
"P. c #958461",
"I. c #9C8563",
"U. c #958A62",
"Y. c #9C8C64",
"T. c #9D8C6A",
"R. c #97886B",
"E. c #969463",
"W. c #9D9264",
"Q. c #9D9863",
"!. c #9D936A",
"~. c #9A966B",
"^. c #9D9872",
"/. c #9B8A73",
"(. c #A28C65",
"). c #A38D6B",
"_. c #A98867",
"`. c #B88669",
"'. c #A39364",
"]. c #A39B64",
"[. c #A3936C",
"{. c #AA946C",
"}. c #A59A6C",
"|. c #AB9B6C",
" X c #AA9565",
".X c #B6966B",
"XX c #A98D73",
"oX c #A68776",
"OX c #B88472",
"+X c #A59472",
"@X c #AC9473",
"#X c #A59A73",
"$X c #AB9B74",
"%X c #AD9C7A",
"&X c #A9967B",
"*X c #B29B74",
"=X c #B49D7C",
"-X c #B79877",
";X c #ADA46D",
":X c #ABA274",
">X c #B4A275",
",X c #B4A47B",
"<X c #BAA47C",
"1X c #B9A778",
"2X c #B4A16E",
"3X c #D8874C",
"4X c #D89358",
"5X c #CF8657",
"6X c #E5975B",
"7X c #E48C54",
"8X c #D89562",
"9X c #C5987C",
"0X c #C98C6A",
"qX c #CEA674",
"wX c #E09460",
"eX c #B89886",
"rX c #B0928A",
"tX c #BBA583",
"yX c #BCAA83",
"uX c #B6A785",
"iX c #AFA383",
"pX c #C39D97",
"aX c #CC9987",
"sX c #C8A889",
"dX c #D6A789",
"fX c #CBAC96",
"gX c #DBAB95",
"hX c #CEB59A",
"jX c #CEB497",
"kX c #D4B59C",
"lX c #D5BA9D",
"zX c #D8B59B",
"xX c #CAB38B",
"cX c #E1B29C",
"vX c #CEB2A4",
"bX c #D3B4A3",
"nX c #DBBEA3",
"mX c #D8B8A5",
"MX c #D9B5AB",
"NX c #E1BAA6",
"BX c #DBC499",
"VX c #DBC1A5",
"CX c #E4C7AA",
"ZX c #FFD8AE",
"AX c #E9CAB2",
"SX c #EED1B2",
"DX c #FED5B4",
"FX c #FEDAB5",
"GX c #F6D5BA",
"HX c #FDD5BA",
"JX c #FDDABC",
"KX c #F4D7B9",
"LX c #F5CFB9",
"PX c #FEDAC1",
"IX c #F9D5C3",
"UX c #F3CFC1",
/* pixels */
"b b.+X%XR.L.c.y w r f.f.r r g.S.%.] f.g.m A R.A ,.,.B.'.(.V.U.6.B.C.U.Y.c.C a h.x.N j.p M c.J._.|.Z.Z.B s e w w ",
"1.R.+X+Xb.B.C u r r f.f.f.S.G.S.d k.B a y m m 1.T.I.[.-.V.2.&.3.&.1.5.M.v.M 8 C m.%.c.c.$.C.(.|.'.5.=.%.t s w w ",
"3.[.@XT.!.[.c.S.m.f.r f.f.r j.D.g.g.g.r a a u *.P.[.t.,.<.P.).P.3.1.2.<.*.i m C n.C.t $.N N.'.}.{.c.N s s t g.g.",
"3.&.B.R.T.[.E.v.S.g.f.f.f.f.B j.g.g.l.f e r s l.C.,.&.<.,.4.V P.!.*.$.p M Z Z Z v.v.8 N c.C.M.V.M.2.$.%.j.e Z Z ",
").I.+X).P.2.W.n.g.l.g.r a S.v.C Z d f f l.f f.k.C [.*XV.V.5.&.B.%XU.N *.L.m.m.C N 8 t M x.C.2.(.{.W.c.N t s y m.",
"+X).6.<.[.!.Q.D.m.s S.f.n.n.*.*.N.n.z.G.J.p d z. X9X.X5.A.A.[.%X[.W.E.C.n.x.C m.N s b.m M V 3.$X$X#XY.*.M i i j.",
"<.<.&.<.).#X!.E.G.g.l.S.D.!.B.U.Q.~.F.F.z.k.A.] ] } | ^ ^ .X.X&X%XB.yX3.V L.C m.n.~.:XC.b.V B.'.$X#XY.C.1.i m.x.",
"T.[.<.2.B.B.s k.y s D.n.D.[.%X*X%X!.Q.E.N.;.K.T T _ W T ^ { _.@X).b.3.V C.b.U.n.1.M B.%XR.c.T.!.[.5.*.'.N C v.n.",
"%XT.U.3.<.1.N 8 u v.!.C.Y.+X[.XX@XtX=XR..X.X^ T W W R E W _ H.-X).R.).I.B.R.[.U.b.b.U.+X).$XT.(.{.V.5.B.Y.W.U.:X",
"Y.P.b 2.C.b.U.N p Y.}.[.[.,.6.).t.@XeX(._./ T ' [ [ W R W R 0.OXI.I.).+XU.2.Y.[.[.yX#X[.[.I.Y.B.;.I.(.Y.M.W.}.Y.",
"b.b.1.Y.%X:XY.1.V :X,XyXyXZ.(.).$._.qX.X^ G ) ' }  .3X . .| H.7.V.P.P.T.[.B.[.[.#X$XE.[.).-.6.6.<.2.>XZ.p (.=X{.",
"Y.b.3.3.b.#X+X<.+XyXyXuXuX[.B.=.A.H.J.0X~ K ) ' 3Xw.s.3X3X} K.5.7.@X+XC.b.6.(.(.}.[. X[.B.Y.'. X(.Z.A.2.V.}.V.V.",
"3.[.b V Y.+X+XT.T.&X&XiXuX}.1.$.H.] ^ w.d.' ' s.T 5 $ Y d.4X2XJ.2.{.=XB.V.(.J.V.M.C.>X>XH..XA.k.Z.'.Z.'.N.&.M.5.",
"M.B.5.).%X$X+XP.+X+XP.1.V M x.c.H.( T { 5X) s.d.w.T _ s.3X6XqX] $.Y.,X'.(.|. X].Q.;X2XJ. X XJ.G.A.}.F.A.M.d -.2.",
"(.B.V.'.).t.B.).T.).R.V u m m.B._.( Q w.s.R [ 6X8X5Xw.} 3X4X4X0..X X|.G.|.>X.X2X].2X].M.A.2XJ.J.;XZ.Z.N.M.c.-.N ",
"5.A.Z.[.I.b <.T.t.P.T.1.y 1.Z C M.H.q.H.{ Y _  .4Xs.' E [ } ` ^ 9X,X,X>X>X*X2X1X2X].F.F.z.z.G.;X>XF.%.k.}.N.c.j.",
"l.].F.|.A.b B.U.R.,.&.1.A C R.m.x.%.-.0.( G ! ) } _ L L J J J ` =X).=X@X X-XqX=XsX1X'.Z.z.z.l.A.F.=.%.k.J.m.l.z.",
"%.G.;XD.v.j.2.c.Y.'.!.b x.E.:X^.E.v.;.;.5 5 5 G H G K L J J P / XX/.rXXX_.-X*X(.<X<X<X].z.z.%.A.F.F.N.D.D.n.f e ",
"k.G.J.D.N.c.*.C.Q.C.b.c.b.%XuX%XR.P.r.r.< = 2 7 5 Q ~ G ! H I q 9 1 x /.oXeX).=XtX$X$XZ.A.A.A.A.A.J.J.v.f t t %.",
"Z.J.Z.F.N.%.l.n.m.i y c.U.+X+X).rXA c x a.e.a.c 2 5 Q Q Q Q 3 2 l k & k r.oX+XiX+XC.c.J.J.'. XV.].A.v.j.l.] d l.",
"*X|.'.C.*.B B d d M c.~.P.n 6.oXz < > < x u.y.y.y.O.o 2 = 2 = * :.u.c > 9 u.iXiX+Xb.,.F.F.'.$X1X>X|.].j.k.k.M.v.",
"*X X'.%.t t e w a g.b.!./.&Xi.z , ; : = , k a.rXMXpXi.o.* 0 e.t.rXMXpXy.9 1 /.eXiXL.x.n.F.W.Y.*X1X,X|.[.C.Y.A.Z.",
"*X=X}.c.Z y w u M x.x.&XrX/.9 > * > , , * = 0 /.AXIXUXbXi.aXAXAXDXPXPXMXeXS n /.uX^.L.C n.F.C.[.<X=X{.{.V.V.[.*X",
"(.tX#Xn.Z a a d Z 1.+Xr.x x l 9 > > > = = = o 0 rXMXIXIXLXHXPXHXFXDXJXPXGXGXjX<.r.&XR.E.n.D.m.Q.=X-XXX-X=X{.=X{.",
"6.[.^.C Z m a w 8 n t.e.y.rXpXS , , : & , ; > > 6 OXAXHXIXHXHXDXZXZXFXDXJXJXLXNXt.z /.L.L.x.M Y._._.-X9X-X{._.{.",
"<.I.^.L.h.u m h.N 4.z < h c u.u.o., : h ; ; , * < rXcXCXDXDXJXFXZXFXFXJXFXJXJXGXoXz /.%X~.c.M b.V.-X=X(.H.*X{.7.",
"Y.R.R.~.h.Z m.E.t.z < * h & h S o., : : h h , : < oXbXnXKXFXFXDXJXJXJXJXJXFXDXJXVXoXl 6.+X%XY.T.[.#X).T.[.#XY.v ",
"#X[.U.~.L.^.~.#XI.0 1 ; h ; & h h : & & & , : > < oXMXlXSXFXFXJXPXPXPXPXJXDXFXJXGXeX0 :.P.[.%X%X#X#XT.[.#X}.#XC.",
"{.:X#XT.~.uX:X,X).o.> > , > = > = & & & & & ; > < oXbXnXKXFXDXJXJXPXPXPXPXJXJXJXAXfXt.).(.4.oX&X+XI.,.P.#X=XyX%X",
"Z.#XuX%X:XuX[.}.%Xt.0 > > = = 5 O.7 = % % % % > x rXlXlXKXJXHXHXFXFXPXJXJXJXJXPXLXhX&XI.).I.6.XX-XV.@.6.=XxXBX<X",
"}.|.$X{.{.{.|.{.@Xt.z < = 2 I 9.0X5X( o = < h x fXbXkXzXSXJXPXJXFXFXJXJXJXJXKXKXVXhX+Xb <.U.P.@X[. XU.A.Z.1XBX1X",
"Z.'.{.@X@XV.*XV.P./.4.z 4 4 9.0X4X4X5X0.9.aXpXvXgXMXkXlXGXPXPXHXFXZXFXJXJXJXPXKXSXVX,X<.B.6.I.@X*X'.{.1X X}.qXqX",
"M.'.$X'.#X,XM.W.V.$.<.7.>.# ( 0.4X4XwX4X8X0XdXcXgXlXjXlXSXKXPXJXFXFXFXJXPXHXJXKXSXhXeXI.B.6.I.&X{.|.{.*X<X<X=X-X",
",X$X[.$X,X}.Z.=.$.p J.2X1XH.`.qXqX4X4X4X4X} { q.dXmXkXlXPXPXFXJXJXFXFXJXHXHXGXAXVXhX).6.<.3.*X_.*X[.] Y.<X=X.X{.",
"yX1X{.|.}.2.C.N.k.l.F.N.A.'.|..X0XqXqX4X3X| ^ #.fXbXhXmXUXKXDXJXJXJXHXHXHXPXJXVXjXjXtX+X<.3.6.I.b.W.$.W.*X X>X>X",
">XyX<X}.[.M.N.].k.v.N.v.F.F.W.5.H.qXqX4X7X7X_ 8.dXbXMXMXCXJXJXDXHXHXHXHXHXPXGXVXlXxXXXT.3.3.6.I.Z.!.Y.'.'.Y.}.(.",
">X1X*X{. X XZ.;XQ.;X;XQ.].].E.C.3.{.qX8X6X3X' 8.gXMXvXvXMXCXFXFXJXJXHXPXPXPXSXVXzXfX+X,.3.U.V.V.C.2.M.B.Q.Y.}.|.",
"J.H. X1X(.M.A.J.J.J.;Xz.|.1XY.M.1.Y.qX5Xd.' K ` aXzXMXvXvXhXVXJXJXGXGXHXGXAXVXhXjXkX%X<.1.b.B.(.2.-.b p C.*.-.b.",
"N $.Q.1X'.%.M.Z.G.F.].D.G.A.c.}.b.B.q._ ) K K ~ +.9XcXbXbXbXlXlXVXnXnXnXnXnXhXhXjXjXT.Y.1.V V.V.M.M.$.d Y.B.N $.",
"*.i c.C.Y.M.M.Z.N.F.'.F.M.M.V.Y.3.-.9.! H H U G P +.0XgXcXgXbXhXjXlXkXjXkXkXhXhXlXtX%X#X*.3.-.B.c.*.&.*.c.v.v *.",
"E.n.V c.}.1X'.Z.N.A.A.5.A. X{.-.u 7.8.Q ! H ~ U P G +.0XgXNXmXkXMXcXcXNXkXkXfXtXxXtX%XT.C V v c.1.w u x.C x.C v.",
":X:XW.Z.Y.U.(.2.A.'. X'.V.*X$XI.-._.9.Q Q I G U H H P ( q.OXOXOXp.9Xp.p.OX-XoXt.).eX+X'.1.b N p M e Z n.C B i n.",
"[.$XY.5.(.I.(.;.M.V.*X>X(.{.-X@XW.(._.X.! ! U U J H P ~ X.5 + 3 3 3 3 @ 4 >.XX-X@X@X6.=X#Xm.n.m.N j.C j.Z v.u u ",
"6.V.I.(.{.-X{.{.V.$.V.|.*X=X=X<X=X&.;.`.~ G K U K Y P +.dXp.$ X D D O X + X.-X-X@X).6.6.b.1.b.x.x.Z n.Q.N j.*.B ",
"(.V.$X-X).#X=X'.b p Q.,X1X,X{.@X$XY.<.`.~ ~ G K J J P w.9X0.@ O D D D F 3 9.-X6.,.I.(.2.,.b.n.C x.N i N u *.s *.",
"[.}.$X XY.V.}.M.C.B.Q.'.Y.$X(.T.#X[.I..XQ H K J J J P 9.sX_.# O @ F D D + 8.XXn ,.).)._.B.B.m.C E.y 8 u y x.2.C.",
"(.*X(.P. XU.V.M.'.:X1X'.V.|.).I.6.Y.-X9XQ P J K J P ! X.@XXX9.# $ O F O + >./.C 1.T._.t.6.'.~.n.x.E.E.N p x.M.D.",
"Y.(.V.(.(.Y.-.=.W.:X1X'.=XxX=X7.@.6.tXdXq.` H ) J J ! #.{.P.9.5 @ X O X 4 O.,.1.C P.I.I.6.T.P.L.M h.:Xn.N x.C.j.",
").7.I.XX XU.b *.=.N.}.c.Q.}.E.p V '.yX-X0X` P H P J P +._._.9.I O D O 3 q @.&.V y y P.3.I.+X+X+XY.1.Q.~.1.p *.Y.",
"-X@X_..X}.c.*.c.j.v.v.e p j.g.s b %X[.I.9./ O F P P P Q >.p.0.5 @ O X + @.>.I.'.1.8 v 3.Y.oXXX@XuX[.[.}.c.c.Y.*X",
"=XXX.X{.[.Q.Q.Z.j.j.N t *.v.B j.C B.Y.6.9.X.+ @ P P F / 7.(.>.5 3 3 3 7 _.i.oX[.~.C N N 2.{.[.[.).[.).[.Y.(.'.[.",
"(.t.@X).C.D.Q.k.%.N.m.v.N.N.B N.c.W.E.P.V.`.X.5 F F 3 O.>.7.O.4 . 2 2 2 i.&XoX).#Xn.N i $.M.5.(.(.+X).I.{.).{.(.",
",.(.{.}.b.N v.%.c.Q.D.Z B N.l.v.j.:Xn.C 6.@.( = X 3 2 O.:.I.@.o . . o 6 o.r.@.4.,.V C Z %.*.2.C.I.(.6.,.P.3.).).",
"7.{.).B.x.j.k.N.F.C.j.t d D.D.S.v.C.n.A 6.- . . 2 2 2 7 z 3.:.0 1 . * * = 1 - :.3.i *.Q.'.D.Z.C.).=X@XI.6.<.3.I.",
"T.).'.1.j.D.v.G.N.j.m.B B %.D.;XN.l.g.m v z < * = 2 2 = - q <.,.9 9 x x z l q 4.P.1.c.E.}.,X~.b.(.}.+XY.V b.P.#X",
"Y.(.{.].%.d j.k.=.d j.s d d N.G.J.J.x.m v u S * % 2 , = 1 n P.b.r.R.y.t.r.t.:.4.<.2.y C C.}.L.R.$X[.B.&.v 1.1.n."
};
