/* XPM */
static char *bearded_idle_3_ConvertImage_removebg_preview__1_1679577647[] = {
/* columns rows colors chars-per-pixel */
"56 56 251 2 ",
"   c #3D1C2A",
".  c #3E2B0D",
"X  c #7A1E15",
"o  c #58251D",
"O  c #492618",
"+  c #6B2718",
"@  c #7B2314",
"#  c #772718",
"$  c #742C16",
"%  c #491B26",
"&  c #491B31",
"*  c #5B1D2F",
"=  c #4D2A2B",
"-  c #4C242A",
";  c #56272A",
":  c #4B3329",
">  c #563429",
",  c #532532",
"<  c #552A33",
"1  c #5A2B34",
"2  c #592839",
"3  c #583734",
"4  c #4C2936",
"5  c #632A24",
"6  c #742A28",
"7  c #783724",
"8  c #653A3B",
"9  c #662F2F",
"0  c #441D18",
"q  c #595923",
"w  c #5B4835",
"e  c #625B29",
"r  c #684A3B",
"t  c #714B33",
"y  c #5A6526",
"u  c #66682C",
"i  c #64742B",
"p  c #6A6633",
"a  c #6D6C34",
"s  c #696937",
"d  c #726D3D",
"f  c #776B39",
"g  c #6C723B",
"h  c #6B7634",
"j  c #74743B",
"k  c #78773B",
"l  c #51601F",
"z  c #643541",
"x  c #774B49",
"c  c #695546",
"v  c #7C5B57",
"b  c #6E4F49",
"n  c #7B6D45",
"m  c #7B6D4A",
"M  c #786746",
"N  c #757442",
"B  c #7C7344",
"V  c #757A44",
"C  c #7C7A44",
"Z  c #7D754B",
"A  c #7D7C4B",
"S  c #757B49",
"D  c #7D7752",
"F  c #756D4A",
"G  c #5D4640",
"H  c #822B16",
"J  c #8B3819",
"K  c #943D1C",
"L  c #983C1B",
"P  c #81330F",
"I  c #843E27",
"U  c #953D22",
"Y  c #8B431B",
"T  c #9A421D",
"R  c #994716",
"E  c #9B5B1D",
"W  c #A65718",
"Q  c #A64D1E",
"!  c #B2631D",
"~  c #8B4628",
"^  c #944224",
"/  c #974727",
"(  c #9A5728",
")  c #944B33",
"_  c #8A5638",
"`  c #975938",
"'  c #864F33",
"]  c #A95626",
"[  c #AC5A33",
"{  c #986737",
"}  c #86763E",
"|  c #B96733",
" . c #AA6235",
".. c #C67239",
"X. c #C16E31",
"o. c #9A5E43",
"O. c #865951",
"+. c #A15D42",
"@. c #846D47",
"#. c #817544",
"$. c #827C46",
"%. c #83744B",
"&. c #89734D",
"*. c #847C4C",
"=. c #8A7C4C",
"-. c #8A7A45",
";. c #95784C",
":. c #876856",
">. c #9B6853",
",. c #8B7553",
"<. c #857A53",
"1. c #8C7C54",
"2. c #8C7D5A",
"3. c #847555",
"4. c #937D55",
"5. c #937D5B",
"6. c #9A7A58",
"7. c #A8674A",
"8. c #A5774B",
"9. c #A46A56",
"0. c #A97859",
"q. c #B6734C",
"w. c #876867",
"e. c #897863",
"r. c #977D65",
"t. c #967875",
"y. c #926A60",
"u. c #A57C61",
"i. c #A97C6D",
"p. c #C77949",
"a. c #D17B49",
"s. c #CC7E52",
"d. c #728438",
"f. c #7D8546",
"g. c #7F8150",
"h. c #81813F",
"j. c #84834C",
"k. c #8B834E",
"l. c #858848",
"z. c #93824D",
"x. c #848352",
"c. c #8B8354",
"v. c #8C8A54",
"b. c #8D835B",
"n. c #8E8B5B",
"m. c #868A56",
"M. c #938454",
"N. c #938B55",
"B. c #93845B",
"V. c #9A845D",
"C. c #948B5B",
"Z. c #9B8C5C",
"A. c #9B8856",
"S. c #8C9356",
"D. c #95915C",
"F. c #9B925D",
"G. c #999659",
"H. c #90934E",
"J. c #A5885D",
"K. c #A2955C",
"L. c #B6815F",
"P. c #948463",
"I. c #9C8563",
"U. c #958B63",
"Y. c #9C8C63",
"T. c #9D8C6A",
"R. c #98846A",
"E. c #969363",
"W. c #9C9264",
"Q. c #9D9965",
"!. c #9D936B",
"~. c #9A9769",
"^. c #9A8772",
"/. c #9D9373",
"(. c #8D8B63",
"). c #A18C64",
"_. c #A48D6B",
"`. c #AB8C6C",
"'. c #A78667",
"]. c #B6876A",
"[. c #A39364",
"{. c #AB9464",
"}. c #A49B64",
"|. c #A3936B",
" X c #AA946D",
".X c #A59A6C",
"XX c #AB9B6C",
"oX c #A99A65",
"OX c #B49568",
"+X c #A88977",
"@X c #BA8771",
"#X c #A59472",
"$X c #AB9473",
"%X c #A59A74",
"&X c #AC9B73",
"*X c #AD9C79",
"=X c #AA957A",
"-X c #B39475",
";X c #B29C74",
":X c #B39D7B",
">X c #BB9C7C",
",X c #B89678",
"<X c #ADA069",
"1X c #ACA276",
"2X c #B4A475",
"3X c #B4A47B",
"4X c #BAA37B",
"5X c #B9A77A",
"6X c #B2A36E",
"7X c #D88956",
"8X c #DA9458",
"9X c #CF8652",
"0X c #E1925A",
"qX c #C68968",
"wX c #D99766",
"eX c #C59878",
"rX c #CC916F",
"tX c #C0A77D",
"yX c #D3A772",
"uX c #E29060",
"iX c #B89A85",
"pX c #B89A94",
"aX c #B08B86",
"sX c #BBAB82",
"dX c #B8A683",
"fX c #C69F85",
"gX c #C09890",
"hX c #C7B38C",
"jX c #D7AD96",
"kX c #CCB798",
"lX c #D3B59B",
"zX c #D8B79A",
"xX c #CEA68E",
"cX c #E0B093",
"vX c #DBBBA3",
"bX c #D7B8A3",
"nX c #CCB1A3",
"mX c #E1BAA6",
"MX c #D6C299",
"NX c #DCC1A4",
"BX c #E6C6AA",
"VX c #EDCBB9",
"CX c #FCD6B6",
"ZX c #FCDAB6",
"AX c #FDD5BB",
"SX c #FEDABB",
"DX c #F4D3B7",
"FX c #F5CEB1",
"GX c #FDD6C1",
"HX c #FEDAC2",
"JX c #FED7C8",
/* pixels */
"n b.#X*XT.b.b.g y i d.d.i y f.H.d.f.C f.a j C.F 2.M J.{._._.P.3.(.b.Y.).4.=.n x.m.S <.M n 5.Y.|. XZ.Z.$.j u l l ",
"<.U.#X#Xb.P.<.u i d.d.d.d.H.G.m.j f.k a j u s 2.P.!.).M.6.,.<.2.Z 2.1.M.B.n q A m.V x.x.C V.|.%X[.1.=.*.a g y h ",
"2.#X$XT.|.|.m.n.f.d.i d.f.i f.D.f.l.l.a h k g D E./.c.@.4.Y.W.B.b.C c.*.#.B j f.v.S.a #.B N.W.oX Xc.#.j V s f.f.",
"2.%.B.R.Y.!.E.v.S.f.f.d.d.d.f.l.C $.l.k u h g D (.D %.%.<.&.B C..X=.#.d a k V k m.m.e k v.N.M.Z.M.1.#.C j.u V j ",
"_.I._._.P.1.W.S.l.l.f.i h S.v.*.} k f k h.k N m.D !. XA.V.6.#.Z.K.Y.j C Q.x.C j.j l i N k.C.-.Y..XY.M.B g k g x.",
"#X#X5.,.|.T.Q.W.m.j f.d.S.n.*.%.Z.Z.N.G.H.k g n.%X3XV.;.>.J.OXOX;X X XC.g.g.x.m.S g m.g k #.M.XX&XXXU.*.d d d x.",
",.,.&.1._.%XW.D.D.f.l.v.C.!.B.P.W.E.D.G.H.H.H.C.Y.).8.{ ~ 7.q.( _ {.;X2.g.(.S m.C..X%XC.2.B B.|.;X%XU.Z.*.j m.x.",
"T._.,.<.B.V.j x.g N D.v.E.|.*X*X&X!.W.Q.h.h.l.Z.1.{ { ( E ! E R Y ].8.<.x.m.(.(.<.m B.*XT.b.T._._.4.*.!.B A c.b.",
"*XT.U.2.1.<.B q p v.!.C.U. X|.$X=XdX1XW.N.G.l.A.z.{ E ! E W ! W T ` ].J.A.V.*X5.b.(.U.%X/.*XT._. XV.1.V.C.W.U.3X",
"T.P.@.<.C.b.U.B n U.|.|.#X1.I.I.r.*X=Xc.G.F.M.J.OX{ E ! W ! X.! ] / { qX'.0.6.$X/.sX%X|.#XI.R.r.4.V.).Y.V.W..XY.",
"b.B.<.U.&X*XU.<.Z 1X5XsXsXP.).|.Z T.dXU.N.N.W.).L.{ E ......X.a.| Q Y ' OX8.OX{. X;XI.|.T.,.5.5.,.1.2XZ.f I.2X|.",
"Y.b.1.b.B.%X#X1.#XsXdXdX5X$X2.<.b.T.!.%X[.W.Y.6.tXq.q.7Xa.a.9XX.! Q R / qXJ.OX'.{.`.}..XM.Y.[.|.[.A.Z.1.Z. XV.V.",
"2.|.n n Y.$X#XT.|.=X#XdXdX/.j.Z T.|.2.U.#X|.P.+X@XrXuXa.] H J Y ..X.Q p.q.` { {.M.Z.6X6XF.XXA.4.Z.).Z.[.C.%.B.4.",
"B.M.4.|.*X&X#XI.#X#XP.2.Z g <.v.B.V.5.5.B.P.I.'.i.rXwX7Xa.] / q.7XX.Q s. .Y ' OXK.XX6XK.K.OXK.K.A..XZ.N.M.#.=.4.",
").M.I._._.I.5._._.#XP.F s N m.x.F.b.P._.B.:X*X0.q.9X0X7X| | 9X8X7XX.] 7Xq./ _ OXK.6XK.z.K.<XK.K.XXZ.Z.N.M.k.*.B ",
"4.N.Z.[.U.M 2.R.e.P.T.2.d <.S A *.%.<.U.3.:X$X0._ [ | ! R W 9X9Xp.] ^  .qXrXeXtXtXK.K.K.} A.A.<X5XF.$.k.}.C.x.*.",
"h.}.G.oXC.n P.U.P.<.3.<.F <.U.b.x.C Z A <.1X`.0.` U U L L L ] | ] J ^ ) rXeXdX>XkX4X).J.z.N.z.N.F.j.C k.F.v.j.z.",
"h.G.<XF.v.*.1.c./.!.E.Z <.T.*X~.Q.x.g.F <.|.-X9.) U U U L L J ^ 7 I 7 7 @XfX=X_.dX;XtX{.A.} z.A.Z.F.N.D.D.S.k u ",
"H.F.F.D.C.c.k.N.D.C.x.k.b.%XdXdXE.U.*.<.c.: O t 7 ~ U U T ^ K 7 1 ; ; z +XiX=X:X;X4XXXA.N.K.;.A.A.Q.K.H.k a u h.",
"Z.F.Z.W.N.$.k.H.k.a f N.U.!.!.T.!.U.R.3.: O x x 9 7 I ~ ~ I 7 9 O.w.w.v v c v dX:X4.M.F.K.K.K.K.{.N.z.} l.} k l.",
";X$X{.C.*.C C k k k z.N.B.n <.T.^.3.c G : b w.v o o o o o ; x i.t.t.w.b 3 = 3 M -X5.2.E.~.W.XX;X2XOX}.k.c.z.M.v.",
";X{.[.*.s g u q a z.z.F.XXZ.1.2.e.c : r t.nXnXiXt.y.r ; O.i.gXmXaXw.b 4 = = ; > v ^.e.(.U..XA.4X4X4X&X{.A.Y.C.Z.",
";X2X Xc.V s u a j c.-.A.[.&X|.P.m v :.$XNXGXGXVXBXmXfX+XnXJXJXGXt.b 4 4 4 2 , , - G t.^./.E.n.|.4X>X`. XI.V.|.:X",
"J.5X.Xn.g.s s N $.$.A.oX X[.|.Z ,.lXFXDXJXGXHXHXSXSXAXVXDXJXmXaXb 1 , 2 2 4 - 1 8 b v b e.aXb.!.>X,X`.-X>X`.;X{.",
"M.[..Xg.S g g s q e Y.;X;X$Xr 4.NXFXHXHXAXGXHXAXSXZXZXSXDXVXaX8 1 ; 1 2 , 1 < 1 w.pXpXt.w.R.R.T.`.'.-X>X,X`.`.OX",
"<.C.~.(.S s S f.d %. X$XiX=Xc #XDXSXHXHXGXHXHXAXZXSXZXZXNXbX+X3 ; ; * ; 1 , 1 v t.t.b z 3 G (.b.I.,X>X).).;X X4.",
"U.U.E.(.g.f.g.(.v.[. X:X_.:.+XvXSXZXSXHXGXGXAXZXZXZXSXDXvXbX+X8 = 1 1 2 1 , 3 v v 2 - , 4 3 F /.!.%X!.Y.%X%XY.N ",
"%X|.U.~.(.Q.~.Q.[..X|.=X,.r pXVXHXZXAXAXHXAXSXZXZXZXSXDXbXmX+X3 = < 4 & % % ; 8 z - , < , = : ^.%X%XE./.%X!.%Xb.",
"%X*X%X!.E.sX%X1XXXZ.Y.$XR.R.hXVXHXHXSXSXZXZXAXCXAXAXAXCXmXjXi.3 4 4 4   & & 0 * < 1 , 2 , 8 :.dX#XP.&.P.%X:XsX&X",
"U.%XdX&X1XsX1XQ.&XV.Z.&X$XpXbXVXGXAXSXCXZXSXSXAXAXAXAXAXmXbXpXO.3       % 2 7 O.8 5 ; 1 , 3 +X=X$XI.@.V.;XkXMX4X",
"|.*X*X_.`.|.%X#X#X|.2.Y.I.>XNXBXSXZXSXAXSXAXAXSXSXZXSXDXbXbXnXpXv 3 3 ; + O.qXwX7.t ; ; 8 v aX=X$X XJ.A.Z.5XMX5X",
").[. X;X*XV.$XT.V.).&.%.$XhXkXFXZXZXSXSXHXHXSXZXCXZXZXDXzXnXbXbXlXgX,X0.8.s.8XwXqX;.7 > w.i.+X$X;X).{.4X{.oXyXtX",
"B.).;X_. X3XM.Y.V.$.*.M.5XhXzXBXZXZXSXZXSXSXZXZXZXZXZXFXvXnXbXbXjXcXwX7X8X8X8XrX0.t w 6.'.u.R.=X;XOX X;X4XtX;X;X",
"4X*X|.;X5XXXZ.=.} p }.2X5XsXkXNXBXSXSXZXZXSXCXZXZXZXHXAXbXkXbXxX0. .| 7X8X8XyXyXeXOX'.V.;.6.`. X&X|.f '.4X;XOX;X",
"sX5X.XXX.X1.D.N.v.$.G.c.C.&XkXkXNXDXHXDXSXSXSXHXHXSXZXSXMXkXbXhX7.( | 9X8XwXyXqX'.`._.Y.6.,.5.B.M.W.n [.;X|.2X:X",
"1XsX3X.X|.c.N.oXk.v.N.N.W.}.MXMXNXSXHXDXSXHXAXAXZXHXSXBXbXNXnXfXo. .uX0X8XwX8.;.&.I.I.I.1.B.6.I.U.|.Y.|.[.Z.XX).",
"2X3X;X.X X[.A.OXoX6XXXoX[.XXMXzXNXGXHXJXGXJXGXJXHXDXBXbXlXkXlXjX7.[ s.0XuXyX8.&.P.2.%.1.=.C.B.V.Z.<.M.M.[.Y..X.X",
"W.F.}.5XJ.A.A.K.K.oXXXF.oX5XhXkXMXNXBXGXGXDXGXJXJXNXlXlXlXlXzXfX[ ^ ] s.0XyX{.=.%.b.Y.b.*.c.Y.'.1.*.n f V.=.*.M.",
"B %.W.5XF.-.M.K.A.K.[.N.F.U.<XMXsXnXvXNXvXvXmXmXbXNXkXlXzXjXeX+.) L L ] ] 8.A.M.2.m 1.B.x.A 2.).M.M.#.f E.B.B %.",
"*.j 1.C.Y.M.M.Z.N.F.}.[.v.(.sXMXMXkXlXlXlXbXmXjXnXlXkXzXcXqX+.^ U K L T Y 8.-.M.T.2.U..XA g.=.M.b.j.%.$.b.v.d A ",
"E.C.%.M. X5X[.J.z.F.N.=.Z..XhXhXsXMXnXzXzXzXmXcXmXbXjXjXqX` K / U L ^ K ^ 8.).Y.&X#X$X|.S V B <.<.y s x.A j.A b.",
"1X1XY.U.Y.U.[.=.A.}..X[.Y.*X&XT.=XdXiX].i.qXrXi.i.@X@Xi.) U U L L T L J ~ 9.@.2._.dX XY.j.N B d N u V n.A B N n.",
"|.%XY.5.).I.).4.4.Z.XX;XI.$X*X=X$X`.>.$ # 6 # 6 # $ 7 o.) U L L U L L ^ ` ].`.#X$X X5.;X%Xx.E.x.N g.g.j.A v.p u ",
"B.V.Z.I.$X;X X|.4.@.).XX;X4X>X>X$Xr.o.+ # @ H X X 7 9.rX7.U J K L L K ^ ].0.-X:X=X_.5.V.x.x.n.Z x.C n.~.N j.A A ",
"U.C.&X&X!.%X;XW.%.f [.3X3X*X X-XiX'.7.@ H H X H X # i.cX7.L L T L T K ) ].u.`.r.,.T.).&.%.B.c.x.c.B j n p C j *.",
"|.XX&X|.Y.Z..XB.C.k.W.|.[.;X_.Y.=X].9.X X X H X 6 7 0.fX7.^ K K T J ^ ~ @XfX=Xm m Y.|.I.B.B.b.Z E.s q p s c.c.C.",
").;X).V.|.I.A.c.|.1X2X).V. X'.'.5.'.7.$ X @ @ + 7 9.-X].+.^ K T T K ^ ) iX+Xr.D 2.~.Y.U.5.[.~.n.<.E.Q.V d c.v.U.",
"J.`.V.I.).).%.1.Z.2X5X[.2XhX;X4.#.V.>.$ @ X @ # I @X,X>X7.I U K Y T / 0.u.M F 2.D U.U.2.6._.b.n.V g.%XC.N <.v.k.",
"`.5.V. X|.Z.n $.=.C.<Xk.W.XXD.d $.Y.].' @ @ @ # ~ @X-X@X+.^ K U K I o.;.M p F m f M 5.2.I.|. X|.U.*.!.~.x.p =.Y.",
"-X`.'.;X Xc.*.v.x.v.m.u j j.C j j oX'.i.6 X @ + 7 eX,X].) I K U H @ _ ,.M n U.!.*.t M 2.T.T._.*XdX|.|..Xb.1.Y.2X",
"iX$X`. X|.Q.W.D.j.*.k a %.v.C j.#.Z.'.>.6 6 6 5 t i.$XeX) H / U $ 7 _ &.b.n.U.%X|.1.n B b.#X|.`.|.|._.|.Y._.[. X",
"I.I.-X XC.Z.Q.c.*.v.v.m.N.N.f.v.k._.'.O.* 5 * 5 ; u.R.y.) # # P $ 9.`.@.U.1X!.Z.%Xb.Z n D b.4._._._._.I.|.).|.'.",
"&.I. X Xv.N v.$.v.}.D.C C N.j.S.<.M b v 2 & % 0 : P.T.5.' + X + + O.r.I.b.~.W.B.%.%.A S Z =.4.I.I.'.6.,.I.5._.).",
"5. X|.B.c.*.v.N.C.F.j.s k D.D.D.f . : : - % : > v R.#Xr.t + 6 6 o O r /.U.Z *.Y.c.s *.Q.~.D.I.V._.;X*XI.2.,.2.I.",
"_._.[.<.j.D.k.D.N.*.v.N C l.D.}.=.w w w w c w c R.iXR.8 ; * 2 * 0 > r 3.<.B n Z.C.*.x.D..X3X X4.).$X|.U.Z b.U.#X",
"T.Y.XX[.f.k k.k.=.j j.j j k N.F.K.Z.e.F v s c e./.=Xw.1 * z * & & v ^.P.1.*.n %.k.*.a A E.Q.V.).*X|.P.<.s <.b.b."
};
