/* XPM */
static char *bearded_idle_1_removebg_preview1674926000[] = {
/* columns rows colors chars-per-pixel */
"56 56 256 2 ",
"   c #321413",
".  c #391928",
"X  c #3C1C32",
"o  c #330F27",
"O  c #3F2E2A",
"+  c #761D0C",
"@  c #771A13",
"#  c #7A2515",
"$  c #7A210F",
"%  c #461B29",
"&  c #4D1C2F",
"*  c #4C242C",
"=  c #4A2429",
"-  c #57272D",
";  c #4A3427",
":  c #492535",
">  c #5A2B33",
",  c #582738",
"<  c #583537",
"1  c #563531",
"2  c #662726",
"3  c #7B3524",
"4  c #622837",
"5  c #693430",
"6  c #521415",
"7  c #584D31",
"8  c #66423B",
"9  c #6A5239",
"0  c #704D29",
"q  c #57702B",
"w  c #68772D",
"e  c #636B34",
"r  c #6B6E3B",
"t  c #686D37",
"y  c #736A3C",
"u  c #6B7435",
"i  c #6C743C",
"p  c #697739",
"a  c #75743D",
"s  c #747B3C",
"d  c #7A7B3B",
"f  c #79743A",
"g  c #686B2D",
"h  c #6C531D",
"j  c #5A3342",
"k  c #663D4E",
"l  c #775759",
"z  c #704F4D",
"x  c #776B48",
"c  c #6A7544",
"v  c #757443",
"b  c #7C7544",
"n  c #747B44",
"m  c #7C7B45",
"M  c #7D7C4B",
"N  c #78764A",
"B  c #797953",
"V  c #70674E",
"C  c #7D6662",
"Z  c #5F444B",
"A  c #841D16",
"S  c #95370F",
"D  c #842416",
"F  c #8E3817",
"G  c #9A3B14",
"H  c #943B1C",
"J  c #9B3C1C",
"K  c #963916",
"L  c #932F0C",
"P  c #A73813",
"I  c #852A22",
"U  c #8A3827",
"Y  c #953B23",
"T  c #993A24",
"R  c #A63A25",
"E  c #8A4317",
"W  c #964319",
"Q  c #A4481C",
"!  c #A95519",
"~  c #B25916",
"^  c #B56D15",
"/  c #994525",
"(  c #985629",
")  c #995339",
"_  c #8E4E32",
"`  c #A34424",
"'  c #B85928",
"]  c #A85732",
"[  c #8F6F3A",
"{  c #AD6D35",
"}  c #C67637",
"|  c #C6712F",
" . c #C04E33",
".. c #945947",
"X. c #885D54",
"o. c #886949",
"O. c #837D4C",
"+. c #8A7C4D",
"@. c #857749",
"#. c #947B4C",
"$. c #956D59",
"%. c #857554",
"&. c #847B52",
"*. c #8C7C54",
"=. c #8A7A58",
"-. c #937D55",
";. c #947D5C",
":. c #9A7D5C",
">. c #947857",
",. c #8F694E",
"<. c #A87A59",
"1. c #AC774B",
"2. c #897667",
"3. c #9A7E62",
"4. c #957B65",
"5. c #8C726E",
"6. c #A47E69",
"7. c #825F65",
"8. c #CD784B",
"9. c #76853B",
"0. c #6B8134",
"q. c #7C8344",
"w. c #7C834C",
"e. c #798846",
"r. c #7C8353",
"t. c #7A8656",
"y. c #7E9159",
"u. c #D1812C",
"i. c #838344",
"p. c #83824C",
"a. c #8A834C",
"s. c #848A4D",
"d. c #8C8B4B",
"f. c #898445",
"g. c #92864C",
"h. c #95944C",
"j. c #848453",
"k. c #8C8454",
"l. c #848A53",
"z. c #8D8B53",
"x. c #8C845B",
"c. c #8D8B5B",
"v. c #84895B",
"b. c #928554",
"n. c #938A55",
"m. c #93845B",
"M. c #9A855C",
"N. c #948B5C",
"B. c #9B8B5C",
"V. c #998855",
"C. c #8A9458",
"Z. c #959352",
"A. c #95935C",
"S. c #9C925C",
"D. c #9C9858",
"F. c #86914D",
"G. c #A28D5C",
"H. c #A7885D",
"J. c #A1935D",
"K. c #A3985A",
"L. c #B88D54",
"P. c #A6A55D",
"I. c #8C8862",
"U. c #948362",
"Y. c #9C8463",
"T. c #958C62",
"R. c #9C8B63",
"E. c #9D8C6A",
"W. c #978769",
"Q. c #9C9263",
"!. c #9C936B",
"~. c #979767",
"^. c #97867A",
"/. c #95926E",
"(. c #A28564",
"). c #A28C64",
"_. c #A4856A",
"`. c #A48C6C",
"'. c #AA8D6C",
"]. c #AA8865",
"[. c #B18B6A",
"{. c #A39364",
"}. c #AA9466",
"|. c #A59A63",
" X c #AA9C65",
".X c #A4936B",
"XX c #AB946C",
"oX c #AB9A6C",
"OX c #A39B6C",
"+X c #B39B6D",
"@X c #B1966A",
"#X c #A58D71",
"$X c #AA8D72",
"%X c #A08574",
"&X c #B38E73",
"*X c #A59271",
"=X c #AC9473",
"-X c #AC9B73",
";X c #A99977",
":X c #B29574",
">X c #B39C74",
",X c #B39479",
"<X c #B39B7B",
"1X c #BA9C78",
"2X c #ADA174",
"3X c #B3A373",
"4X c #BCA37C",
"5X c #B8A67A",
"6X c #ABA669",
"7X c #99A855",
"8X c #D88B46",
"9X c #D19053",
"0X c #E7964B",
"qX c #E99857",
"wX c #E6894B",
"eX c #CB976C",
"rX c #CDB373",
"tX c #E4AB65",
"yX c #CFC878",
"uX c #9B8B83",
"iX c #939185",
"pX c #AA9286",
"aX c #B79985",
"sX c #B88F8B",
"dX c #BBA584",
"fX c #BEAB94",
"gX c #C4A78A",
"hX c #C9AC98",
"jX c #D3AB98",
"kX c #CDB39B",
"lX c #C9B295",
"zX c #D2B49C",
"xX c #D9B89D",
"cX c #CAB28C",
"vX c #CCB8A2",
"bX c #D3B6A1",
"nX c #D4B9A3",
"mX c #DABAA5",
"MX c #CBADA2",
"NX c #E1B9A3",
"BX c #C09B8B",
"VX c #D7D78D",
"CX c #DBC1AB",
"ZX c #E6C5AA",
"AX c #EBCCB4",
"SX c #FCD6B5",
"DX c #FED9B6",
"FX c #FDD6BA",
"GX c #FEDBBB",
"HX c #F4D4B7",
"JX c #F0CFB3",
"KX c #FFE3BF",
"LX c #EDD99E",
"PX c #FEDCC1",
"IX c #FFDBC8",
"UX c #FFE2C4",
/* pixels */
"B.z.j.m g e u q.9.w w w d.S.#.m O.s n a v c.p.s x =.Y.$X).`.^.<.:.;.U.R.G.M.k.v m w.k.p.b b r c x.M.).@XXX{.k.p.",
"n.j.w.s u u w w 0.9.9.F.F.s.s i.@.f g t u y @.x.Y.`.(.m.M.m.4.O.*.+.*.k.:.:.&.t u N k.@.@.O.M O.k.E.}.@X).b.p.a ",
"E.T.C.p.9.9.0.w 0.0.0.s.F.C.9.9.f.d w g s r M :.).U.%.@.>.=.m.k.l.p.p.@.#.@.@.r i b N.b.@.@.b O.k.B. X}.M.a.m f ",
"m.T.T.Z.F.F.9.0.d s d q.O.z.m 0.d d u u p r N I.>.Y.;.%.-.>.k.O.N.z.k.N b a O.n n m b.@.b e v z.n.n.M.).B.a.@.d ",
"Y.R.T.N.n.s.e.l.s p s.a.a.@.b i.s [ [ e.0.p m v.I./.I.x.x.*.O.x.`.*XI.w.n q.z.p.w.M &.y y e n w.n.a.V.).'.B.a.f ",
"'.`.Q.R.N.j.n w.e.e.z.p.j.w.x.b.z.z.D.a.g q.a.G.!.|.V.>.o.b.!.!.&X=X!.~.C.w.a.O.l.r.b v v n N n m a.).[.:XXXB.a.",
").{.OX;XOXI.w.j.l.A. XN.k.I..XXXS.A.C.g.g.d.[ H ` ' ' H E 1.,X!.,X$XY.;X!.l.&.j.B v.N.OX2XOXT.w.c =.).:X:X`.{.T.",
"m.m.x.%.%.n n z.M.V.{..XXX-X=X#XA.{.V.d.f.( W P K ^ ! W ~ ! ..S.=X=X>.Y.*.=.I.x.x.c.j.M O.).!.S.v.T.).}._.:.M.`.",
"O.&.N i q t z.J.A.b.R..X*X#X,X,X~.|.B.@.Q W W W ~ ^ ! J ^ ! / .X`.E.R.R.T.;.:._.R.T.j.x.N.R.*X#X#XE._.`._.;.;.3.",
"B.N.j.n t m S. XoX.XR.Y.Y.`.U.;XdX.X~.1.L W Q ' ^ ^ ~ ! ^ Q / oX`.W.U.E.E.R.R.M.(.`.!.OXXX.X.X*XE.E.Y.4.;.Y.).T.",
"{.OXQ.k.j.c.>X4XdX<X*XR.W.!.O.x.'.<.#.( P G ! ' | u.u.| | ` ( T.-.;.B.R.R.B.R.Y._.`..X=XoX.XT.B.4.U.4.4.;.R.Q.Z.",
"M..X.XU.R..XdXgXaX<XdX/.j.O.x.Q.). .Q P W J W ~ wX8X8X8X0X| ) W.U.4..XoXB.b.N.Y.E..X-X}.{.}.B.Q.!.E.`.).N.M.z.n.",
"B.XX;XY.`.#X<X$XdXdX2X/.r.v N.~.1.P P ' qXR 8.1.> < < 2 8XqXeXJ.m.Y..XoX{.M.R.R.n.a.a.b. XrXoXQ.E.N.n.d.Z.S.{.`.",
"=X;X*XE.#X#X#XU.=.=.V M j.l.x.c.#.P L | 8XS ' qX8./ ) qX8XtX9XV.o.-.).oX{.B.}.-X6XD.|.K. XK.}.OX3XJ.h.h.h.D.B.M.",
"'.U.U.W._.#X`.U.c c c M r.j.m.c.=.{ ..1.qXK { qX0X8X1.' 0XqX8X( o.b.oX+X}..X@X1X3X X|.6X XK.J.J.|.K.J.K.|.K.n.g.",
"Y.=.%.W.4.4.U.v.t.c v M M O.m.=.I.b.W.#.' K ' 8.0X8.! H ' } ] K g.J.+X:X>X>X>X+X1X5X2X2XP.V.V.n.V.G.].@X}.b.i.i.",
"c.O.&.m.Y.m.x.k.&.s B t.k.m.x.q.M B B ,.) ` K ` } ` Y G S Y H G H.2X{.+X X<X,X1XaX:XcX4XoXS.n.g.f.g.V.).}.z.i.e.",
"k.p.p.z.).`.R.m.&.w.x.;X.X!.T.k.w.i n b.<.3 U E K W H / W W Y Y $.I.%.+X}._.$X,X-X.X4X4X3X3X{.g.g.+.b.B.B.n.h.d.",
"d.f.f.d.V.G.M.k.k.x.E.aXdX<X*Xc.q.w.x.V . : . j J W K / / S S ` > . : $X'._.,X,X-X>X4X1XXXXXS.g.h.g.V.B.B.{.{.Z.",
"z.d.i.f.f.@.f @.*.B.*X$X#XE.'.m.A.Q.2.5.2.C 5.l & U ` W W Q U % C z X : $.Y.-._.}.>X<X'.m.N.S.S.G.H.G.G.J.V.V.@.",
"O.m m s d f f m N.R.=.*.m.U.W.V 1 z k k k 5.^.5.pX> 6 6 2 , , . l l X & & 7 *.{.@X1X-XI.t.c.A.{.@X@X+X+X>XoXR.k.",
"v r e e u s O.s.N.E.M.b.k.z.T.9 % * - - j z 7.pXGXaX5.C . o o o ,X5.  & o ; OX3XeX5X2X~.t.l.c.A.G.H.oX+XrX>X.X.X",
"v r e e t b +.g.R.*X{.D.A.Z. Xz % , > - , * 8 4.JXKXUXZXX.l l z AXbXX.: % ; B XX<X=XdX2Xc.v.c.~.A.N.}.>X4X:X>XXX",
"b u t i a b #.V.{..X{.P.D.D.3XV 4 z , , - , & z nXAXFXUXZXCXZXZXAXPXPXz , o   $.*XR.4X3XOXT.c.I.C.p.T.oX>X[.:XXX",
"w.c r t 7 7 g Q.|.>X:X~.P.*X5.5.uXMXz 4 , < - k MXkXZXDXSXFXGXDXSXDXHXUX4.% % 7._.].gX<X=X*X;.T.y.c v.E.)..X=X-X",
"c r i m s n q.Q.:X>XeX3X*.- , - j 6.hX6.% - > 4 1 aXAXDXGXPXFXFXGXIXDXDXIXbX$.`.:XaX,X,X:X=X*XR.t.N t./.*X>X>X'.",
"t.t.w.z.s.z.Q.|.<XXXgXx < , , > > j uXuXl , & 4 & sXJXDXHXGXDXGXFXFXDXSXPXIXNX-X=XdX,X,X,X$X=X.XOXT././.!..X=X].",
"v.c.~.6XJ.J.XX.X-X5XaX5 , 4 , , , < j C 5.j , 1 - sXAXDXDXFXGXDXGXUXDXDXFXFXUX>XE.#X*X'.#X#X)..X{.*X*X;X!.R.(.].",
"OX2X3X3X+XXX]._.&X>X:X8 - - > , * 4 , 5 l = : * % sXAXDXGXFXDXGXDXDXSXSXFXKXHXdX#X4.U.E.`.R.=XY.>._.$X<X*Xm.=.c.",
"3X-X3XXX:X&X_.3.&X'.W.Z & , > & : : , % o X X * z BXAXDXDXGXGXSXPXSXGXIXFXKXGXAXdX%.Y._.E.-.M.M.Y.3._.$X'.m.&.&.",
".X`.OX=X:XXX#X=.Y.=.9 1 4 > , * X O : : : j % l ZXFXKXKXFXFXUXDXFXKXHXPXFXSXDXGXzXU.*X#XR.*.@.b.M.;._.=X=X).B.B.",
"*X!.E.E.E.Y.Q.@.&./.2X9X8X9X4 : ; V B 5.5.hXhXjXlXJXDXFXFXPXSXDXGXDXDXPXFXDXDXGXAXgX<X*X`.N.b.*.M.;.=X;X-XoXXX>X",
">XXX{.N.z.z.v p.N.-XeXLXtX0XrXZ.c l.) ..5.^.fXmXbXAXPXFXGXGXFXGXDXDXSXDXGXGXSXDXHXhX=X.XR.Y.M.k.:.Y.`.,X=XXX{.-X",
">X.XB.b.a.m v N. X}.+XVXVX8XrXOXs.d.( / .._ 4.dXMXPXIXFXGXGXFXPXDXPXGXGXSXFXDXPXAXkX=X`.R.M.m.-.:.Y.`..X}.R.M.N.",
"-XB.x.n.a.O.O.N.d.K.K.VXrX9XK.E.oXD.W G E S o.%XzXZXJXFXGXDXDXFXFXGXFXGXFXPXUXJXmXhX4.m.R.`.U.=.*.M.Y.(.M.b.b.z.",
"Q.B.b.J.n.n.B.S.S.G.Z.rXtX9X;.sXXXP.] H W G X.uXbXkXZXPXGXSXGXDXGXGXFXGXGXGXGXxXnXzXm.;.3.3.;.M.b.:.:.Y.B.N.N.S.",
"{.{.S.|.J.}.3X>XK.L.P.9X9X7XQ.4.{.6X) H W G ,.uXnXkXZXFXGXDXDXFXFXDXDXDXDXFXGXxXkXhX=.;.4.-.*.=.Y.:.Y.3.M.a.a.x.",
"M.b.#.J.G.J. XoXD.6XVXqXtXLXN.x.A.7X( K W K ,.^.zXnXlXmXHXPXDXDXGXDXDXDXGXGXHXmXmXhX*.*.R.E.m.&.*.3.(.(.*.@.N y ",
"A.n.a.S.J.J.S.{.D.K.yX9X} ( b.O.B e._ S T G ..uXkXnXbXzXmXAXFXKXPXPXFXDXGXHXCXzXbXlX=.O.@.*.x.p.O.b.(.M.k.O.m y ",
"A.N.g.n.g.n.A.{.B.V.h.yXeX..B B B p [ ( / H X.uXnXkXkXnXkXxXZXCXNXZXmXZXZXmXkXbXkXlXE.N.m.Q.A.p.m @.m.M.+.n m N ",
"{.}..Xm.c.N.J.N.N.N.N.5X3XN.v v O.n b.) W H ,.uXmXkXvXzXzXzXkXvXkXkXzXkXkXbXzXzXkXxXXXOX*X,X:.p.N y o.@.m t v j.",
"G.J.E.m.;.N..XoX{.J.).+XQ.m.&.c.m.W.=X1.L Q ) 6.mXmXkXzXzXbXmXMXzXzXxXvXkXkXnXnXzXaX.X=X;X`..Xj.w.N @.m c i m O.",
"{.G.M.Y.;.3.Y.;X}.{.}.>X>X;XOXT.#X<XaX<.W J H ) gXzXkXCXnXkXkXmXnXvXzXmXnXbXzXkXdX.X=X=X$XY.2XC.l.C.l.m i n q.g.",
"oX}.@X'.Y.=.%.OXXXoX>X>X1X<X;X;.x U.`.[.1./ W W U eXzXgXmXjXjXgXlXlXjXzXjXjXfXaX-X=X;X`.Y.;.U.t.N k.p.O.w.a.N.{.",
"'.XX>X-Xm.@.y A.2X5X4X:X:X=XaX'.m.I.I.(.H.W J J T ( T _ <X$.I U U U I I I _ 3.]._.4.%.U.`.;.%.&.:.c.k.p.O.N y v ",
"_.`.}.R.n.a.[ D.{.oXXX`._._.:X'.M.N.R.(.1./ K J J W F E :X..@ + @ A # $ @ U E.$XM.B B U.=XR.U.3.m.x.r.B v.v r e ",
"`.E.x.k.S.{.OX3XoX{.>X=X=XY.U.U.[.-X;X<.) ` H W / W H 0 ).>._ D # D # # A U _._.-.B B 4._.(.Y.3.(.T.v.r.j.k.p.M ",
"E.R.k.@.n.Q.3XeX}.{.1X<XE.U.x T.:XdX;X].] T / F J J G / H./.%.A D A A # A 3 =.x N B B >.6.(.=.Y.)..XI.l.@.M.R.S.",
"*XN.M M O.#.J.K.C.n.}.}.z.a N T.>X>X'.$X*X0 3 Y Y J G Y (.N.o.A D @ $ D # 0 V V v B c V o.4.3.Y.#X`..XR.N.m.E.}.",
"*Xm.p.p.z.b.n.w.s i @.+.f t v T.oX=X4.H.$X8 3 A W W F @ 2.E.$.A D # D + _ B c M N.E.B y V o.-.`.'..X=X3X-X-X.X.X",
"XX{.N.C.k.j.p.p p p w.w.w.s.@.b.Y.4.U.:XpX7 2 D W W U I >.M.,.$ + D A + _ x.l.m.).XX&Xm.v N M =.`.(.).'.XX'.*X;X",
"B.B.A.N.p.j.c.l.e.w.C.q.s.C.a.N.%XT.b.).aX;X_ + D D D D #.b.,.& * > 4 - V y.~.}.).).}.B.m v v &.k.m.B.).`.E._.W.",
"a.p.a.a.k.N.T.N.p.O.z.s.s.z.a.{.*X=.p.m.I.z 5 2 A D $ D @.Q.7.o X : * , Z 9 h :.).m.g.b b M p.B w.k.N.R.`.`.Y.;.",
"s.i.a.n.B.R.m.b.m b k.z.D.K.a.n.n.O.M N V   . & 2 2 2 # 9 o.@.7 * . % % % %   x m.c.c.b m k.A.T.~.N.N.M.B.XXXXY.",
"q.i.f.n.N.m.O.b.m f m i.Z.P.h.d.i.a c w e O : : , , , 4 - z B.M.8 < j < < < > V @.b.N.&.M M T.oX-X!.M.R..XoX.XR.",
"s.9.i.+.*.O.f O.n u s i.h.D.h.D.d.n i g q q ; % % - , , * o.`.*.m.m.:.#XW.a.@.f @.@.>.&.N c O.G.'.(.M.}.oXQ.b.+."
};
