/* XPM */
static char *bearded_idle_2_removebg_preview_2_1674926000[] = {
/* columns rows colors chars-per-pixel */
"56 56 256 2 ",
"   c #2E1115",
".  c #372B17",
"X  c #370D25",
"o  c #3B1827",
"O  c #3D1933",
"+  c #3F232F",
"@  c #160E03",
"#  c #551A19",
"$  c #50150D",
"%  c #6A1A0B",
"&  c #791B0A",
"*  c #791A15",
"=  c #651C14",
"-  c #532B14",
";  c #772306",
":  c #7A2417",
">  c #793717",
",  c #673018",
"<  c #4A1D2D",
"1  c #451B28",
"2  c #461B33",
"3  c #531B2C",
"4  c #48242B",
"5  c #55262B",
"6  c #52342B",
"7  c #442434",
"8  c #4A2636",
"9  c #552434",
"0  c #5A2A35",
"q  c #5C2A3C",
"w  c #582736",
"e  c #4E3535",
"r  c #563538",
"t  c #622A37",
"y  c #633A39",
"u  c #71362D",
"i  c #791D20",
"p  c #574439",
"a  c #585A29",
"s  c #66463A",
"d  c #78593B",
"f  c #764E32",
"g  c #576926",
"h  c #636C34",
"j  c #6B6D3C",
"k  c #696B38",
"l  c #756C3C",
"z  c #6C743C",
"x  c #6A7538",
"c  c #74733D",
"v  c #757C3B",
"b  c #7A7C3A",
"n  c #76743A",
"m  c #68762C",
"M  c #75401E",
"N  c #552F44",
"B  c #663642",
"V  c #764849",
"C  c #765857",
"Z  c #6C504E",
"A  c #6A6A45",
"S  c #776A47",
"D  c #6D7744",
"F  c #757442",
"G  c #7C7444",
"H  c #747C44",
"J  c #7C7B45",
"K  c #7C7C4B",
"L  c #78774A",
"P  c #7D7B52",
"I  c #786656",
"U  c #725F5B",
"Y  c #861C15",
"T  c #891E0D",
"R  c #862417",
"E  c #8A3919",
"W  c #953D1B",
"Q  c #9B3C1B",
"!  c #993817",
"~  c #8F320C",
"^  c #A33A1B",
"/  c #9B3D21",
"(  c #923822",
")  c #8B3E30",
"_  c #A33D23",
"`  c #8C4118",
"'  c #95411D",
"]  c #9B431B",
"[  c #9C4414",
"{  c #AB5218",
"}  c #B76A15",
"|  c #994524",
" . c #87553A",
".. c #965437",
"X. c #8F4D31",
"o. c #A54724",
"O. c #A75629",
"+. c #AB5734",
"@. c #906538",
"#. c #B96A31",
"$. c #C56E30",
"%. c #C57412",
"&. c #8E5A46",
"*. c #956C4A",
"=. c #837C4C",
"-. c #8A7C4C",
";. c #867847",
":. c #947A4B",
">. c #886958",
",. c #847452",
"<. c #847C52",
"1. c #8C7C53",
"2. c #8D7C5B",
"3. c #867859",
"4. c #937D54",
"5. c #947D5C",
"6. c #9A7D5E",
"7. c #997656",
"8. c #916A50",
"9. c #A97348",
"0. c #B06F49",
"q. c #8F5E62",
"w. c #8A766A",
"e. c #9B7E63",
"r. c #937866",
"t. c #937874",
"y. c #8A706B",
"u. c #A57C6A",
"i. c #B17E69",
"p. c #A35549",
"a. c #CC7A4B",
"s. c #75843B",
"d. c #6B8134",
"f. c #7C8344",
"g. c #7C824C",
"h. c #788648",
"j. c #7C8452",
"k. c #6A8550",
"l. c #D88B3E",
"z. c #E5903E",
"x. c #838344",
"c. c #83834D",
"v. c #8B834C",
"b. c #83894D",
"n. c #8B894A",
"m. c #98884B",
"M. c #858353",
"N. c #8B8354",
"B. c #8D8B53",
"V. c #8C845A",
"C. c #8E8B5B",
"Z. c #838A57",
"A. c #928554",
"S. c #938B55",
"D. c #9A8B54",
"F. c #93835B",
"G. c #9A845D",
"H. c #948B5B",
"J. c #9B8B5C",
"K. c #988355",
"L. c #8A9357",
"P. c #949252",
"I. c #95925B",
"U. c #9B935C",
"Y. c #9D9858",
"T. c #8D914C",
"R. c #A4895B",
"E. c #A2935D",
"W. c #A4965B",
"Q. c #B88859",
"!. c #8B8964",
"~. c #948363",
"^. c #9B8463",
"/. c #948C62",
"(. c #9C8C63",
"). c #9B856A",
"_. c #9D8C6A",
"`. c #948A6C",
"'. c #9B9263",
"]. c #9D936A",
"[. c #959464",
"{. c #938C73",
"}. c #A38466",
"|. c #A28C64",
" X c #A48D6B",
".X c #A88A69",
"XX c #A39364",
"oX c #AB9466",
"OX c #AA9C65",
"+X c #A4946B",
"@X c #AB946C",
"#X c #A2996C",
"$X c #AB9A6C",
"%X c #A49B63",
"&X c #B29C6E",
"*X c #B1956D",
"=X c #A58D71",
"-X c #A98C75",
";X c #B48974",
":X c #A59372",
">X c #AC9573",
",X c #AD9A73",
"<X c #A99978",
"1X c #B29473",
"2X c #B39C74",
"3X c #B39B7B",
"4X c #B89979",
"5X c #B78968",
"6X c #ACA276",
"7X c #B3A274",
"8X c #BBA47B",
"9X c #AFA26B",
"0X c #DA8C48",
"qX c #DB9349",
"wX c #C99457",
"eX c #DA9557",
"rX c #C78349",
"tX c #E68C46",
"yX c #E6954A",
"uX c #E69756",
"iX c #EA9351",
"pX c #EDA150",
"aX c #C5A874",
"sX c #D89A6A",
"dX c #877A8E",
"fX c #988887",
"gX c #A9958A",
"hX c #B89A87",
"jX c #B0928D",
"kX c #BAA485",
"lX c #BAA892",
"zX c #9EB38C",
"xX c #C5A68A",
"cX c #C8A898",
"vX c #CDB299",
"bX c #D5B69D",
"nX c #CFAF8C",
"mX c #D3BCA4",
"MX c #DBBBA2",
"NX c #D5B5A5",
"BX c #D3B8AD",
"VX c #EABDA4",
"CX c #D8AA90",
"ZX c #DBC3A9",
"AX c #CEC3A3",
"SX c #FBDAAD",
"DX c #E9CAB4",
"FX c #FCD5B6",
"GX c #FCDAB6",
"HX c #FDD6BA",
"JX c #FFDABB",
"KX c #F4D3B7",
"LX c #EDCBAD",
"PX c #FCD9C3",
"IX c #EED4C3",
"UX c #FFE2C5",
/* pixels */
"J.B.M.J k h x ;.s.m m d.x.D.-.J =.H j n l H.g.F G N.~.+X|. X).r.e.5.F. XJ.R.v.J K g.M.c.G G j D V./.|.oX@X'.B.c.",
"S.M.g.v m m m m d.s.s.T.L.b.v x.;.v n k c F J 1.).^.^.5.^.K.6.2.-.1.M.4.4.G.<.j x F M.-.;.-.J <.N.(.*X*X|.K.=.n ",
"_./.L.c.s.s.d.m d.d.s.n.b.L.s.v ;.b m h x h G G._.^.7.,.2.K.A.1.b.M.=.-.-.;.;.k x J G.K.-.G G -.N.J.OXoXG.-.J n ",
"F./.[.S.T.T.s.d.v v v J c.T.f.s.x.b x m v x L F.!.^.V.-.&.&.@.!.H.C.x.K G G P G H J 4.=.c k c V.H.S.K.|.G.N.x.b ",
"^.(./.H.L.j.h.b.v v h.c.v.;.;.x.@.d.b @.d.x j.M.G 3.;.@.> R E l }.+XH.j.H v B.c.g.K -.l k h H g.B.v.K.|.oX(.n.b ",
"@X|.'.(.H.b.H g.h.f.T.c.M.K B.K.P.T.Y.v.v x Z.<.4 $ ; ` W | [ ; u.1X_.[.L.j.B.-.j.P L F F H H H J -.|.*X1X@XJ.-.",
"|. X:X,X<XC.j.M.L.I.%XH.V.!.+X=XI.I.Y.n.x.I./.:.= E { } o.{ { ; u.1X^.<X].M.2.<.M.M.C.#X6X#X/.g.L N.|.1X1X+X|.(.",
"K.F.V.,.P F H P.G.K.XX+X#X,X>X-X%X'.S.n.x.P.d , ( { } } E { } * r.1X6.|.1.<.V.!.C.!.M.K -.|.].(.j./.|.@X}.6.6.|.",
"<.<.J z g x B.E.J.S.(.|.>X=X>X<XOX].I.I.Z.M > ! } } %.%.} } } & r.:X^._.^.6.F.}.(./.Z.M.F.(.:X=X-X X X X|.6.5.e.",
"H.H.M.H k H U.$X$X#X(.~.)._.e.<X&X<XI.W.R.R E o.{ | ` X.u #.$.T 8.(.G._. X X(.^.}._.+X,X$X+X+X:X{.).e.r.6.^._.J.",
"XX+X'.M.M.C.7X8XkX3X#X(.(._.,.V.1X:X;.*.9.~ ! ] O.X.y t u 0.l.+.6.F./.'./.(./.G. X X:X:X$X+X(.H.r.^.).r.5.^.I.I.",
"G.+X#X~.(.@XkXxXkX3XkX_.M.<.S.(.'.`./ T ~ [ o.O.yXpX$.o.uXyXz.iX9.:.#X].K.F.H.J._..X@XoXXXoX(.'.]._.|.(.J.H.S.V.",
"(.@X:X_._.=X3X=XxXhX6X`.j.L H.I.(.V.E T o.eXO.{ uX0X0XiXiXtX0XtXO...,X7XoXS.J.(.D.c.n.A.OXaX9X'._.S.m.P.P.Y.|.oX",
",X,X:X_. X=X=X~.3.3.A P M.M.H.V.G.F./ T ^ uXO.O.iXyXiXtXO.o.o.+.] ..oX2X@XR.+X,X%X%X%XW.9XW.%X%X7XE.P.T.P.Y.G.R.",
" X^.~.).=X X X~.D D A g.M.M.V.H.2.(.*.9.Q.uX+.o.eXuXa.O.| W ~ ` ! +.+X,XoXXX*X4X9X9X%X%X%XW.E.E.OXE.W.W.W.Y.S.S.",
"^.3.,.).r.r.~.V.j.z D g.c.=.F.<.P r.4._.&X#.O.o.$.#.O.E ! / / ] ~ 9.9X8X7X$X2X3X8X8X6X9XOXD.m.A.D.J..X*XoXA.x.s.",
"V.<.<.F.^.5.2.N.K H H Z.!.V.M.h.c.P 3.~.-XX.' u u R Q _ Q ] _ _ > f 8.r. X&X1X2X4X4XxXaXoXE.S.B.n.n.J.R.XXB.f.f.",
"B.x.x.S.R.XX_./.=.<.!.].+XXX_.3.c A I I U fXZ O 5 > ` ( E > E W 0 2   X Z }.r.3X4XoX8XkX2X2XW.m.m.;.A.J.(.P.P.T.",
"T.n.n.n.J.J.K.1.N.F.).kX8X1X1XV 4 9 N w q t.y.{.dXr + O 2 1 + . 1 O 7 7 2 1 o y.,X6XkX6X3X+XR.m.m.;.D.J.R.%XE.S.",
"B.v.x.x.n.;.n ;.<.^.=X X:X^.y w 0 t w t w 6 C t.y.lXq.X 2 2 1 8 4 N y.w 2 1 o 4 . 6 3X<X/./.E.W.W.R.R.E.J.J.K.=.",
"=.J v b b n n J C.F.1.5.r.).jXV 1 5 9 q q 5 r C t.ZXLXxXjXZ X O   C cX1 X 8 8 o X 4 e . . . <.%X*XoX&X&X7X$X(.K.",
"F A h h z b J b.H.].+XZ p C lXjXq.t N w 9 q 3 q C nXKXPXJX3XC y.I jXIXt.t.C X 2 8 o X o     L '.R.E.*X&XaX2X+X+X",
"F j h h k b v.A.J.G.>.y 3 5 V jXhXo < 0 9 9 0 9 1 hXDXDXPXHXKXDXLXKXGXUXPXMXC 8 o 7 2 8 +   p <.[.H.XX4XaX1X@X@X",
"J j x z l ;.:.K.oXu.4 N 9 t 4 Z U r 4 < 0 5 0 0 N u.nXbXFXGXPXJXPXPXJXFXFXSXDXV 8 2 o o + N   e [.b.H.@X4X*X1X*X",
"g.j j j a a a +X3X7.9 t 5 8 5 9 r w.e < w 0 5 8 w < q.NXKXJXJXJXJXJXJXJXJXJXFXLX{.4 9 8 4 O # p j.h.!.`.(.@X,X,X",
"D j j K c c =.9Xd t q 3 9 0 N X N fX6 o 2 9 w w q 3 0 s cXLXJXJXJXJXJXJXJXJXJXFXVXxXwX0X9.@ P R.j.D j.`.#X2X1X@X",
"k.j.g.L.b.B.U.#XC 5 N 0.a.0.a.&.+ N 2 O + 5 t 9 w w 9 0 cXDXGXGXJXJXJXHXHXJXJXJXHXKXCXpXrX@.=X:X]./.!.[.].@X@X.X",
"C.[.[.%XY.XX$X6XZ 1 8 #.pXiXpXX.5 C 0 < 4 4 0 q 0 q w y cXDXJXJXFXHXJXJXFXJXJXJXFXPXZXsXl.l.oX X$X#X<X<X].J..X}.",
"#X6X7X$X&X1X}.-X7.B w a.iX0XiX8.h !.4 X O 7 1 O 1 < 1 5 cXDXJXJXJXJXJXJXJXJXJXGXPXHXAXaXwXl.Q.).4.}.=X3X:XF.V.F.",
"2X7X7X1X1X1X}.e.1Xu.V *.rXeXl.wXR.*.V B N r B Z Z V V >.xXDXJXGXJXJXJXJXJXJXJXJXJXFXbX<X}.wXQ.!.6.e..X-X=XK.=.=.",
":X#X+X+X1X@X X5.~.=X@XB ..pXtXiXiXyXpXQ.y.>.cXBXvXBXNXbXbXLXGXPXJXFXHXJXJXHXJXJXSXGXbXxX/.<.-.:.G.6. X1X,XXXJ.(.",
":X+X_.:X^.^.+XJ 1.D.4X4XwXqXeXyXeXqXiX$. .t.y.{.w.cXNXbXGXGXGXPXJXJXJXJXJXJXJXJXJXIXbXhXE.'.:.M.G.5.=X,X+X@X@X2X",
"2X@XXXF.C.B.F M.S.@XkXaXeXtXtXqXtXiX+.] ^ | | ..t.fXgXbXPXHXGXJXJXJXJXJXFXHXJXJXJXHXMX3XJ.J.F.V.6.^. X>X3XoX#X,X",
"2X+XH.S.x.J F H.oX2X2X$X&XwXqXz.eXwXO.Q W ' ! X.p.I gXZXHXGXJXKXJXFXJXJXJXJXJXJXGXKXbX<X(.(.A.2.5.^. X@X+X^.K.H.",
"$XJ.A.H.v.;.=.H.P.Y.E.oX$X:XQ.rX4XoX| ! ' / Q ' ! ,.gXbXZXFXJXPXJXHXJXJXJXJXJXFXJXHXMXhX^.(.6.5.1.G.^.^.G.K.A.B.",
"XXJ.A.U.J.S.U.J.P.P.Y.R.R.~.`.<X-X]...Q | Q Q Q ' 8.gXAXvXZXGXFXJXFXJXJXHXJXJXJXJXKXMX3Xr.~.F.F.K.5.6.G.J.S.H.'.",
"|.XXR.OXXXoX7X7XoXXX+XoXU.B.N.).)./.| ! | W W Q Q q.gXBXmXvXMXGXHXJXJXJXHXJXHXFXHXKXbX,X2.2.1.-.F.^.e.}.G.M.-.M.",
"H.A.v.U.J.E.OXOXD.oX8X,XI.b.-.e./.<.X.W W W ' Q Q >.fXNXNXvXZXHXJXJXHXHXJXJXKXLXvXbXxX:X^.(.V.1.1.^.}.}.1.=.G l ",
"I.S.v.D.E.Y.XXXXY.D.J.K.'.].V.<.c.H @.f W ] ' / ' 8.`.-XvXmXbXNXMXMXbXMXMXMXMXvXmXvX2XA.;.V.N.M.=.4.}.G.A.=.L G ",
"I.H.S.D.m.S.H.'.|.D.S.B.J.R.,.h.x k.k.n Q ! / ` Q ..X.&.fXcXbXmXNXvXbXvXvXvXNXvXNXvX2XD.V.'.C.v.K ;.K.G.=.H H G ",
"XXXX+XF.V.H.E.H.S.S.U.+X'.V.G G J ,.j.@.E ^ / W ' ! ! | , e.lXzXNXmXZXMXmXVXNXMXvX$X,XoX>X=X/.g.L G *.;.L j F N.",
"E.R._.F.F.F.#X$XXXXX@X,X+XF.=.M.V.=XgXR...Q ! | W ! o.E - d ~.A u.;X;X;Xi.;X;Xu.6.|.|.@X3X=X'.N.H J G F D z H =.",
"oXR.J.G.6.~.^.,XOX|.@X1X,X$X#X/. X3X3XhXE.| Q Q ] Q ' ' > @.G @ % * & * * Y Y $ M 1X.X,X X_.:XI.Z.L.b.J z H f.B.",
"$X@X*X=X~.7.,.$XOX&X*X4X4XhX<X5.,.5.}.<X+XQ Q Q Q Q ' ' ~ :.c.$ : : * R : : % # d hX>X X~.5.~.V.L N.M.=.g.v.K.XX",
".X1X2X$XK.G l I.$X7X8X4X1X1X4X^.3.V.(._.^./ Q ~ Q Q W W ! @.k   % R R Y : : $ 8.u.e.<.r. X~.3.=.5.F.M.P =.G l G ",
"_.|.+X(.H.v.;.Y.%X$X@X.X}.-X1X-X(.K.H.).6.E / | W ] W | W @.j.Z , = Y : : : $ u.=XG P V.:X X2.~.F.V.M.j.Z.F j h ",
"_.(.F.N.U.XXOX7XXXoX&X1X=X^.F.~.XX1X].,X5.= % ( ' W W / R @.C.M.- = : : : R % >.!.P 3.!..X}.e.).|.H.!.j.M.M.=.K ",
"_.(.V.;.K.E.&X2X&X@X4X1X@X1.,.!.@XxX<X9X9Xs > R | ! [ _ & &.j.k., & R & & : u S L L S 2.}.6.^.r.|.].!.M.=.G.'.(.",
">X~.K K -.v.R.W.B.H.oXoXM.c L /.2X2X|.-X3XnX&.T E / ( E Y p./.!.M ; : : & , j j F P A A 8.5.6.^. X X].(.H.F.|.+X",
" XH.g.c.v.S.B.c.s.x =.-.n j F [.,X.X^.}.=XhXX.T : T ; : & &.=X:XX.Y R : % , j P /.].P A d ,.5._. X+X,X3X,X$X@X#X",
"@X'.I.I.N.M.M.z x x c.f.c.n.J A._.r.F..XkXkX&.i i Y R i : X.}.;Xr o < 4 < 6 !.`.(.$X.XK.L L ,.5..X|.|.@X+X>X:X<X",
"J.J.I.H.c.M.L.Z.h.j.L.h.b.L.v.H.=X5.6.|.3XhXV # 5 : R R *  .|./.e 2 8 8 2 V ].E.|.|.+XJ.J F F ,.N.F.G.|..X}.^.).",
"v.c.n.v.V.H.(.H.g.K B.M.B.B.v.%X+X1.F.V./.gXp o + 1 # = # d +XF.>.y 1 q t t d 7.@X4.A.;.J c.K K c.M.H.|. X X).5.",
"v.x.v.A.J.J.K.V.J c B.B.I.Y.v.m.c.h.K j.K j.A r o 2 8 7 4 r C 7.<X>.p 7 < < 1 >.4.A.V.J L Z.C.[.[./.H.K.(.oX=X^.",
"h.f.n.A.H.V.=.N.@.h.x.x.P.%XT.n.x.h.h h g g L I 6 8 2 w 0 < 6 3.*.G.6.s r e 6 A -.V.K.=.K K J.$X,X].J.(.+X$XoXJ.",
"b.s.x.-.N.;.c v.s.x v x.T.Y.Y.Y.m.n L h g g v H.hXr O 4 7 o r A.A.5.6.|.).4.v.c J 1.1.<.K A -.R.@X^.G.oX$X'.F.-."
};
