/* XPM */
static char *bearded_idle_3_removebg_preview_3_1674926000[] = {
/* columns rows colors chars-per-pixel */
"56 56 256 2 ",
"   c #2C1712",
".  c #32261A",
"X  c #381727",
"o  c #381A2C",
"O  c #271B19",
"+  c #4B1413",
"@  c #77150C",
"#  c #781C14",
"$  c #6F1006",
"%  c #512715",
"&  c #7B2308",
"*  c #7C2314",
"=  c #7A2618",
"-  c #742E1C",
";  c #471B2B",
":  c #531D2A",
">  c #461D32",
",  c #521E34",
"<  c #472429",
"1  c #54252C",
"2  c #582A27",
"3  c #4A2535",
"4  c #542633",
"5  c #5B2A34",
"6  c #582837",
"7  c #5B3538",
"8  c #48382C",
"9  c #662926",
"0  c #612B34",
"q  c #683839",
"w  c #76342A",
"e  c #564738",
"r  c #544F2B",
"t  c #714F35",
"y  c #596D2E",
"u  c #6B6D3A",
"i  c #666B35",
"p  c #746A3C",
"a  c #6B743C",
"s  c #6A7538",
"d  c #74743D",
"f  c #747C3C",
"g  c #7A7C3A",
"h  c #757638",
"j  c #69782C",
"k  c #4C5F1F",
"l  c #583448",
"z  c #663B48",
"x  c #581B41",
"c  c #5A4843",
"v  c #6A5945",
"b  c #79584B",
"n  c #6F5052",
"m  c #6A6C45",
"M  c #766B46",
"N  c #6C7545",
"B  c #757443",
"V  c #7B7444",
"C  c #747B44",
"Z  c #7C7B45",
"A  c #7C754B",
"S  c #7C7C4A",
"D  c #74784A",
"F  c #7A7951",
"G  c #7A6A57",
"H  c #7C5E67",
"J  c #7C6765",
"K  c #851C14",
"L  c #841A0D",
"P  c #832617",
"I  c #8D3918",
"U  c #953C1A",
"Y  c #9C3D1B",
"T  c #973817",
"R  c #8B320A",
"E  c #A43E1C",
"W  c #883A24",
"Q  c #9B3C22",
"!  c #953C24",
"~  c #892B2B",
"^  c #A43E24",
"/  c #97421A",
"(  c #954313",
")  c #A3451B",
"_  c #A75715",
"`  c #B25712",
"'  c #B76D12",
"]  c #8C4727",
"[  c #964624",
"{  c #915333",
"}  c #A34324",
"|  c #AB5626",
" . c #AC5531",
".. c #8D6A37",
"X. c #B66533",
"o. c #AD6530",
"O. c #CA783A",
"+. c #C6702D",
"@. c #C16B18",
"#. c #8C5747",
"$. c #886848",
"%. c #986649",
"&. c #827C45",
"*. c #837C4C",
"=. c #8A7C4D",
"-. c #86754A",
";. c #927A4D",
":. c #886558",
">. c #847453",
",. c #857C52",
"<. c #8C7C54",
"1. c #8C7C5B",
"2. c #897758",
"3. c #927C54",
"4. c #947C5C",
"5. c #9A7E5D",
"6. c #967658",
"7. c #97625E",
"8. c #A4744A",
"9. c #B27051",
"0. c #887865",
"q. c #9B7E61",
"w. c #967C64",
"e. c #8C7576",
"r. c #8F6F6C",
"t. c #A27E62",
"y. c #AD5643",
"u. c #DE794D",
"i. c #76843B",
"p. c #6B8134",
"a. c #7D8244",
"s. c #7C824C",
"d. c #788746",
"f. c #7C8353",
"g. c #788454",
"h. c #7E9159",
"j. c #85803E",
"k. c #838345",
"l. c #83824D",
"z. c #8B834C",
"x. c #8C8A4C",
"c. c #85884B",
"v. c #93864C",
"b. c #848453",
"n. c #8B8354",
"m. c #848B53",
"M. c #8C8B53",
"N. c #8C845A",
"B. c #8D8B5B",
"V. c #84875A",
"C. c #928554",
"Z. c #938A55",
"A. c #9A8B55",
"S. c #94845B",
"D. c #9B845C",
"F. c #948B5C",
"G. c #9B8C5C",
"H. c #9A8555",
"J. c #8A9457",
"K. c #949253",
"L. c #94915B",
"P. c #9B925C",
"I. c #9C9858",
"U. c #8D914C",
"Y. c #A28C5B",
"T. c #A68559",
"R. c #A2935D",
"E. c #A4955A",
"W. c #BD8A5B",
"Q. c #8C8861",
"!. c #958462",
"~. c #9C8463",
"^. c #948B62",
"/. c #9C8C63",
"(. c #9D8C6A",
"). c #99876A",
"_. c #959363",
"`. c #9C9263",
"'. c #9C936B",
"]. c #979767",
"[. c #9A8875",
"{. c #94976C",
"}. c #A38464",
"|. c #A28C64",
" X c #A3856A",
".X c #A48D6B",
"XX c #AB8C6C",
"oX c #AB8868",
"OX c #B5856D",
"+X c #A39364",
"@X c #AA9465",
"#X c #A49B64",
"$X c #AA9B65",
"%X c #A4946B",
"&X c #AB946C",
"*X c #A4996C",
"=X c #AC9A6C",
"-X c #B3976D",
";X c #A58D71",
":X c #AA8E72",
">X c #AA8975",
",X c #B38972",
"<X c #A59372",
"1X c #AC9473",
"2X c #AC9A73",
"3X c #A99977",
"4X c #B39573",
"5X c #B39C73",
"6X c #B49B7B",
"7X c #B79879",
"8X c #ABA176",
"9X c #B2A273",
"0X c #BAA47A",
"qX c #AFA16B",
"wX c #A5A25F",
"eX c #D78A46",
"rX c #DA8756",
"tX c #D9945A",
"yX c #CD8E4F",
"uX c #E5964A",
"iX c #E69755",
"pX c #E7914B",
"aX c #C7956F",
"sX c #C5A47D",
"dX c #E4A33F",
"fX c #AB9587",
"gX c #B99787",
"hX c #AB9288",
"jX c #BAA383",
"kX c #BCA797",
"lX c #C79C88",
"zX c #C5A688",
"xX c #CBAD96",
"cX c #CCB39C",
"vX c #CBB499",
"bX c #D2B59D",
"nX c #D5B59A",
"mX c #D2AA8B",
"MX c #E1AE8A",
"NX c #CEB6A3",
"BX c #D4B9A3",
"VX c #D7B9A4",
"CX c #E6BEA9",
"ZX c #DAC3A9",
"AX c #EBCDB4",
"SX c #FBD5B4",
"DX c #FED9B6",
"FX c #FDD6BB",
"GX c #FFDABB",
"HX c #F4D5B7",
"JX c #F3CEAD",
"KX c #FFE4BF",
"LX c #FFDDC1",
"PX c #FFDFC8",
"IX c #F5CDC5",
"UX c #FFE2C4",
/* pixels */
"G.M.m.V i i s g i.j j j c.A.=.Z &.&.C p V M.b.B F 2.~.1X|.(.~.5.5.5.S.(.T.D.n.B C S M.*.V V u N N.S.Y.@X-X`.n.z.",
"Z.b.s.d j s j j p.i.i.U.J.c.f &.&.d s a u a Z C.C.(.~.5.H.w.w.6.<.,.,.C.4.D.n.i a Z n.*.-.*.A l.n.`.=X-X|.S.l.d ",
"(._.B.l.i.i.p.j p.p.i.c.h.J.i.i...h j i s u Z 3.XXw.0.-.3.<.F.l.x.s.*.*.;.-.-.u s V F.C.=.&.V =.M.G.&XoXD.=.Z h ",
"S.^._.K.U.c.i.i.g f f Z k.x.Z i.k.i.s h a s S N.;.!.S.-.<.4.1.,.F.B.b.Z d V l.B C V C.-.p i d N.F.C.A.|.D.C.k.h ",
"~.^._.Z.U.m.d.m.f s c.c.n.-.V k.i.f h g g a S F.J.{.B.n.S.Q.2.1..X.XQ.s.C C m.l.s.f.=.p i i C s.M.v.H.|..XG.z.g ",
"XX+X/./.F.f.C s.d.d.M.l.b.S M.Z.x.K.K.v.h Z c.E.<X@XD.;...n.]._.4X:X'.].J.s.M.=.f.*.&.B C D d.N A ,.Y.&X5X&XG.=.",
"|.%X3X1X3XB.s.b.J.L.#XF.n.Q.<XXXP.P.K.c.k.K.t % P ` | I & o.4X3XgXXX~.8X'.m.,.,.m.m.B.'.3X*XJ.b.B N.+X4X4XXX|./.",
"4.S.N.2.A D C M.D.H.+X*X&X3X1X;X%X`.L.x.&.A.] - U ' _ U ' ` ..A.1X<X6.}.<.2.Q.N.N.Q.,.,.=.|.%X^.V.^.|.XX X5.S.|.",
"*.,.D s k a Z.E.K.Z.`..X<X;X1X6XqX@XB.].Y.t W Y ` @._ ! ' ` [ +X%X(.~.(.!.4.5.}./.^.b.b.S./.<X;X[.(..X.X}.5.4.~.",
"G.F.z.D a C P.=X=X%X(.!.~.(.!.3X2X_.{.x.o.R / ' ' ' ` _ ' ` [ &X.X(.^.(.(././.D. X(.%X3X=X%X%X<X(.(.q.w.5.~.(.G.",
"%X%X`.b.b.B.5X0XjX6X<X/.).'.*.N.6X<X_...R ( ) ' O.+.+.O.+.) ] +X4.2.D./.G.G./.}..X.X%X1X=X+XG.^.1.).w.w.w.^.`.L.",
"S.%X%X^./.<XjXzXjX6XjX(.b.,.S.`.(.|.F.8.T Y } } rXeXeXpXdX+.{ (.w.!.%X*XG.C.S.^. X+X2X&X+X+X`.`.(.(.`. XF.C.Z.C.",
"Y.1X3X~.(.:X6X;XzXjX3X{.F A F._.6.& U X.iXI 9.yX5 7 q 9 pXiXyXT.!.!.%X5XR.D.G./.Z.c.=.v.qXsXqX`.%XG.v.K.K.I.|.%X",
"1X2X<X(..X;X;X!.>.0.B s.b.m.B.F.;.L R X.eXT +.pXu./ { tXeXuXyXC.$.-.|.=X+XG.%X2XwX#X#X#XE.$XE.=X=X+XI.U.K.A.G.T.",
".X!.!.). X;X;X!.D N N D f.b.B.^.;.& T  .iXY +.tXuXeXO.X.uXiXeX] -.C.=X9X&X&X&X6XqXqX#X#XwXE.R.+X$XR.E.E.E.E.K.Z.",
"~.2.>.).w.w.Q.N.g.N N s.*.*.N.1.&.{ #. .X.Q _ O.iXO.) E X.X.| U v.R.=X=X5X5X5X5X0X0X9X9XE.A.A.v.A.G.@XXX@XZ.k.i.",
"N.*.,.S.~.4.3.N.S B F V.m.l.n.,.*.g.g.$.I E T ) O./ I } T T U T T.5X`.5X5X-X1XgX0X5XjX0X+X+XZ.z.j.v.A.|.+Xx.a.k.",
"n.k.l.Z./.+X(.S.*.,.V.<X3X<X].b.*.a Z ..w W I [ Y [ [ U / U ! T ;.F *.3XXXoX,X6X&X%X0XjX0X9XP.K.v.&.C.G.+XZ.K.U.",
"x.c.k.v.G.Y.C.<.,.M./.6XlXgX(.J.d.A <.b ; o > > Y ) [ U U U / ) .   . 3XXXt.,X4X2X6XjX0X4X@XA.K.E.z.H.G.G.R.R.K.",
"U.c.k.k.x.&.V &.3.^.%XXX>X X%X_.0.2 7 n e.J 0.H : = ) } Q ) W ; J n o < >.}.C.D.&X9XjX(.3.G.A.E.E.T.Y.R.Y.G.H.-.",
"=.C V i.f h d s.F.S.<.<.<.^.;Xb 7 5 , l c t.e.Q.hXq + % 2 : 1   G J H X O e N.=X-X5X2X^.f.B.`.`.@X-X-X5X0X$XG.n.",
"B p i i s f k.c._.(.!.S.M.'.v 0 : 5 6 3 x n J hXIXgXr.H X l r.r.jXzXxXe.8 O e '.sXsX0X'.f.g.Q.^.T.Y.$X5X0X5X=X%X",
"B u y i i ..z.C.F.%X5XA p v + 1 0 5 2 1 6 1 q [.FXPXUXAX7.lXAXAXLXUXHXHXhXn v G 4.1XjX2X_.f.B._.L.G.&X5XsX5X&X&X",
"V s i N d -.;.3.+X%XT.r < q n 5 < 5 0 6 4 6 1 z lXVXHXHXUXPXLXSXFXFXUXGXHXLXAXe r Q.gX9X*X_.B.B.J.f.G.=X7XXX4X-X",
"s.a d u r r i `.@X;Xv 0.hXxXBXJ 6 4 6 5 1 5 5 4 4 ,XJXFXDXFXFXSXGXDXFXGXGXFXHXJX[.  hXsX1X<X^.S.h.N Q.)..X&X&X3X",
"N a a C f C Z `.zX5.4 5 2 3 e.e.H 5 , 4 6 6 1 0 6 gXVXnXSXLXGXDXGXFXDXGXGXFXGXGX[.  3X3X4X;X(..Xh.N F {.<X2X4X&X",
"g.g.s.M.c.M.].qX#.z 6 0 4 3 l H 0.1 6 7 6 4 6 x 4 gXVXBXHXGXLXDXFXGXGXGXSXFXGXUXcXG e 0.7X1X1X:X*X^.{.{.'.&X&XoX",
"V.{.].wX#XP.*X=Xb ; 1 , 6 2 ; q c < < 3 < 6 5 5 6 gXNXVXHXFXFXDXDXGXGXGXGXFXGXFXAXfX  v 4X:X:X.X.X%X<X3X'.(.|.}.",
"*X8X9XqX5X&X}.;X7.v 4 6 5 1 9 , , > ; ; > 3 4 1 ; gXVXbXKXKXFXDXFXGXGXGXLXGXGXFXHXxXc G 1X/.|.|.6. X:X6X<XS.<.N.",
"2X9X2X&X5X,X X~.fXt.: 6 5 6 ; q W n 4 o > o > l b gXVXbXSXSXFXDXDXGXGXGXFXGXFXLXJXxX[.'.|.<.S.F.~.q. X:X.XS.,.b.",
"%X%X<X1X4X&X.X2.D.6.2 6 4 6 1 9.dXtXq ; , l ; n VXNXNXVXSXGXLXSXFXGXGXGXGXGXFXGXJXcX<X.X^.<.,.=.~.4. X1X1X+XD.G.",
"%X<X<X(.~.D.%X*.1.t.7Xt > q yXpXpXuXrXW.0.kXxXxXVXxXbXVXDXGXFXGXDXGXGXGXFXFXGXFXAXvX7X&X+X(.3.;.~.3.1X2X1X&X&X9X",
"5X&X+XF.Z.M.B b.B.=XsX5X$.% 9 9.uXpXuXtXtXiXMXVXVXNXNXbXFXGXGXFXSXGXFXGXGXGXSXKXAXxX7X.XG.~.^.3.4.~..X1X4X&X%X2X",
"6X+XF.Z.l.Z B F.@X=X5X5X:Xr.%.5.aXtXuXpXrX| X.t.NXNXbXVXFXGXGXGXLXGXGXGXGXGXGXZXZXmX>X(.H.).^.;.5.~.%X:X+X/.C.F.",
"=X/.C.F.z.*.*.L.E.I.R.#X=X6X;X(..XyXrXuXuX+.(  .nXbXxXnXFXFXGXGXSXDXDXDXSXGXPXnXmXsX}.~.T.).!.3.<.5.~.~.D.H.C.M.",
"`.G.C.G.A.A.G.G.v.U.P.P.A.G.~.:X<X(.tXuXeXiXX.y.BXbXNXbXAXSXGXGXUXGXDXDXSXGXLXVXxXsXq.4.D.!.S.4.C.5.5.D./.Z.F.`.",
"+X+XY.$XR.$X9X5XwXY.=X@XG.v.<.w.(.Q.yXtXeXpX .{ ZXNXVXNXbXAXDXFXFXFXSXDXGXUXHXZXzXaX2.1.D.1.2.<.~.5.q.~.S.z.=.N.",
"S.C.z.Y.G.Y.=X$XE.E.sX-XF.M.,.[.~.*.yXiXeXE I o.bXbXNXNXbXxXCXLXGXLXGXGXFXHXnXbXmXW.-.1.}.^.C.<.<.S. X}.<.*.V p ",
"P.Z.z.A.R.R.+XR.@XH.Y.S./.].n.,.<.s.| ) | Q U U { lXCXVXcXcXbXVXnXCXBXVXVXNXbXbXsXyX*.-.-.B.=.,.*.S.}.D.C.*.Z d ",
"L.L.Z.Z.v.Z.L.].P.x.U.S.^./.&.S C N ] T I Q ! E U  .,XnXbXcXbXcXvXbXvXvXVXNXbXzX-XyX`.!.4.].Z.m.&.-.C.D.*.D C V ",
"+X+X%X!.B.F.P.F.F.Z.`.+X`.N.V V S S ] ^ I U [ Q Q I } aXNXCXZXZXVXZXbXZXMXsXsXT.H.T.&X*X<XXX}.=.Z M -.-.V i C ,.",
"Y.R./.S.4.S.%X=X+XY.&X2X%XS.,.b.S.%X[ Y ) / I } / U ! W OXt.>XoXOX,XOX,Xu.9.T.=...Z.'.2X3X3X'.g.D A &.V a N D z.",
"+XY.~.D.w.D.~.6X*X+XXX-X2X2X%X^. X2X{ [ T E / Y / U Y Q = P @ K # # # # $ - ,.V.L.&X1X1X X X*X_.m.J.z.S a d.Z C.",
"=X&X&XXX~.<.-.%X$X-X5X7X6XgX3XS.>.Q..X9.T Y / I Y Y U [ mX%.@ K P P # K @ = q.(.2X2X<X:X}.4.S.m.A m.b.*.s.z.C.+X",
"XX1X5X5XS.V p L.=X9X0X7X,X4X6X~.N.F (.%.Y / T [ Y U T [ 5X%.@ P # * * * $ # t.;X.X1.1.^.[.!.,.,.4.S.b.S ,.V d V ",
" X|.%XG.Z.z.&.E.#X=X=X.X}.XX1X1X(.~.(.%.T } T Y ! / ^ Q 4X#.# K K P * = $ = >X3X~.F F 0..X(.3.D.S.N.b.g.m.B u i ",
".X(.S.n.P.+X#X9X+X@X-X4XXX~.!.!..X4X2X%.L U } Y [ U U U 4X6.t = = * * = @ =  X).6.>.F ~.:X}.~.t.(.F.Q.f.b.,.=.D ",
"(.(.M.A Z.+X9XaX=X&X7X7X.X<.>.Q.&XsX6Xt.! / U U Y Y / [ T.[.>.K # = K P $ # 4.F D F N 6.}.q.!.w.}.'._.b.&.!.`.P.",
".XF.s.C =.;.R.R.m.F.@X@Xn.d A ^.9X1X.X&XOX] Q T Q ^ T [ }.^.%.K P # * = # - M m B F m m >.w.q.~..X.X'.(.Z.S./.+X",
";XS.s.z.M.C.M.k.f f *.=.d u B ^.*XXXq.).OX& L = ( / R # 0.).6.# P = * # { F m F ^.'.F p M $.4.(..X<X1X9X2X2X1X%X",
"&X+XL.B.M.b.b.a s s s.s.k.m.Z C._.D.t.3X4X= @ ~ ( ( I ~ 6.G.%.* K * P @ ..m.f._./.&X&XS.M B A 4.XX}. X&X:X%X<X3X",
"G.G.L.F.b.b.B.m.d.s.J.a.c.J.z.G.<X1.6.XXjXoX{ # P = * K ;.C.$.: 1 4 9 9 v Q.+X`.|.oX&XG.*.B B F n.C.G.|.|. X(.~.",
"z.=.c.z.n.F./.F.*.S M.m.m.U.c.E.).S.n.B.w.G q % K P K P &./.G o o 3 3 5 7 t ] ;.|.S.C.&.V A S ,.l.b.F.+X.X.X~.4.",
"c.k.z.C.G.G.C.N.&.V n.M.P.E.z.A.S.&.d d.m X ; ; 9 9 9 = t $.>.e 3 ; ; < X + + $.4.N.n.Z Z b._._.].^.S.S.|.&X%X~.",
"d.a.v.Z.F.S.*.C.Z d &.k.K.wXU.x.l.Z a i i 8 > > 4 6 4 6 3 b T.D.c 6 6 l 6 2 % v =.C.S.,.s.*.`.*X2X'.D.G.%X=X%X~.",
"a.a.k.&.n.A d =.i.s g k.U.I.I.I.J.g B u k y 8 > > , 6 6 1 :./.=.v.D.D..X/.;.k.h Z -.;.,.D N =.D.XX~.D.%X=X+XZ.=."
};
