/* XPM */
static char *bearded_idle_4_removebg_preview1674926001[] = {
/* columns rows colors chars-per-pixel */
"56 56 254 2 ",
"   c #321119",
".  c #38182A",
"X  c #3D1730",
"o  c #3A2127",
"O  c #392033",
"+  c #2B100F",
"@  c #4F1614",
"#  c #771C0A",
"$  c #791D18",
"%  c #6C1409",
"&  c #582815",
"*  c #7B2416",
"=  c #752916",
"-  c #461C29",
";  c #541D29",
":  c #481937",
">  c #5C1B3D",
",  c #48252A",
"<  c #57272A",
"1  c #482435",
"2  c #552433",
"3  c #5C2533",
"4  c #542934",
"5  c #592939",
"6  c #583538",
"7  c #53392A",
"8  c #662925",
"9  c #653737",
"0  c #6C312E",
"q  c #4A4F1F",
"w  c #5A5330",
"e  c #6D493A",
"r  c #5A6C2C",
"t  c #69772C",
"y  c #636C34",
"u  c #6B6D3B",
"i  c #686B36",
"p  c #736B3A",
"a  c #697439",
"s  c #73743C",
"d  c #747C3B",
"f  c #7A7C3B",
"g  c #787439",
"h  c #5A3545",
"j  c #6E3C43",
"k  c #684646",
"l  c #765846",
"z  c #795859",
"x  c #6F4F4E",
"c  c #6C6B45",
"v  c #766A45",
"b  c #6C7544",
"n  c #757443",
"m  c #7B7444",
"M  c #747B44",
"N  c #7C7B45",
"B  c #7C7C4B",
"V  c #78764A",
"C  c #7B7C52",
"Z  c #7C665C",
"A  c #7C6666",
"S  c #5F4143",
"D  c #8D1B10",
"F  c #842517",
"G  c #8B391A",
"H  c #933B15",
"J  c #9B3C1C",
"K  c #963919",
"L  c #932F13",
"P  c #A13718",
"I  c #A2290C",
"U  c #893629",
"Y  c #993B24",
"T  c #872C24",
"R  c #A71D16",
"E  c #94411C",
"W  c #9A441B",
"Q  c #984614",
"!  c #934212",
"~  c #A4481A",
"^  c #AB5416",
"/  c #B55917",
"(  c #B65D0D",
")  c #B76C14",
"_  c #994526",
"`  c #8E4E2F",
"'  c #A34424",
"]  c #A75525",
"[  c #B65A2A",
"{  c #A55337",
"}  c #89753D",
"|  c #B7662D",
" . c #CA7633",
".. c #855C4A",
"X. c #925A4C",
"o. c #896B49",
"O. c #9A674C",
"+. c #837C45",
"@. c #83734C",
"#. c #847C4C",
"$. c #8A7C4D",
"%. c #867446",
"&. c #927B4C",
"*. c #866657",
"=. c #946957",
"-. c #847553",
";. c #847C52",
":. c #8C7B54",
">. c #8B7859",
",. c #947D5C",
"<. c #9A7D5D",
"1. c #957957",
"2. c #A47756",
"3. c #AB734C",
"4. c #8C776B",
"5. c #957D62",
"6. c #9B7D61",
"7. c #957668",
"8. c #8C7674",
"9. c #8D716C",
"0. c #A47D65",
"q. c #D57D49",
"w. c #C27446",
"e. c #76853C",
"r. c #6B8236",
"t. c #7D8244",
"y. c #7C834C",
"u. c #778645",
"i. c #7C8351",
"p. c #798454",
"a. c #768B54",
"s. c #9C823E",
"d. c #C58130",
"f. c #838345",
"g. c #83824D",
"h. c #8A834C",
"j. c #848A4D",
"k. c #8C8B4C",
"l. c #8A8545",
"z. c #93864C",
"x. c #858353",
"c. c #8B8354",
"v. c #838B53",
"b. c #8C8B53",
"n. c #8C845A",
"m. c #8D8C5B",
"M. c #84865A",
"N. c #938554",
"B. c #938A54",
"V. c #9A8C55",
"C. c #94845B",
"Z. c #9A845C",
"A. c #948B5B",
"S. c #9B8B5C",
"D. c #9B8354",
"F. c #8B9359",
"G. c #949252",
"H. c #94925C",
"J. c #9B935C",
"K. c #9C9858",
"L. c #8C914D",
"P. c #A38A5C",
"I. c #A2935D",
"U. c #A4955A",
"Y. c #BA8251",
"T. c #8D8A61",
"R. c #948462",
"E. c #9C8463",
"W. c #948D62",
"Q. c #9C8B63",
"!. c #9D8C6A",
"~. c #99886B",
"^. c #9C9263",
"/. c #9C936B",
"(. c #959565",
"). c #998875",
"_. c #9E9672",
"`. c #A38564",
"'. c #A28C64",
"]. c #A2856A",
"[. c #A48C6B",
"{. c #AA8C6B",
"}. c #AB8B66",
"|. c #B58D6C",
" X c #A39364",
".X c #A99466",
"XX c #A49B63",
"oX c #AA9C65",
"OX c #A4936B",
"+X c #AB946C",
"@X c #A2996C",
"#X c #AC9A6C",
"$X c #B0956D",
"%X c #B69B6E",
"&X c #A58D71",
"*X c #AA8E72",
"=X c #A78978",
"-X c #B18D73",
";X c #A59371",
":X c #AB9472",
">X c #A69973",
",X c #AC9A73",
"<X c #AB987A",
"1X c #B39574",
"2X c #B39B74",
"3X c #B49B7A",
"4X c #B99A78",
"5X c #B2A274",
"6X c #BBA47B",
"7X c #AEA16F",
"8X c #9DA261",
"9X c #D78946",
"0X c #D8934B",
"qX c #D68B56",
"wX c #DA9454",
"eX c #C88A46",
"rX c #E69348",
"tX c #E59756",
"yX c #EF9454",
"uX c #C8956A",
"iX c #C9A67A",
"pX c #EBA641",
"aX c #948C84",
"sX c #B79785",
"dX c #AA9389",
"fX c #BAA484",
"gX c #BDA79C",
"hX c #C19C8C",
"jX c #C6A886",
"kX c #CDB08E",
"lX c #CAAD98",
"zX c #CEB29B",
"xX c #CAB497",
"cX c #D2B49C",
"vX c #D6B79C",
"bX c #D2AC8F",
"nX c #D3B5A2",
"mX c #D7BAA5",
"MX c #CDB3A4",
"NX c #E6BFA7",
"BX c #E2B28A",
"VX c #DCC6AB",
"CX c #E7C7AB",
"ZX c #F7D6AE",
"AX c #FCD5B6",
"SX c #FED9B6",
"DX c #FDD6BA",
"FX c #FFDABB",
"GX c #F5D3B7",
"HX c #EECCB3",
"JX c #FFE1BB",
"KX c #FFDDC1",
"LX c #FCD5C2",
"PX c #FFE1C4",
/* pixels */
"S.b.x.N i y a +.e.t t t l.G.$.+.B m s n N n.g.b V >.`.*X'.!.].7.<.,.R.!.P.Z.c.g B B x.g.m m u b n.Q.'.|.oX^.n.j.",
"B.x.y.d t t t t r.e.e.L.L.j.d N %.g s r y n $.c.Z.&XE.C.E.R.:.:.:.#.c.:.D.D.x.u a M c.#.%.;.#.B c.W.$X$X'.N.#.g ",
"^.W.F.g.e.r.r.t r.r.e.j.v.F.e.e.+.f g p a a M R.`.).-.%.1.>.N.D.b.#.B #.:.$.%.u a N S.C.$.+.m $.n.S.oX.XZ.:.N g ",
"R.R.(.B.L.L.e.r.d d d N g.b.t.e.} f t t a a B :.z.5.>.B >.5.R.;.A.b.M.N m p #.V M m z.%.p i s n.B.B.D.'.Z.h.f.f ",
"E.Q.W.A.G.a.u.j.e.d y.h.c.%.f f.e.g t.r.u.p c.a.m.=XE.c.n.,.:.;.[.OXW.y.M M b.g.p.B $.p i a M i.b.h.D.'..XS.h.f ",
"{.'.^.Q.A.x.M g.u.u.b.g.x.#.n.C.L.k.K.z.p m %.`.[.,XS.$.} g.H.(.-X:X!.(.F.g.v.#.v.C m n n M M M B h.'.$X1X+XS.h.",
"'.OX;X,X>XT.i.x.v.H.oXB.M.m.OX+XJ.J.B.z.f.H.` D I / ^ H Q 3.<XdXsX*XE.3X(.c.;.x.x.M.A._.>X@XT.y.V :.'.1X<X+X'.Q.",
"C.C.n.>.V M N b.Z.V. XOX+X<X<X&X^. XG.j.l.G K K H ( ^ _ / ^ ] P.;X;X1.'.>.;.n.R.M.T.;.+.$.'.@XJ.M.W.'.}.`.<.,.'.",
"#.;.N a r y b.I.J.B.!.+X:X&X<X-X@X.XV.o._ F K J / ) / Y ) / '  X[.!.~.Q.R.,.C.`.S.W.x.n.C.Q.;X&X&X!.[.[.[.<.,.<.",
"A.A.x.M a N J.oX#XOXQ.R.~.!.E.<X4X^.8X} D _ Q / ) ) ( ^ ) ^ ] /.[.!.W.!.^.Q.E.Z.[.[./.>X#XOXOX;X~.~.~.7.,.E.Q.Q.",
" XOX!.c.x.m.2X6XfX3X+X~.W.!.#.A.;X1.O._ I P ^ ) d. .d. . .~ _  X,.>.Z.W.Q.S.Q.Q.`.[.OX:X#XOXS.W.,.E.6.7.,.Q.J.H.",
"C.OXOXW.Q.;XfXjXfX3XfX(.x.;.n.^.2.R R I _ ' H [ qX9X9X9XrX .` ~.5.E.OX#XS.N.Z.E.'.OX,X.X X XI.(.!./.'.Q.A.C.B.N.",
"'.+X<XQ.!.&X<X*XfXfX<X(.p.V A.(.3.R L ] qXL w.3.3 6 0 0 0XrXqXP.5.Z.OX2X XS.S.W.A.h.h.N.oXiX7X(./.A.L.G.G.V. XOX",
",X,X&X!.&X&X;X,.;.4.c C x.M.n.m.O.R F ) rXJ  .wX9X_ ` uX9XrXeXC.o.:.'.#X XP.OX,XoXK.XXXXoXU.XXoX#X XG.L.G.U.S.Z.",
"[.E.R.~.].&X[.~.V V b B x.c.m.A.:.O.O.3.yXP  .yXrXq. .[ wXyX9X` %.N.oX2X+X.X#X4X7XoXXXoXoXU.I. XoXU.I.U.U.U.B.V.",
"E.-.-.~.7.5.R.M.p.y b y.B g.C.-.g.C.T.3.[ _ ] w.tX .~ Y |  .] H z. X$X#X$X4X4X2X6X6X5X7XU.V.V.z.V.P.}.$X.XB.f.e.",
"n.#.;.C.E.C.C.n.B V C M.b.x.c.;.+.n ;.o.{ W H ~  .' K W L K K H }.%XJ.>X#XiX-XsX4X2XkX6X@XXXA.N.l.z.V.'. Xk.t.f.",
"b.g.#.B.'.'.Q.C.#.;.M.>X;X;X(.j.a.b B >.}.0 U G ! E E Y W E _ Y =.>.-.2X{.`.*X4X#X$XfX6X5X#XG.z.z.+.z.S.Q.V.G.L.",
"k.l.f.k.V.P.C.:.:.n.W.3XhXsXQ.F.y.u.n.l   1 - 5 K _ H _ Y Q H J < , . =X*X6.<X-X>X,XfX4X2X.XV.V.V.l.D.S.S.I. XG.",
"b.k.f.l.l.+.m N n.S.OX*X-X].[.A.>.< < x 8.A 8.x ; U ' Q Q W U ; A k . - *.OX-.].#X4X3X[.C.S.V.I..XP. XP.I.V.V.%.",
"#.N M f f g g f.C.C.:.:.c.A.[.l 3 3 3 5 x 4.8.).dX3 @ ; 3 ; 3 o A z - : o 7 A.'.%X2X,XW.C M.^. X|.$X%X%X5X#XJ.c.",
"n u y y a g t.g.^.Q.Q.c.A./.l 5 @ < 4 ; 4 x 9.dXGX3X9.A X . X   <X9.  : . . w @XiX6X5X(.M.M.T.(.D.I.oX%XiX2XOXOX",
"n u y y i +.h.z.A.'.2Xo.l l @ < 4 2 4 5 4 ; 9 7.ZXPXLXCX..A z x CXnXz , . O   l E.2XfX>XW.F.M.T.(.A.OX4X6X1X2X+X",
"m a u a n m &.1.OX.XP.e < j k 5 3 5 5 2 5 5 , x mXCXLXKXNXmXCXNXGXJXJXx 4 X 1 + 7 >.fX4X^.H.F.T.F.g.W.#X1X|.1X$X",
"y.a s u w w r ^.XX[.l 9.dXxXmX*.2 4 4 8 < 3 2 x MXlXCXDXAXDXDXDXFXFXGXPX7.- : 1 o   4X4X1X&XQ.N.a.M T.!.~.OX:X,X",
"b a b M s d N ^.fX0.5 8 4 1 8.8.A 5 2 2 5 5 2 5 6 sXHXDXFXKXDXDXFXFXFXFXGXMX  1 O o sX<X3X!.:X!.v.b p.).>X2X1X+X",
"p.p.y.b.j.b.^.7X..9 3 5 < 1 h A 9.- 5 h 2 2 2 > , sXHXDXAXFXFXFXJXAXDXKXLXGXnXh . o , *.sX;X<X[.@XW.T.(.!.:X+X}.",
"T.(.(.8XXXJ.@X#Xx - 4 2 5 < - h k , , : 1 4 3 9 2 sXHXDXSXAXFXDXAXAXFXGXFXZXKXk . 1 + l dX{.[.[.OX;X<X>X_.Q.'.`.",
"_.7X5X#X2X+X`.&X=.k h 5 3 3 8 2 : : , . X 2 ; < ; sXCXFXSXGXFXFXKXAXFXKXSXSXAX9.6   k *.[.S.[.!.1.].*X3X>XN.c.n.",
",X7X5X+X2X-X0.~.sX0.: 3 3 5 : 9 ` j , , - - X h x hXHXJXFXFXFXAXFXFXDXDXSXJXFXLXdX7 ).&XOXC.S.E.E.6.].*X[.,.;.;.",
"OX;X:X:X1X+X[.>.A.1.< 2 5 3 3 3.pXwX9 2 1 h , x NXGXJXPXAXFXJXAXAXFXFXFXAXFXJXJXcX1.&X:XQ.%.m :.E.,.[.:X:X XS.S.",
">XOX/.[.E.E.OX+.>.D.4Xe 1 9 q.rXrXyXwX2.9.gXlXlXlXGXAXDXFXKXAXFXSXFXDXAXFXKXGXJXCXjX2X[.[.OXc.:.E.1.;X,X:X+X+X4X",
"2X+X XA.B.b.n x.m.#XiX4X..@ 8 3.rXrXrX0X0XtXBXMXcXGXKXDXFXFXAXFXFXFXFXFXFXDXFXFXCXkX2X'.[.'.C.n.1.E.&X<X1X+XOX,X",
"2XOXA.N.#.N n A..X#X2X7X+X7.*.2.uXwXrXwX0X[ 0.sXmXHXKXDXSXFXFXAXDXFXAXFXFXDXDXFXZXkX:X'.,.Z.,.:.<.'.[.+X[.S.N.A.",
"#XS.N.A.c.+.#.A.I.U.J.XX,X3X;X[.&XuX0XwX9X| O.).cXGXPXFXAXAXFXJXFXFXFXAXFXFXDXKXHXkXP.E.E.`.Z.:.:.Z.E.E.S.V.N.b.",
"^.S.N.J.V.B.H.S.L.z.K.J.B.D.E.<X;X`.qXtXyXyX|.aXvXCXGXDXFXFXAXAXDXFXAXFXDXFXLXGXCXkX:.1.E.E.Z.,.:.,.Z.E.S.C.A.J.",
" X.XI.oXI..X5X5XXXU.oX.XJ.B.:.6.E.R.wXwX9Xq.0.aXmXzXCXKXFXFXFXDXDXFXSXPXFXDXKXvXbXkX1.,.,.>.@.C.R.<.E.`.C.:.;.c.",
"C.N.&.J.S.I.oXoXU.P.iX%XA.b.;.~.~.y.eXtX0XQ ..dXcXzXCXLXFXAXFXFXFXAXAXJXDXFXKXvXvXkX-.:.Q./.:.;.:.Z.`.0.:.+.m p ",
"H.B.h.V.I.J.I. X XV.S.Z.(.^.c.;.;.u.] P ] P *.).vXnXcXCXGXFXFXFXFXFXFXAXDXFXGXVXBXiX$.@.%.n.N.c.#.N.`.E.N.#.N n ",
"H.A.B.V.B.V.V.^.^.z.V.n.Q.J.#.C M b _ J K P l dXnXzXzXcXVXHXJXFXFXFXFXFXFXFXCXcXkXiX'.A.c.W.W.x.N $.1.C.h.M M m ",
" X.XOXW.n.A. XB.B.B.^.OX!.n.s N C N _ _ E Y *.aXzXzXmXxXzXNXHXVXCXCXHXCXVXHXlXmXiXuX$XOX>X:XQ.x.V p o.@.N u n c.",
"I.P.'.C.,.W. X#X X^.+X#X.XC.;.x.C.{._ K W J ` 0.mXzXzXnXnXcXMXcXcXzXlXcXMXzXmXjX%X}.{.<X<X[.S.M.B V +.m a b M g.",
" XS.S.<.,.E.E.3X.X.X'.1X,X#XOXW.Q.1XX._ H J _ { kXcXxXVXzXxXmXmXmXnXnXmXmXnXcX|.P..X+X;X:X[.OX(.v.F.v.N b M f.c.",
"+X+X+X{.E.>.@.OXoX2X2X4X4XsX<XC.-.5.{.3.H ! ~ H U iXxXbXzXcXbXlXlXzXzXlXnXfXQ. X+X3X<X!.6.,.m.i.N c.g.g.y.h.B..X",
"+X+X4X#XC.%.p H.#X5X5X4X1X*X3X].n.>.(.O.K G W _ Y _ _ { sX=.* U U F T U % 8 0.{.[.,.;.R.!.E.;.;.:.C.c.;.#.n v m ",
"`.[. XQ.B.h.+.K.oX#X$X{.].{.<X*XS.R.T.=.Y ' K H P J J Y <X{ % # # F # = % & &X>X!.Z V R.&X!.>.Z.E.:.p.i.M.n u y ",
"[.!.C.c.^. XoX7X X.X,X1X{.E.,.R.'.1X:X2.L J K _ Y K E _ OX1.` = F # F F % 8 [.~.>.C C 5.].[.E.`.'.W.M.i.M.x.g.N ",
"!.Q.n.B B.I.%X4X#X+X4X4X[.1.V W.+XjX2XP.{ W W H _ P J ' W.!.@.# * F F F % & 6.v V C V 1.0.0.5.5.'./.W.M.#.D.^.S.",
";XC.B N #.z.P.K.b.A..X.Xh.s V W.2X$X[.*X|._ K H Y J H Y P.A.o.D F $ $ * % 7 v v m C c c *.,.6.E.[.OXOXQ.A.C.^.OX",
"{.A.#.j.b.N.B.g.M a #.$.f u n W.OX+X6.~.-X# D * W W F F 4.~.=.$ # * F % ` M b B A./.C v p @.,.'.[.&X:X2X,X,X+XOX",
":X XH.m.c.x.g.d a r.g.y.g.j.N N.W.Z.0.<X3XT # T H Q G T 1.S.O.$ $ F F # ` n.M.Q.Q.+X+XC.v v V ,.[.'.'.+X{.*X;X:X",
"S.A.H.A.g.M.m.i.u.y.F.u.j.F.h.S._.,.1.'.sX0.` # F * F F $.N.o.; 1 < 8 3 c v.H./.'.'.+XS.#.n V -.c.N.E.'.'.!.!.~.",
"h.$.h.h.c.A.W.A.g.g.b.g.j.G.h.U.!.,.n.b.C.z j & D * $ F @.W.Z . . : 1 4 h l e E.}.C.N.+.n N B i.i.c.A.'.[.[.E.,.",
"j.f.k.N.S.Q.C.N.m n c.b.J.K.h.G.C.#.M u.c . X - 8 8 8 = e o.o.w , : : - - - - *.,.N.n.N B M.H.W.(.A.C.C.'.+XOXE.",
"t.t.k.N.A.C.#.c.N g f l.G.8XG.l.N N d y r 7 , O 4 4 4 > 4 l P.<.e 6 4 6 6 6 6 c #.N.C.#.B y.^.#X,X/.S.Q.OX#XOXQ.",
"u.t.f.+.c.%.s h.t.a f l.L.K.K.K.F.e.s a q r 7 : : < 3 5 , *.!.$.C.1.P.).E.&.+.s m $.:.-.C u #.P.+X`.Z. X#X XN.$."
};
