/* XPM */
static char *bearded_idle_5_removebg_preview1674926000[] = {
/* columns rows colors chars-per-pixel */
"56 56 256 2 ",
"   c #381C1D",
".  c #2F0F19",
"X  c #38172A",
"o  c #3B1933",
"O  c #3A2127",
"+  c #2A110B",
"@  c #4A1A1A",
"#  c #781A0A",
"$  c #70170C",
"%  c #532C17",
"&  c #79230D",
"*  c #6B261B",
"=  c #7C2313",
"-  c #77251A",
";  c #7C3019",
":  c #451B29",
">  c #541C28",
",  c #471A35",
"<  c #561D38",
"1  c #48232A",
"2  c #56272A",
"3  c #482435",
"4  c #542432",
"5  c #5B2533",
"6  c #542A34",
"7  c #592939",
"8  c #583538",
"9  c #533428",
"0  c #622A37",
"q  c #6A312A",
"w  c #4A4F1F",
"e  c #5B4E32",
"r  c #6D4B39",
"t  c #596D2C",
"y  c #69772C",
"u  c #6A6D3A",
"i  c #656B35",
"p  c #746A3A",
"a  c #6C743C",
"s  c #687537",
"d  c #73733D",
"f  c #757C3B",
"g  c #7A7C3B",
"h  c #77743A",
"j  c #62652C",
"k  c #573448",
"l  c #693B44",
"z  c #684644",
"x  c #744747",
"c  c #765946",
"v  c #775759",
"b  c #6C524C",
"n  c #6C6B46",
"m  c #756B45",
"M  c #6D7542",
"N  c #6A7747",
"B  c #757443",
"V  c #7B7444",
"C  c #747B44",
"Z  c #7C7B45",
"A  c #7C7C4B",
"S  c #78774A",
"D  c #7B7B51",
"F  c #7B645C",
"G  c #7A6565",
"H  c #831D1B",
"J  c #94160B",
"K  c #852718",
"L  c #8A3719",
"P  c #933C14",
"I  c #943C1C",
"U  c #9B3C1B",
"Y  c #973819",
"T  c #96330D",
"R  c #A23918",
"E  c #A52513",
"W  c #9A3B24",
"Q  c #892F27",
"!  c #A13B23",
"~  c #A80F11",
"^  c #9A441B",
"/  c #954218",
"(  c #914215",
")  c #A3491A",
"_  c #B55A16",
"`  c #AF5511",
"'  c #BA6915",
"]  c #B47213",
"[  c #8A4329",
"{  c #984526",
"}  c #915132",
"|  c #A24523",
" . c #B45A28",
".. c #A8542D",
"X. c #89733B",
"o. c #B7662F",
"O. c #CA7634",
"+. c #C0532C",
"@. c #8C5A4B",
"#. c #876C49",
"$. c #99684B",
"%. c #837C45",
"&. c #837C4C",
"*. c #8A7B4D",
"=. c #84744A",
"-. c #947E4B",
";. c #876858",
":. c #936C59",
">. c #847554",
",. c #847C53",
"<. c #8C7C54",
"1. c #8C7B5B",
"2. c #8A7754",
"3. c #937C55",
"4. c #947C5C",
"5. c #98795B",
"6. c #A37758",
"7. c #AD724D",
"8. c #876868",
"9. c #957D63",
"0. c #9A7E61",
"q. c #987A6A",
"w. c #8E7770",
"e. c #A37C65",
"r. c #CF764B",
"t. c #76843B",
"y. c #6C8136",
"u. c #7D8344",
"i. c #7C834C",
"p. c #788745",
"a. c #7C8351",
"s. c #798755",
"d. c #7E9159",
"f. c #AF843F",
"g. c #C1812A",
"h. c #838344",
"j. c #83824D",
"k. c #8B834C",
"l. c #848B4D",
"z. c #8C8A4C",
"x. c #8A8445",
"c. c #93874C",
"v. c #858353",
"b. c #8C8454",
"n. c #8C8B53",
"m. c #8C845A",
"M. c #8D8B5B",
"N. c #838856",
"B. c #938455",
"V. c #938A54",
"C. c #9A8C55",
"Z. c #94845B",
"A. c #9A855C",
"S. c #948B5C",
"D. c #9B8B5C",
"F. c #9A8454",
"G. c #8B9458",
"H. c #949252",
"J. c #95915C",
"K. c #9B935C",
"L. c #9C9958",
"P. c #8D914C",
"I. c #A3895C",
"U. c #A2935D",
"Y. c #A4955B",
"T. c #B6814F",
"R. c #8D8961",
"E. c #948462",
"W. c #9B8463",
"Q. c #948D62",
"!. c #9C8B63",
"~. c #9D8C6A",
"^. c #9A876B",
"/. c #9C9363",
"(. c #9C936B",
"). c #959564",
"_. c #9A8D74",
"`. c #A38565",
"'. c #A28C64",
"]. c #A2856A",
"[. c #A48C6B",
"{. c #AA8D6B",
"}. c #AB8967",
"|. c #B58D6A",
" X c #A39364",
".X c #AA9466",
"XX c #A49B63",
"oX c #AA9B65",
"OX c #A4936B",
"+X c #AB946C",
"@X c #AC9A6C",
"#X c #A29A6C",
"$X c #B2976D",
"%X c #A58D71",
"&X c #AA8E72",
"*X c #A78A78",
"=X c #B28D74",
"-X c #A59371",
";X c #AB9473",
":X c #A69973",
">X c #AC9A73",
",X c #AB987A",
"<X c #B29574",
"1X c #B49B74",
"2X c #B49B7B",
"3X c #B99B79",
"4X c #AAA174",
"5X c #B2A274",
"6X c #BCA479",
"7X c #B1A26B",
"8X c #9AA260",
"9X c #D88947",
"0X c #D8924B",
"qX c #D99354",
"wX c #D18A52",
"eX c #E69549",
"rX c #E59656",
"tX c #EF9553",
"yX c #C9956A",
"uX c #C7A579",
"iX c #EBA543",
"pX c #948C84",
"aX c #A99588",
"sX c #B99884",
"dX c #AD8B85",
"fX c #BDA483",
"gX c #B6A286",
"hX c #BDA79A",
"jX c #C7A986",
"kX c #CBAC98",
"lX c #D1AE93",
"zX c #CCB39C",
"xX c #C9B799",
"cX c #D2B39C",
"vX c #D8B698",
"bX c #D1B08B",
"nX c #D4B9A3",
"mX c #D8B8A4",
"MX c #CDB2A4",
"NX c #E3BEA5",
"BX c #D2A88C",
"VX c #D6C0A6",
"CX c #E4C4A9",
"ZX c #EDCBB2",
"AX c #F4CEB6",
"SX c #F5D3B4",
"DX c #FDD6B5",
"FX c #FEDAB5",
"GX c #FDD6BA",
"HX c #FEDABB",
"JX c #F6D5BA",
"KX c #F6D6B0",
"LX c #F3D8AD",
"PX c #FEDDC1",
"IX c #FCD5C1",
"UX c #FFE2C4",
/* pixels */
"D.n.v.Z i j s h.t.y t y.x.H.*.=.&.V a B Z b.v.M m 1.W.&X'.~.%X5.5.Z.W.!.'.A.b.B p.i.b.h.V =.s N v.W.'..X$X/.b.v.",
"V.v.i.f y s y y y.t.t.P.P.l.f h.Z g h j i C &.b.Z.[.^.4.B.B.9.2.2.<.v.<.3.A.*.u u Z v.&.V <.A &.<. X$X.X XB.&.h ",
"/.Q.G.h.t.t.y.y y.y.t.l.l.G.t.t.%.g s h a u B S.}.^.1.2.5.2.Z.c.l.h.&.&.-.#.&.i a Z A.V.*.V V *.b.D..X}.A.<.Z h ",
"E.E.Q.J.P.l.t.t.f f f Z k.n.u.y.X.g y y s s A <.3.R.,.Z 2.9.9.2.S.M.v.Z B V &.S C Z 3.=.d i B b.J.V.C.'.D.k.h.g ",
"W.!.Q.S.P.l.p.l.t.f u.k.k.=.Z %.t.h g y.u.d b.d.M.&X0.2.b.3.*.a.[.OXQ.i.C C n.i.i.A &.p i u C a.n.k.F.'.}.D.k.g ",
"{.'./.!.S.a.C a.p.p.n.j.v.i.b.C.l.l.L.c.p =.=.W.~.@X!.5.X.k.)./.=X&X(.).G.i.n.&.N.a.=.B C C C C Z *.'.$X1XOXD.*.",
"'.OX;X>X:XM.a.v.N.J.oXS.m.M.-XOXK.K.V.c.t.G.} J E ` ` T P -.aX:XsX&XW.4X(.v.,.v.a.N.S.#X:X:XM.j.S v. X<X<X+X'.!.",
"B.Z.m.>.D S C n.A.C. XOXOX,X=X%X X XJ.z.-.L Y I T ' ` U ' ` ..I.-X&X5.`.<.,.m.E.m.M.,.D *.'.#XS.m.Q.'.{.].5.4. X",
",.,.Z a t s n.U.K.V.!.OX;X%X,X,X:X'.Y.#.W L L U _ ' _ Y ] _ | OXOX!.!.Q.^.3.A.`.!.E.v.b.Z.!.-X-X_.~.].[.`.5.4.0.",
"S.S.j.S u C K..X@XOX!.W.!.~.0.,X6X#XL.X.J ^ ) _ ] ] _ ) ] ` | +X[.^.W.~.(.!.W.A.'.[.(.:X>XOXOX-X^.~.^.9.9.W.!./.",
" XOX/.v.v.S.1X6XfX2XOX!.~.~.,.Z.~.5.$.{ E Y ` ' O.O.O.O.g._ { (.4.1.D.!.!.D.!.!.[.[.-X;X@X X!.S.1.^.q.5.4.!./.J.",
"A.OX#XE.Q.-XfXjXfX2XgX(.v.D M./.6.~ ~ T { W ( ..qX9X9X9XeX+.} ~.9.0.OX#XD.B.Z.W.'.OX>X X X.X/./.~.~.[.!.A.V.n.V.",
"!.+X;X!.~.&X,X&XgXgX,X).D C S.).6.~ L  .qXY r.T.6 8 8 q qXeXwXI.0.A.OX1X XS.A.!.V.k.k.V.oX6X7X/. XS.H.P.C.C.'.OX",
">X>X-X^.].%X%X9.>.m.B D v.N.m.M.7.J L o.0XR o.rX9X{ ) yX9XeX0XB.#.2.'.@X XI.OX>XoXL.XXXX7XY.Y.XX1X XH.P.H.L.I.A.",
"[.^.E.^.%X%X%XR.S C n A D m.S.S.<.$.$.o.tXR O.tXeXr.O.o.rXtX9X[ #.V.oX1X+X+X1X1X7X@XXXXXoXY.U.Y.oXY.U.Y.Y.Y.H.V.",
"W.2.>.^.9.9.E.m.s.u N i.D v.m.2.A E.^.F. .[  .O.rXO.) { o.o...P c.U.$X$X1X1X1X1X5X6X5X5XY.C.C.B.C.C.}.$X.XV.h.t.",
"m.&.,.Z.^.4.m.m.A S D N.n.j.M.D Z A D #.} | T ) O.| W / T I I P I.7XY.4X;X3X<X3X1X1XjX6X#X/.V.k.x.x.C.'.(.z.x.t.",
"n.&.h.B.I.'.'.Z.&.,.m.:X-X-X/.N.s.a A 5.e.q } L / / / U U / { W :.:.>.1X{.}.=X<X>X;X6XjX6X@XC.H.c.x.B.D.D.C.H.P.",
"z.z.h.P.D.D.Z.3.,.m.E.2XhXsX!.H.p.S m.c X : : 4 U | I W { / P U 4 1   *X+X0.=X&X:X2XgX3X1XoXF.C.C.c.F.D.I.U.XXC.",
"z.z.h.l.z.X.h A m.D.OX{.=X].'.S.2.2 2 b w.G w.v > Q { ^ / ^ Q > G z X : ;.[.<.[.OX2X2X[.Z.D.C.U.Y.I.I.U.U.D.B.=.",
"&.A f g g h d %.S.E.<.*.b.S.%Xc 0 5 0 0 z w.w._.aXq @ > 0 > 5 O G v , , X w Z.!.$X1X>XQ.D N.Q.#X|.$X$X7X5X@X!.B.",
"B u i i y f %.l.S.'.'.b.S.(.b 0 @ 2 2 1 3 v 8.aXJXdXq.G : X X . ,Xw.. , X X e :XuXuX2X).d.N.R.).A.I.oX1XuX1X#XOX",
"B u i j i =.*.c.Z.OX1X#.c c @ > 7 4 6 7 7 4 8 q.LXUXPXmX@.v v v CXMX@.1 X 3 . c W.>XfX4XQ.N.M.R.).S.OX1X6X<X$X@X",
"h s u N B V -.F.OX.XA.r 2 l l 0 5 5 7 4 7 5 2 z mXCXIXPXZXmXZXmXIXPXPXb 3 o 3 . 9 1.fX5XOXS.M.G.G.j.S.1X<X|.<X$X",
"i.M d u e j j Q.oX%X@.8.dXxXMX;.4 6 6 5 5 5 5 b MXMXCXHXJXHXHXDXGXPXAXUX9.: , 1     2X3X<X+XE.m.d.N R.^.~.+X;X:X",
"N u a p.a f A /.jXe.4 2 9 6 w._.8.7 4 4 7 7 4 0 4 sXAXGXHXHXDXFXHXGXPXDXAXMXX 3 O X aX1X=X[.-X#Xa.C s._.-X>X<X+X",
"s.s.i.n.z.n./.@X;.8 5 7 4 , k G 8.1 7 8 4 4 4 < 4 sXAXGXGXGXFXGXFXFXDXPXPXJXMX8 X 1 1 F sX-X-X[.#XQ.Q.).(.OX+X}.",
"N.).).#X/. X#X#Xr X 6 4 7 2 1 k r 1 4 : 3 4 2 0 6 *XNXPXHXGXPXDXDXDXPXGXGXFXPXl o O + c ,X-X&X[.[.OX:X,X(.!.'.}.",
"#X4X5X7X7X+X].%X:.z k 6 5 2 2 4 , 3 : 1 : 3 < 2 : kXHXGXFXHXPXGXHXFXPXIXHXLXDXq.k   e ;.^.'.'.'.5.`.*X2X-XZ.1.Z.",
">X>X5X+X1X=X].^.<X].> 7 0 7 2 0 @.0 1 3 : , , k x mXHXFXGXHXGXHXHXGXPXGXFXPXGXJXaX8 q.%X'.V.A.A.W.W.].&X[.Z.*.v.",
"OX-X;X;X<X{.}.2.W.:.2 5 5 5 5 7.iXqXq 3 , k O x mXIXHXFXGXGXFXHXDXPXFXPXFXHXPXHXvX0.%X;XD.2.V <.A.4.].<X;X'.Z.!.",
"-X#X(.~.`.A.OXA 1.A.3Xr 3 0 wXtX9XrXqXT.4.hXMXkXcXSXGXHXHXPXFXFXFXHXFXFXHXIXFXFXCXjX3X-X[. Xb.<.W.5.-X>X;X@X.X5X",
"1XOX XS.S.b.B v.M.>XuX3X@.@ q 7.eXeXeX0XqXrXbXmXmXAXGXGXHXHXGXHXDXFXHXHXFXPXKXHXSXjX<X[.W.[.B.Z.5.!.%X,X<X+X[.>X",
"1XOXD.V.h.Z h J..X@X1X1X{.:.:.6.yXqX9XeX0X .e.gXcXJXUXHXHXHXFXHXHXHXHXGXFXHXHXHXDXbX;X!.A.[.B.2.3.`.[.+X.XA.V.S.",
"@XD.B.S.k.A A J.Y.U.U.XX@X1XOX!.&XyXqXqX9X+.$._.cXCXAXJXGXHXGXGXGXGXHXGXGXGXGXZXvXbX!.!.W.].Z.<.3.Z.W.W.A.V.B.n.",
" XD.B.D.C.C.D.D.z.P.K.K.C.F.^.,X-X`.wXrXrXtX|.pXnXzXZXPXGXFXHXGXGXHXPXPXGXGXGXNXvXbX4.E.W.0.4.Z.Z.4.5.A.!.V.S./.",
"/. XD.oXU..X5X1XXXY.oXoXD.z.<.q.!.Z.qX0X9Xr.e.pXnXzXCXJXHXGXFXFXFXFXGXGXFXHXHXmXlXjX2.4.Z.1.2.<.E.A.0.`.Z.b.*.b.",
"Z.B.c.K.I.U.@XoXY.I.uX$XS.n.v.^.W.u.wXrXeX) @.pXcXmXcXvXJXPXGXHXHXGXHXHXHXHXSXmXbXjX1.<.!.W.b.m.<.W.].`.<.&.V p ",
"K.B.k.C.K.K. XU. XF.C.A././.m.,.,.p...) ) U ;._.zXnXcXzXmXZXHXUXHXGXGXHXFXLXVXnXvXuX3.V &.E.k.,.&.3.'.A.b.&.Z B ",
"J.J.V.C.c.C.K./.U.P.J.m.Q.K.&.A S N [ U Y R @.pXnXzXnXnXzXvXCXVXCXNXCXmXCXCXzXnXBXuX;XB.b.(.n.v.h.=.3.Z.*.Z C V ",
" X.XOXE.m.S./.C.C.B./..X/.b.V S D S { / / ! :.pXcXkXnXzXmXcXzXxXzXcXzXMXMXMXzXmXuXyX@X(.:X;X`.j.A m #.=.A u C v.",
"U.I./.A.Z.E. X@X X/.OX<XOXZ.,.v.Z.}.{ I ^ U } q.mXmXnXzXcXmXnXzXcXcXnXzXxXnXcXbXyX|.{.,X,X[.!.N.C Z =.h N a B k.",
" XI.W.5.4.W.W.2X.X.X.X@X;X>XOXQ.!.<X$.{ P U { ..jXcXzXVXzXxXnXnXnXMXnXmXzXmXlX|.K.{.+X,X&X[.#X).N.G.l.A a C &.b.",
"$XOX@X{.W.2.=.OX@X@X<X3X3X2X,XZ.>.9.].7.I ( ) Y W uXxXlXcXcXzXkXhXnXkXlXvXfX<X{.@X1X;X~.4.4.M.v.A b.v.A u.k.V. X",
".X@X1X;XZ.=.p J.@X5X3X1X<X=X2X^.m.,._.$.I I U { W { W ..,X:.; Q Q Q K Q $ q 5.[.*X1.>.E.^.E.2.<.Z.m.b.&.*.B m B ",
"].[. X!.V.k.h.L.#X@X@X}.].{.<X&X!.E.R.$.W | Y / W I W ! sX..$ # # K = = $ * ].:X].S D R.-X[.<.Z.A.m.a.a.N.B u i ",
"[.'.Z.b.K. XXX1X X.X<X<X{.W.E.E.'.<X:X6.L Y ^ W ( ^ W W (.5.Q # = = K K $ * =X^.3.D D 9.].[.W.W.'.E.N.a.v.v.j.A ",
"~.^.v.&.B.U.1XuXoX+X1X3X{.1.D Z.@XjX1X6...^ / I W R P { Q.(.A # & K # = $ * 5.m m D S 5.e.e.0.9.].(.Q.v.&.A./.D.",
"-XS.A Z h.3.U.Y.n.S..X.Xb.d A Q.1X;X[.{.|.W Y P W R ^ W I.S.#.H H - = K * q d n V D n n ;.5.W.W.[.[.OX!.S.Z.!..X",
";XZ.i.j.b.V.n.h.C a %.*.h u B Q.OX+X0.^.=X= H ; / / L = :.^.:.= & = # # [ S N D E.(.A n n =.1.[.[.OX>X2X>X>X-X#X",
"+X/.J.J.n.v.v.a s y.h.A i.l.Z B.Q.W.e.,X=XQ # K / / L K 1.D.$.- = H H # } m.N.!.!.@X+XZ.m B =.4.[.`.'..X{.OX-X;X",
"A.D.J.S.,.v.M.l.p.a.G.p.l.H.k.S.#X1.5.'.sXe.} # K K H H 2.b.#.2 1 2 q 5 n N.)./.'.'.+XA.=.V B >.b.B.A.[.[.].~.^.",
"b.h.k.k.b.S.Q.S.h.A M.v.l.P.x. X~.m.v.b.Z.v z * H - - K =.Q.;.X o , 1 6 k r p e.'.A.B.%.B Z A a.i.v.D.'.[.[.W.4.",
"j.h.k.B.D.!.Z.b.V V n.n.K.Y.k.H.Z.*.B p.n X X X * * * q r #.;.e 3 , , 1 : : X ;.Z.B.b.Z A N.Q.Q.(.S.S.Z.I.+XOXW.",
"p.h.z.V.S.B.*.b.%.h u.x.H.XXH.x.%.Z a s i w 1 3 6 7 7 7 9 c !.A.z 8 8 k 8 8 6 n =.B.Z.,.i.A Q.@X>X/.D.!.OX+XOX!.",
"p.u.%.x.<.&.d k.t.s f h.P.L.L.L.G.f a u w t 9 , , 4 4 7 3 @.'.*.B.F.6.~.^.-.x.h Z *.2.2.A a *.I.+XW.A.OX@X XV.*."
};
