/* XPM */
static char *My_project_1_2__1_1674931674[] = {
/* columns rows colors chars-per-pixel */
"56 56 237 2 ",
"   c #0E001A",
".  c #15021E",
"X  c #27081D",
"o  c #3A0F1A",
"O  c #2F101F",
"+  c #1B0A24",
"@  c #170923",
"#  c #1F1224",
"$  c #240B21",
"%  c #28192A",
"&  c #331B27",
"*  c #33212A",
"=  c #3C2834",
"-  c #3E3832",
";  c #2C2529",
":  c #49151B",
">  c #531A19",
",  c #57211F",
"<  c #68241A",
"1  c #782819",
"2  c #45272B",
"3  c #463838",
"4  c #543738",
"5  c #502F2B",
"6  c #68372E",
"7  c #6B1E16",
"8  c #545D29",
"9  c #4B4A36",
"0  c #54473A",
"q  c #5C573C",
"w  c #48462F",
"e  c #635E38",
"r  c #56642A",
"t  c #5D6835",
"y  c #5D7134",
"u  c #64732C",
"i  c #677B2D",
"p  c #626A35",
"a  c #6C6D3B",
"s  c #666639",
"d  c #776D3D",
"f  c #6B7336",
"g  c #65743B",
"h  c #6C733B",
"j  c #6A7838",
"k  c #74743D",
"l  c #747C3B",
"z  c #78783A",
"x  c #666D2E",
"c  c #4D3B44",
"v  c #554A44",
"b  c #5E5543",
"n  c #665549",
"m  c #74554A",
"M  c #6C6C42",
"N  c #6B6549",
"B  c #7B6B42",
"V  c #766C49",
"C  c #6D7441",
"Z  c #6D7B44",
"A  c #677844",
"S  c #747543",
"D  c #7B7544",
"F  c #737B43",
"G  c #7C7B44",
"H  c #73754A",
"J  c #7C744C",
"K  c #747D4B",
"L  c #7C7C4B",
"P  c #7B6856",
"I  c #7D7A52",
"U  c #7C7250",
"Y  c #842C17",
"T  c #88351C",
"R  c #92351A",
"E  c #963819",
"W  c #A33F16",
"Q  c #AA471C",
"!  c #B44D1E",
"~  c #B5521E",
"^  c #AC4C16",
"/  c #904F39",
"(  c #BE5621",
")  c #AB5931",
"_  c #817D3E",
"`  c #C25C22",
"'  c #C05720",
"]  c #C56223",
"[  c #CC6C25",
"{  c #C86724",
"}  c #D67828",
"|  c #CF6F26",
" . c #835245",
".. c #846B4B",
"X. c #827C46",
"o. c #84744C",
"O. c #837C4C",
"+. c #8A7C4C",
"@. c #877649",
"#. c #82695B",
"$. c #847553",
"%. c #8A7453",
"&. c #847C53",
"*. c #8B7C53",
"=. c #857C59",
"-. c #8C7B5A",
";. c #877559",
":. c #927C54",
">. c #937C5C",
",. c #997C5D",
"<. c #93755A",
"1. c #9A6750",
"2. c #AD6F4F",
"3. c #8A7564",
"4. c #957D61",
"5. c #9A7C62",
"6. c #A17F63",
"7. c #75823C",
"8. c #798437",
"9. c #6D8330",
"0. c #758144",
"q. c #7B8245",
"w. c #7C824B",
"e. c #7A874A",
"r. c #7E8451",
"t. c #778353",
"y. c #6C8346",
"u. c #DC832B",
"i. c #DD8730",
"p. c #E58B2D",
"a. c #EA9936",
"s. c #E9912F",
"d. c #EFA43F",
"f. c #848345",
"g. c #84834C",
"h. c #8B844D",
"j. c #838C4B",
"k. c #8B8A4C",
"l. c #868944",
"z. c #94894D",
"x. c #879249",
"c. c #97924C",
"v. c #838353",
"b. c #8C8354",
"n. c #858B53",
"m. c #8C8B53",
"M. c #8C845A",
"N. c #878B5B",
"B. c #8D8B5B",
"V. c #85845A",
"C. c #938455",
"Z. c #938B54",
"A. c #9A8A56",
"S. c #94845C",
"D. c #9A845D",
"F. c #948B5C",
"G. c #9B8C5C",
"H. c #8A915A",
"J. c #959253",
"K. c #9C925C",
"L. c #9A9558",
"P. c #A38C5D",
"I. c #A4875B",
"U. c #A3935C",
"Y. c #A39A5D",
"T. c #A09557",
"R. c #A0A257",
"E. c #8D8560",
"W. c #8C8B63",
"Q. c #958362",
"!. c #9B8463",
"~. c #958B63",
"^. c #9B8B63",
"/. c #9D856A",
"(. c #9D8B6A",
"). c #928068",
"_. c #8F9162",
"`. c #969362",
"'. c #9C9263",
"]. c #9D926A",
"[. c #9A9867",
"{. c #9F9371",
"}. c #9F8672",
"|. c #A38465",
" X c #A28C64",
".X c #A98B66",
"XX c #A2856B",
"oX c #A48C6B",
"OX c #A98D6C",
"+X c #A9876A",
"@X c #A49364",
"#X c #AA9465",
"$X c #A4936B",
"%X c #AA936C",
"&X c #A5986C",
"*X c #AC9A6D",
"=X c #A99A65",
"-X c #B19B6D",
";X c #B1956C",
":X c #A48D71",
">X c #A98E73",
",X c #A59373",
"<X c #AC9374",
"1X c #AC9B72",
"2X c #AD9379",
"3X c #A99A76",
"4X c #B29475",
"5X c #B39B74",
"6X c #B99C76",
"7X c #B2957A",
"8X c #B59B7B",
"9X c #BA9C7C",
"0X c #B68660",
"qX c #AAA065",
"wX c #AEA173",
"eX c #B4A174",
"rX c #B9A375",
"tX c #B4A27A",
"yX c #BBA37B",
"uX c #BEA87F",
"iX c #B7A66E",
"pX c #F0B148",
"aX c #CB8D63",
"sX c #DB9C6B",
"dX c #C99467",
"fX c #C2A47A",
"gX c #DCA970",
"hX c #EDB777",
"jX c #E7AA70",
"kX c #E6C27E",
"lX c #B59C82",
"zX c #BCA384",
"xX c #BAA286",
"cX c #C19E82",
"vX c #C4A987",
"bX c #D8B788",
"nX c #F3CB83",
/* pixels */
"V S.,X<X^.n.g.f t f l 9.u i q.Z.f.X.X.l f D v.G J J !.OX X/.!.:.S.D.|.I.:.O.j w.h.D O.a h b. X%X*XD.G.l h p 8 r ",
"L (.2X%XS.m.q.f u i i l 9.x.L.j.l G X.f x a k o.S. X X>.>.>.;.*.L L *.C.b.S q G g.D +.v.S N. X*X@Xb.O.z k f r r ",
"V.oX<X X~.@Xk.j.x.9.u 9.8.j e.x.8._ X.f f f a I (.XX>.D *.,.F.M.g.w.+.@.o.C g w.A.:.B @.G k.U.#X Xb.z D k a f.q.",
"&.$.).|./.$XJ.m.x.e.l 7.8.f q.h.7.+.f.i x u j O.b.=.-.%.;.*.o.S.@X*.D a B S 0.F C.*.s d l.k.D.D.D.C.X.z G h k G ",
" XG.|. X!.-.`.W.g.j.e.j F m.b.o.q.z j 8._ i h V.v.~.$XC.b.&.L S.>XG.F y.m.h.g.L B e p j f.F.:.I..X|.h.z k h h $.",
":XXXS.-. X'.'.^.M.H e.y.j.C.O.O.F.Z.k.m.L.z l F.3X8X(.=.%.F.[.1X<X].`.H.b.&.r.v.D f e.F Z S b.%X5X*XP._ f f S v.",
"=.;.o.*. X%X$X:X~.w.g.k.K.@Xn.F.$X$XK.L.Z.X.z.m.`.~.S.&.X.G.$X7X<X/.&XM.I F.K n.B.'.=XF.r.S B.OX4X%X!.G.7.g v.v.",
"(.^.%.*.:.S.J $.C F F.S.A.&X1X7X2X X$XL.h.f.h.m.g.O.O.b.b.+.h.,X<X4.>.$.V.Q.S.N.$.J Q.%X^.M.(.OX.X>.-. XX.G M.N.",
"1X].M.b.&.O.S r t k.K.m.F.$X,X>X2X8XeX^.L.K.X.A.A.A.f.D.O.l G.7X:X~.^.S.S.|. XF.V.N.^.%X$X:X:XXXOXD.<.D.D.G.~.3X",
"|.E.J *.B.B.m.l g K.=X&X&X-.>.(.!.<X3Xm.m.G.C. X%X*X@XG.h.X.^.$X).~.:XOX!.,.^.$X&X5X*X&X:X/./.4.>.!. XF.Z.@X$X].",
"Q.S.O.S.&X&X^.L w.%XyXvX8X~.F.^.X.(.9X`.B.G.^.^.1X5X5XU.g.m. X-.C.S.S.'. XQ. XOX<X4X@X^.:X3.S.4.%.S.&XG.D  X8XOX",
"/.>.v.h.C.<X&Xn.$XxXvXxXxX3XM.&.N.^.:X$X[. X!.~.8XyX%XU.Z.A. X>.4.@X@Xb.Z.S.^.+XoXoXY.@XF.^.(. X'.B.Z.C.C.oX|.5.",
"!.D.D z G.<X,X!.:X<X2XlXxX~.v.K m.^.>.Q.,X^.~.:X>X:X(.A.;X6X.X5.<.%X-XG.C.@XF.J.m.J.iXrXK.'.K.k.J.L.^.G.D.%.,.,.",
"!.D.*.G.5X7X:X/.>X,XE.;.U H w.n.F.S.D.-.>.(.~./.5.}.oX~.oX XD.B o.+X5XK.$X7X1XL.L.qXqXT.#X-XU.c.c.K.D.!.*.V ;.<.",
"!.Q.!.>XoX4.Q./.:X>X~.C t Z g.b.F.M.b.F.D.7X<X:X2X>X`.M.b.b.c.7.Z.=X&X#X%X*X5XqXT.rXY.A..X5XY.T.@XK.c.Z.A.b.O.U ",
"h.A.!.oX/.J =./.3.Q.^.L A K I $.*.$.-.D.>.8X7X5XlX,XF.G O.K.Y.J.'.-XrXrX5X5XrXrXeX=XL.A.+.A.c.0XyXG.8.l.@XC.v.v.",
"f.L.@X&X~.S =.|.S.&.&.G A r.B.V.V.L L G O.3.P P #.P q g g.G.5XfX@XG.*X-X4X9XlXyXvXtXL.L.+.l.z.6.OXf.9.l. Xm.h.g.",
"l.K.=XL.h.w.g.C.%X(.S.X.&.(.3X].F.n.Z C q .   @     @ n f.C.7X6X@X^.&X.X+X8X1X#XzXuXrX#Xz.l.l.z.!.L.x.Z.G.M.k x ",
"h.U.K.Z.m.g.l.k.P.S.>.h.S.2XxX8X$XN.L 9 : : > 7 > : : 2 v k.z.h.%XvX9XXXXX8X X5XyX7X4XA.z.I.h.A.A.U.#XC.G k x 8.",
"F.@XG.L.Z.f.l.l.f.d S V.^.oX>X X(.=.N 2 : Y W ^ R Y 1 : * q r f I.6X4X!.<./.oX8X<XM.S.L.U.#XP.U.U.P.h.X.o.z 8.f.",
"5X;XP.C.X.z G z z z f.F.~.J $.Q.Q.b & < R Q { } [ ~ R < > * w j h.b.O.X.S !.6X6X%XV.v.~.U.@X;X5XyX-XK.h.C.C.h.h.",
"5X;X#XO.a a p r a X.C.'.oX^.M.;.v 3 : Y ~ ` | | { ~ ! Q < . 9 H.q.0.f a B.5XfX9XeXW.t.N.K. X X5XyX6X4X XS.G.F.K.",
"4X5X@Xb.S p p p z +.+.G.@XY.Y.k.+ o Y Q ` } ] ( ( ] [ ` E O 9 q.F e.G b.1XyX6X1XtX[.N.r.B.`.F.#XyX9X%X.XD.|.$X;X",
" XtX1XN.L g g D d X.S.%X1XL.R.J.@ : R ! [ } | { i.u.{ { ^ 1 2 3 C z.O.E.^.$X|.+XtX*X`.B._.H.r.@X5X<X#X6X4X%X7X%X",
":.@X[.t.t.M g s 8 s G.4X5XqXY.$X+ > Q ` } s.} } pXa.} | { ! 2 % V z.^.,XQ.>.6.+XlX9X>X(.~.t.K Q. X@X7X4X4X<X<XOX",
"+.~.{.W.K y S G g e.K.1X5XeXqXF.@ , ! ] } d.a.s.pXpXd.p.} | < % S k. X+X>.D.7XlX7X7X<XoXoXN.A W.~.*X6X X>X<XXXC.",
"F.^.~._.t.y.n.G.k.K.&X5X9XyXvXlX+ > Q ` } p.} } pXpXpXi.| ] T 5 5 t !.$.+.m.lXlX7X4X4X>X,X1X`.W.{.2XoX X$X2X(.S ",
"%X$X(.~.H.{.'.=X@X$XoX7XzX5XzXlX@ : E ~ ] [ ` ` } s.s.} ` ' Q Y X 3 S h k.r.,X,X>X>X,X<X!.^.3X8X,X$X^.%X<X,X,XW.",
"%X1X3X[.[.zXtXeX%X+X+X4X5XG.-X>X@ o Y Q ' ' ' ] } u.s.} [ ] Q 7 $ 3 h p a F ~.4.>.!.D.%X X>.!.<X<XS.%.D.1X5XzX<X",
" X3XlX,XwXtX1X=X4X|.XX7X%X%XvX>Xc & > Y W Q ! ( ` | } | ] Q ) / 6 4 w t r r V -.!.:XS.S.|.D.5.oX<XS.D b.-XbXbXuX",
"$X1X1X1X$X$X&X%X,X X>.|. X1X9X(.N 3 $ > Y Y R E ! ( ` { ! T 2.hXaX .& w t r g F.:XoXB.D *.D.!.,X%X@XF.A.L.fXbXyX",
"^.].&X<X&X^.,XXX!.^.L $.;X6X5X(.I e 3 & X o & : R Q Q ( ! E { sXjXaX .3 ; ; n <X7X%X Xb.+.S.!.<X7X X;X5X@XiXfXfX",
"S.:X3X].1X*XS.A.b.L L F.9XfXrXeX_.L N 3 = ; ; = , 1 < T T 1 e 1.sXjXaXm 4 4 v m :X XoXF.C.>.!.<X5X*XOX5XtXuX6X6X",
"tX5X,X1X8X3XA.h.X.S K.wXrX5X1XtX].Q.].,X}.3.P n & $ $ $ $ + $ 2 2.sXhXnXbXgXm % 5.G.S.>.o.:.OXoX%X@XD `.xX8X5X-X",
"uXrX%X-X%XC.*.z.f.&.G.k.c.T.@X<X X}.:XvXlXlXlXP v v c c c 3 - = 4 5.nXbXdX..n n !. X(.oX+.+.D.!.D.F.F F.1X%X5X6X",
"1XvXrX=X@XZ.z.=Xk.F.A.k.J.K.K.D./.2X:X).2XxXlX~.~.3.3.3.).3.N 0 $ m hXjX1.$ 3 o.$.D.5.!.>.,.:.S.D.U.H.@X.X XOX%X",
"eXeX-X*X@X@XP.*X@X-X-XU.T.;XU.b.>.oX(.*.4.3X{.~.E.=.J oX2XF.I q $ c aXhX0X& 3 N %.D.*.$.:.D.>.!.D.h.b.A.I.D.#X$X",
"K. X#XrXK.+.A.U.#X=X=XL.=XfX'.k.&.4.~.K M H I L L n.F.9X<Xg.B.U 2 4 m 1. .c v P %.>.Q.b.O.:.!.|.-.@.D d D.*.*.M.",
"D J ^.rXK.O.C.A.c.K.@XL.A.A.b.K.m.I n.A A A w.v.V.F. X>X[.m.K.*.N 4 +   % n P M.&.B *.F.e.L S.P.C.h.D D G.m.Z D ",
"v.Z w.~.L.m.Z.Z.k.^.@XG.Z.Z.S.^.&.H S g Z L O.B.B.S.Q.Q.@X'.G.A.,.3.P P P =.H M.`.V.F.$Xb.O.@.:.b.L F G D.b.F L ",
"[.H.L m.@XwX@XF.S.F.S.b.Z.$X1X*.M S O.V.V.M.&.*.F.*.S.S.,X^.D. X%.,.|.+X Xb.h.G.*X<X<XoXO.D d *.K s s g.*.O.L M.",
"*X1X~.S.P. X X>.Q.=X=XG.K.<X1XF.v.v.^.:X3X`.v.&.$.Q.F.*.~.~.;.$.V o.<.<.!.+.k O.$X7X<X].e.C B d C g S b.X.D h C.",
"#X1X(.S.G.!.D.>.4.!.5X-X X%X1X*X$X!.>XlX9X%XF.v.L 4.!.|.<X~.$.J o.$.-.|.!.b.Z.#X<X>X5.1X[.r.F.g.F l h.f.X.O.a s ",
"D.,.!.G.%X-X@XOX<.%. X*X;X6X9X8X2X-.$.oX>X,XB.e.K K J 4XzX~.v.L o.v.I >.Q.Q.7X4X,X/.>.!.b.L m.g.g.G C.P...+.L Z ",
"!. X$X%X X*X5X.XG k G.eXrX-X7X4X5X^.I M.(.(.M.0.y C ^.zX8Xv.a H =.^.W.=.>./.XX).=./.^.=.L M.M.L r.o.d M s @.D w.",
"@X#X5X#X X^.%XD.k.l.L.$X$X#XXX+X7XoXQ.Q.).M.V.w.Z r.`.xX8XN.Z L Q.).(.M.F.7X,XB U ^.OX!.S.!.M.t.m.S q x a f.q.Z.",
"$X%X X!.oX~.S.b.K.qXeXU.F.7XOX6.>.|.5X5X%X'.v.N.~.F.V.W.(.~.r.K L U =.b.OX>XE.K &.(.+X5.5.I.^.N.M.F.n.F h f.Z.Z.",
"P. X!./.:X~.O.h.^.6XfX%X5XvX7XS.H S.rXtX1XeX1X$XoX^.].&X].E.J Z C S I V.<.P V I ;.!.|.5.<. XF.N.S -.&XF.F O.C.:.",
"I.D./.>X,XS.F G h.^.@Xh. X6XS.k S @XfX4X!.4XvX7X>X<X:XoX X!.Q.~.~.M.&.J M N H H s P <.>.^.oX:X[.F.=.oX@Xw.a *.P.",
"5XoX!.7X<Xb.q.V.g.z.g.u z +.g.f S $X&X|.6.>X7X4X<X<X<XQ.-.!. X4X$X@X^.$.M A B.~.J e ..-.!.%XoX5X1X&XoX@XV.V. X;X",
"5X*XOX>X<X'.L.^.V.w.j y L f.0.e.L E.^.4.6.cXlX7X>X|.%XoXD.,.!.<X5X%X Xg.M.M. X<X$XL V ..-.OX XoX%X,XOX,X(.+XoX%X",
"!.!.OX<X^.Z.'.b.$.N.H.j.x.m.K m.k.oX(.>.|.7XlX>X(.!.S.S.C.D.S.XX<X5XP.F m.;X X XOXm.L M L b.-.P. X X}./.(.>X.X.X",
"%.!.%X5XC.S h.g.m.K.F.G l H.w.k.z.%X/.O.h.E.{.).4.oXF.O.D -.C.+XOX X^.F.m.=XI.:.o.G L G K w.m.G.D.^.Q.-./.4.|.|.",
">.+X$Xb.f.f.k.Z.G.C.>.a z J.K.J.l.C.S.S g.w.V.;.5.>X$X^.F.C.%.!.|.S.F.U.C.J :.A.V.h L K.`.~.^.S. X*X%X/.-.%.5./.",
"(.+X Xg.8.k.C.A.S.*.b.F J X.J.Y.c.l.O.j p t r M ~.2X%X@X!.C.X.:.:.D.D.*.O.D S C.C.L L ^.*X5XoXS. X*X@XQ.$.&.S.{.",
"/.oX%XG.j.7.X.b.O.D f.j k 7.x.L.L.L.j.f f r r q.oX2XoXS.>.XXC.C.,.,.|.C.O.O.S @.:.O.a O.G.$XD.G.*X@XA.L f w.v.N."
};
