/* XPM */
static char *My_project_1__1_1679568660[] = {
/* columns rows colors chars-per-pixel */
"56 56 239 2 ",
"   c #39342D",
".  c #343532",
"X  c #3C3B34",
"o  c #3D3A36",
"O  c #2C2E2F",
"+  c #4C392C",
"@  c #47362B",
"#  c #523B2C",
"$  c #5E3E27",
"%  c #443B33",
"&  c #483A31",
"*  c #553E31",
"=  c #623E28",
"-  c #3F4032",
";  c #43433B",
":  c #4A4A3A",
">  c #484637",
",  c #574638",
"<  c #4D533B",
"1  c #53533A",
"2  c #585938",
"3  c #53512B",
"4  c #66442B",
"5  c #7C4624",
"6  c #784729",
"7  c #664934",
"8  c #734D35",
"9  c #66583B",
"0  c #7C5339",
"q  c #57642C",
"w  c #5B6735",
"e  c #5D7236",
"r  c #646D2B",
"t  c #65792C",
"y  c #636B35",
"u  c #6C6E3B",
"i  c #666637",
"p  c #746D3D",
"a  c #6B7B35",
"s  c #65733A",
"d  c #6D743B",
"f  c #6B7637",
"g  c #74753C",
"h  c #747B3C",
"j  c #777A39",
"k  c #464643",
"l  c #544F45",
"z  c #5A5645",
"x  c #585754",
"c  c #645A4A",
"v  c #675B47",
"b  c #755B49",
"n  c #645A50",
"m  c #6C644B",
"M  c #696844",
"N  c #7C6C42",
"B  c #7B6D4B",
"V  c #736C4A",
"C  c #6D7342",
"Z  c #6D7A43",
"A  c #6C7A4C",
"S  c #747443",
"D  c #7C7544",
"F  c #747B44",
"G  c #7C7B44",
"H  c #7C744C",
"J  c #747C4B",
"K  c #7C7C4B",
"L  c #74734C",
"P  c #686457",
"I  c #776B55",
"U  c #7E7B52",
"Y  c #7C7454",
"T  c #6A6B69",
"R  c #787673",
"E  c #8B4C24",
"W  c #844926",
"Q  c #984E22",
"!  c #9E5121",
"~  c #95532A",
"^  c #875537",
"/  c #975D39",
"(  c #8F522D",
")  c #A45525",
"_  c #AB5E2E",
"`  c #BA642F",
"'  c #A7653C",
"]  c #B96736",
"[  c #C16C38",
"{  c #CA723D",
"}  c #D6773E",
"|  c #826E49",
" . c #827C45",
".. c #837C4B",
"X. c #897C4C",
"o. c #85744C",
"O. c #837553",
"+. c #8A7454",
"@. c #847C53",
"#. c #8B7C53",
"$. c #857C5A",
"%. c #8C7C5A",
"&. c #88745B",
"*. c #927C54",
"=. c #937D5C",
"-. c #96775B",
";. c #917C4F",
":. c #B27049",
">. c #8C7763",
",. c #947E62",
"<. c #9A7D62",
"1. c #917567",
"2. c #897E78",
"3. c #A57F64",
"4. c #D87A42",
"5. c #C47341",
"6. c #75813C",
"7. c #788538",
"8. c #6D8531",
"9. c #758145",
"0. c #7C8344",
"q. c #7C824B",
"w. c #7A874A",
"e. c #7D8452",
"r. c #778454",
"t. c #738846",
"y. c #81863D",
"u. c #838346",
"i. c #858A46",
"p. c #84834C",
"a. c #8B834D",
"s. c #828B4C",
"d. c #8C8A4D",
"f. c #8A8746",
"g. c #928A4C",
"h. c #879348",
"j. c #848352",
"k. c #8C8354",
"l. c #858A54",
"z. c #8B8B53",
"x. c #858358",
"c. c #8C845A",
"v. c #8D8B5B",
"b. c #868B5B",
"n. c #938455",
"m. c #938C54",
"M. c #93845C",
"N. c #9A845D",
"B. c #948B5C",
"V. c #9A8C5C",
"C. c #9A8955",
"Z. c #8B9156",
"A. c #959254",
"S. c #9C9254",
"D. c #93915A",
"F. c #9B925C",
"G. c #9B9B58",
"H. c #92924A",
"J. c #A28A5D",
"K. c #A2935D",
"L. c #A2995C",
"P. c #8D8B62",
"I. c #8C8664",
"U. c #958462",
"Y. c #9B8463",
"T. c #958B63",
"R. c #9C8C63",
"E. c #9D856A",
"W. c #9D8B6A",
"Q. c #968568",
"!. c #9C9263",
"~. c #9D926B",
"^. c #979664",
"/. c #9E9571",
"(. c #908870",
"). c #A28C64",
"_. c #A98D66",
"`. c #A3866A",
"'. c #A48C6B",
"]. c #A98D6C",
"[. c #A48364",
"{. c #A39365",
"}. c #AA9364",
"|. c #A69A63",
" X c #A4936B",
".X c #AA936C",
"XX c #A6986B",
"oX c #AC996C",
"OX c #AB9C65",
"+X c #B19B6D",
"@X c #B1956C",
"#X c #A48D71",
"$X c #A98E72",
"%X c #A08771",
"&X c #A59372",
"*X c #AC9374",
"=X c #A49971",
"-X c #AC9B73",
";X c #AD9479",
":X c #AC9A79",
">X c #A59878",
",X c #B29674",
"<X c #B39C74",
"1X c #B19579",
"2X c #B49B7B",
"3X c #BA9C7C",
"4X c #B89D76",
"5X c #B78566",
"6X c #AAA065",
"7X c #AEA172",
"8X c #B5A174",
"9X c #BAA574",
"0X c #BCA37B",
"qX c #B6A37B",
"wX c #C79272",
"eX c #C2A57A",
"rX c #7E8283",
"tX c #878787",
"yX c #979491",
"uX c #BC9E82",
"iX c #B49982",
"pX c #A29D97",
"aX c #BBA484",
"sX c #BBA484",
"dX c #BCBCBC",
"fX c #ADABA9",
"gX c #C4A886",
"hX c #D9B888",
"jX c #CAA893",
"kX c #EBB696",
"lX c #BEC0BF",
"zX c #D3C4BA",
"xX c #D6D6D6",
"cX c #C7C6C4",
"vX c #E2E1DF",
"bX c #EBEBEA",
"nX c #F8F1EC",
"mX c #FEFFFE",
"MX c #F5EEEA",
/* pixels */
"V M.$X:XR.l.s.u r f 6.6.t t w.B. .G  .F u D a.G H H W.'.R.W.<.*.N.Y.Y.J.*...d p.a.D p.u Z k.[.oX.XV.V.F d y q q ",
"q.W.:X.XB.k.0.f r t t h 7.t.G.s.h u. .d r u g ..U.).).=.Y.=.+.#.....*.n.c.S 2 K a.F X.k.S z.{.-X X%.f.G d g q q ",
"%.'.;X).V.{.d.s.h.8.t 8.7.h w.h.7.y. .j f g u K W.'.-.o.*.=.T.v.l.9...X.X.S s q.n.n.N o.G z._..X}.k. .D j u 0.6.",
"#.O.Q.E.E.&XD.H.h.w.G h 7.8.u.a.y.X. .t r f d j.c.$.%.o.+.%.o.B.!.#.| g N F F F n.#.i N i.z.n.J.N.#.j j K u S G ",
"'.R.).'.Y.%.~.v.p.l.w.a h m.k.X.G j 8.j y.a f x.j.!. Xn.M.#.K B.*XB.F 9.B.p.q.p.| i y a u.B.*.J._.).a.j g d d @.",
"#X`.=.=.).!.!.~.c.F w.t.s.M.....B.m.f.A.F.j h B.=X2XW.$.O.T.~.*X*X~.^.Z.z.x.j.j.S d w.F F F k.}.4X.XK.0.f f S ..",
"$.#.+.X.).XX X$XT.q.j.l.F.XXl.B..X'.F.F.m. .g.v.T.W.M.$...!.XX:X*X`.*Xk.U U.J l.B.T.|.R.e.J c..X,X&XY.R.9.f j.j.",
"R.W.#.+.*.M.H O.S F B.B.C.XX:X1X:X X XD.n.u.p.m.p.p.X.k.k. .k.*X;X=.=.U c.U.v.P.K O.Q..XW.c.W._.}.=.-.). .G c.v.",
"*XW.c.k.#...F q w z.S.m.v. X.X$X;X4X8X!.F.F...B.F.C.f.C.X.G V.2X#XW.R.U.M.[.}.U.l.v.T..X X&X#X`._.Y.-.M.V.R.!.:X",
"'.c.Y %.v.v.z.h s F.OXXX-X%.,.W.Q.&X2Xk.D.V.C.).XX+X{.V.k.G R. XU.U.#X.XY.<.R. XXX8X-X*X#X`.E.,.-.E.'.B.n.!.~. X",
"U.M...B.XX-X!.K q.-XsXaXiXW.T.!...R.uX^.z.V.R.R.-X<X+XK.u.z.).%.%.V.M.!.'.U.].'.;X-XF.!.#X>.=.,.&.M.XXF.D R.4X X",
"E.M.k.a.n.*X&Xb./.aXgXgXuX-Xb.@.b.R.#XXX~.).R.W.2XaXoX{.C.B.{.-.,.|.{.c.m.M.R._.&X'.|.|.U.W.'. X!.v.V.d.N.'.`.3.",
"Y.N.D j V.*X&XT.#X:X#XiXsX~.j.J B.R.M.Y.&X!.U.#X;X$XR.C..X4X'.<.=..X<XC.m. XV.m.z.A.9X9XB.!.K.d.A.F.R.K.N.+.-.-.",
"<.N.#.!.4X1X#X%X;X#XU.%.Y L q.l.v.M.N.k.,.Y.T.W.<.%X#XR.]._.M.N o.].<X{.{.*X<XG.G.OX6XK.oX+XK.A.H.K.R.V.#.B O.-.",
"E.M.R.].#XU.,.E.%X$XU.L w J j.k.V.c.k.R.Y.1X-X#XiX#X~.k.k.k.A.6.#.U.M.Y. X-X<X6XL.<XL.m._.,XL.K.}.K.A.n.C.k.@.O.",
"k.C.E.].W.B $.E.,.,.T.q.s 9.U O.#.O.%.U.=.;X;X;X;X%Xv.G ..V.6XA.K z l I '.<XqX8X8XOXS.S.a.C.S.@X0XV.7.i.}.n.k.e.",
"u.S.|.XXU.F x.R.M.$.@.G Z e.P.l.l.K K K #.;X;X#X*X!.0.F p.V.,XQ.b #   l 1.3X2XE.1.>.L H  .f.g.J.].p.8.f.!.k.a.a.",
"7.{.|.F.z.p...N._. XM.X.j.Q.;X XR.l.9.C j.*X,X).B.|.^.M.p.k.,.v 7 ^ $ > 1.1XY.v : ; % 1 | a.f.n.R.G.h.m.R.B.g r ",
"d.XXF.m.z.i.i.g.V.N.M.#.k.;XaX2X'.l.q.j.M.n.m.a.G F.V.k.j.S , 4 -.uXP , &.<.v 7 6 ^ * ; N C.g.C.V.K.}.n.D g t 7.",
"V.).V.F.B.u.y.i.f.g S c.R.&X&X'.W.v.M.XX{.p.6.u...f.@.@.J < + W 5XfXR ; v c % = E ' 0 z #.}.J.K.K.K.a.X. .j j f.",
"<XoXJ.C. .G G G g j u.B.Y.H O.U.U.c.k.E.&XA.0.H.m.d.k.F.l.< + W ^ T k . o o . @ * , v U B._.@X<XeX@XF.a.n.n.a.a.",
"<X@X}...u d y q u  .m.!.'.V.Y m #.XXXXM.W.R.0.u.n.!.F.B.%.1 + W ~ 6 8 8 8 8 8 8 7   z e.F.).).2X0X4X,X}.N.V.B.K.",
",X<XXXk.S i y y g f.X.R.XXV.B 1 Y 8X-X#.M.k.s.u.k.#.#.M.L 3 @ W _ ' ] [ [ ] 5.] ^ & x r.b.^.B.OX3XaX*X_.R.E..X*X",
"].0X=Xb...s s g |  .N.*XR.M P R P V n.'.R.D.9.u g D D j.C : + 5 ( ^ / ` ] ] ` ^ * % M P.P.Z.l.{.4X*X.X<X,X*X,X@X",
"n. X/.r.9.C C i q i V.R.>.x tXfXT : O.`. XD.0.a q j 0.h i 3 $ W W 4 ( Q E 5 6 = $ , b &.U.r.9.T.).{.<X,X2X,X$X.X",
"#.M./.P.A s F K s w.B.I x (.cXxXR : $.O.T.D.h.h.t t 6.q > 4 E ~ _ ' 5.' 7 @ * / :.:.0 z $.b.A I.T.-X<X].].*X'.=.",
"B.R.T.^.r.t.l.C.d.^.W.z k 1.zXvXtXo v v m x.z.w.8.t j q % | 3.3.wXkXkXjXyXtXyXjXkXkX1.; Y :X~.P./.:X'.R.&X:XW.F ",
"oX.XW.P.P.=X!.OX{.XXE.n + ^ wXcX(.% > > , I K w.g f a 2 % T pXfXxXnXnXMXbXbXbXnXMXxXtXz I `.,X:X>X X[..X&X&X/.I.",
".X<X:X~.^.sXqX7XoX].<.n + W :.:.:.| ' / ^ 9 : : > > >   . k R fXxXmXmXmXmXmXmXmXxXtXI >.Y.=.Y.*X;X=.#.Y.,X4XaX*X",
"'.=XsX=X7XsXXXoX,X`.<.n + W ! ) ] 4.4.} ] 4   + # # # # # @ l R fXlXdXdXdXlXlXdXpXP m U.).N.=.&X*XM.D a.+XhXhX0X",
"!.-X<X=X&X X&XXX$X`.&.c # 5 Q ) ] 4.} [ Q # + 5 E E E E E E W l l x x x x x x x P &.x.D *.N.Y.&X.X{.B.R.V.eXhX9X",
" X~.=X*X XR.&X'.J.R.H P b = 5 Q ` ` ] Q 4 $ 5 Q ! ! ! ) ` ] ] ( 6 0 2.yXyXT o k Y '.).k.#.M.Y.*X2X{.@X8X{.6XhXeX",
"M.~.>X X-XoXV.V.n.K q.U.W.v 7 W E E E = + 6 Q ! ! ! ) ` 5.4.{ { { wXzXvXxXrX; n `.!._.B.k.=.`.*X2X.X.X<XqXsX<X<X",
"qX2X&X-X<X:XC.f.K N B.8X<XU.v * + # #     5 ! ! ! ) ` { 4.4.{ ] :.jXzXdXrXl o I `.V.M.=.X.*.].'.&X}.G R.qXqX<X+X",
"sX0XXX+X.XM.n.m.u...F.d.H.L.$.c l l l k @ W Q 5 6 6 ( / :.] ] ( b rXtX>., @ % I W.).W.'.X.;.N.Y.N.V.F B.*X*X<X<X",
"8XgX8XOX{.n.g.|.m.B.B.H.S.J.B.%.>.E.Q.z & = 5 +   @ & % * / ' 4 o ; k , 6 = % M O.Y.Y.E.=.=.*.N.B.{.v.{..X_.oX.X",
"7X8X<X+X{.K.J.OX{.8X+XK.L.+XL.k.=.`.W.z % # , . O . O O . z b & X 1 ; @ , , % v #.N.%.+.*.N.<.Y.N.k.k.C.J.R..XXX",
"F.)..X9XV.k.J.K.|..XOXS.}.4XF.d.#.U.T.z . . X o o o - : > ; k o 1 O.m k k X X m +.=.B.k...M.Y.).n.o.D S N.#.#.c.",
"K H R.9X!...n.S.S.K.|.S.V.C.k.{.z.U j.<   O > w l - P >.&.< o . 1 U.&Xm ; . X m @.N $.B.q.K n.[.n.k.G D J.k.F D ",
"p.Z j.T.F.z.n.A.d.R. XF.m.m.B.R.$.J C w < > v $.V c &.Y.W.I z 1 V E.`.,.v l 1 O.P.k.R. Xk. .X.n.k. .F G M.k.F K ",
"^.b.q.k.{.7XXXV.k.B.T.k.m.*X*X#.M F ..$.r.U H #.c.O.n.M.&XU.=.M.| +.<.<.=.Y ..V.-X-X*X X..D p #.K i y a.#.X.K c.",
"+X7XT.B.).).).%.U.XXOXV.!.*X-Xm.j.k.R.#X:X~.l.$.O.M.B.%.Q.T.&.O.H +.-.-.R.X.S p. XiX&X~.e.F D p C s J n.K D C k.",
".X2XW.N.K.Y.R.=.<.Y.4X+X).oXoX-X XY.#XaXuX.XT.j.U ,.U.'.*XT.$.D o.@.%.`.Y.#.m.}.;X;X<.=X^.s.m.p.F F a.a. .f.u u ",
"N.N.Y.Y.XX+X{.].,.+.).@X+X<XuX3X1X%.O.`.&X&Xv.w.9.G o.2XaXT.@.K H x.U =.Y.Y.*X1X&XE.=.Y.v.K c.a.q. .n.V.| #.K Z ",
"V.Y.oX.X}.*X4X_. .p F.8X0X+X,X1X2XT.U c.W.W.l.0.e Z R.gXsXj.y F %.T.P.$.=.Y.$X,.$.W.Y.$.U k.U.U j...p g p o.K q.",
"}.oX<X.X).R..XN.h.i.F.{.XXXX].`.,X].Y.U.U.U.c.e.A e.T.aX2Xv.J K U.Q.W.c.R.,X$XB Y W._.Y.Y.M.c.r.b.S 9 y u u.0.A.",
"{..XR.E.W.R.N.k.!.6X<X{.C.,X].<.=.`.<X<XXXT.j.b.T.T.x.P.W.T.e.J L Y $.c.].$XU.J @.'.].3.-._.!.b.k.B.z.9.u u.m.B.",
")._.R.E.#XT...a.).4XeXoX<XjX1XM.J M.eX0X-XqX-X X XR.~.=X XI.K A C J U c.=.I V U O.Y.[.,.<.).R.b.L c.XXm.Z ..n.;.",
"J.N.<.;X&XU.F G p.R.}.k._.,XN.g G !.eX,XY.,XgX1X;X;X'.'.).E.U.T.R.z.@.K V i L A M V -.=.Y. X#X~.D.$.`. Xq.C #.J.",
",X_.).1X;Xk.w.z.a.m.p.t g a.q.f D XXXX`.3.$XiX1X;X*X&XU.=.Y.'.*XoX).Y.@.M A v.W.K 9 B %.E..X].2X<XXX X Xc.x.{..X",
":X.X.X$X*X!.^.V.x.j.h e q.d.9.w...U.Q.<.3.uXiX1X$X[..X'.N.=.[.1X2X.X).j.c.B.).*X}.U B B %.].).]..X.X&X&XW.'.]..X",
"E.R.].*XR.m.L.%.U Z.l.l.Z.f.9.z.k.~.W.M.[.iXiX#XW.Y.B.U.n.N.N.W.:X@X{.F v..X{.)..Xc. .S K k.k.).'.W.W.E.#X`..X_.",
"+.Y..X<XM.G a.p.c.{.B.G 9.Z.s.d.m..XY.#.a.I.>X,.<.#XB...D #.M.].]._.R.z.z._.).*.K H  .K J K k.R.N.R.Q.%.<.1.`.R.",
"=.]. Xk.u.u.d.m.F.n.n.u j C.F.D.i.C.M.F p.w.$.%.<.$X'.{.V.n.#.Y.'.M.B.{.M. .*.V.j.g K !.^.^.T.N._.-X.XY.,.+.<.`.",
"W.`.].p.7.i.m.V.M.#.k.F K  .A.L.H.f. .d e w q C T.:X&X}.E.M...*.*.=.V.%.X.D D n.M.K K R.oX8X XN.).oXXXY.H k.M./.",
"'.'..XV.d.0. .k.@.G u.d g 6.i.G.S.G.p.f f q q 9.#X;X].M.=.'.n.*.-.Y.[.n.....S X.*...u ..V..XN.).oX{.C...s q.j.b."
};
