/* XPM */
static char *path1674662301[] = {
/* columns rows colors chars-per-pixel */
"56 56 243 2 ",
"   c #4B5828",
".  c #52572B",
"X  c #5C5E34",
"o  c #585A32",
"O  c #635B3B",
"+  c #795F3F",
"@  c #576729",
"#  c #57732C",
"$  c #5D6D35",
"%  c #596736",
"&  c #5B7234",
"*  c #5C713B",
"=  c #4F602A",
"-  c #62672D",
";  c #63732D",
":  c #627B2C",
">  c #697E2E",
",  c #626435",
"<  c #646C36",
"1  c #6B6B36",
"2  c #63643B",
"3  c #6B643B",
"4  c #646C3A",
"5  c #6D6D3C",
"6  c #74683D",
"7  c #647335",
"8  c #6C7335",
"9  c #6B7A33",
"0  c #64733C",
"q  c #6C733C",
"w  c #6B793B",
"e  c #657938",
"r  c #72723B",
"t  c #737A3D",
"y  c #7C7B3C",
"u  c #747A37",
"i  c #625F41",
"p  c #5A7045",
"a  c #6B6C43",
"s  c #6A6744",
"d  c #736C42",
"f  c #7B634D",
"g  c #756A4A",
"h  c #7B6D4B",
"j  c #766545",
"k  c #657442",
"l  c #6C7342",
"z  c #6C7B43",
"x  c #697848",
"c  c #747443",
"v  c #7B7544",
"b  c #737A44",
"n  c #7B7B44",
"m  c #74744A",
"M  c #7C744B",
"N  c #747C4B",
"B  c #7C7B4B",
"V  c #7D6E53",
"C  c #766A50",
"Z  c #7D7452",
"A  c #7D7C52",
"S  c #797755",
"D  c #816B4C",
"F  c #826E47",
"G  c #827445",
"H  c #837D46",
"J  c #83744C",
"K  c #8B744D",
"L  c #837C4C",
"P  c #8A7D4D",
"I  c #887C46",
"U  c #92784F",
"Y  c #856E53",
"T  c #886D55",
"R  c #847453",
"E  c #8B7554",
"W  c #847C53",
"Q  c #8B7C53",
"!  c #8C745A",
"~  c #857D59",
"^  c #8C7C5A",
"/  c #877458",
"(  c #927C56",
")  c #93775D",
"_  c #937C5C",
"`  c #997C5D",
"'  c #957657",
"]  c #8E7D61",
"[  c #947C63",
"{  c #9B7C62",
"}  c #997A68",
"|  c #A37F64",
" . c #6A832F",
".. c #6E8637",
"X. c #73833A",
"o. c #7C833D",
"O. c #778838",
"+. c #788D34",
"@. c #688244",
"#. c #738344",
"$. c #7D8344",
"%. c #75844B",
"&. c #7B834C",
"*. c #7D8A4C",
"=. c #788C41",
"-. c #7E9148",
";. c #7D8452",
":. c #7C8A53",
">. c #838B3F",
",. c #848245",
"<. c #8A8446",
"1. c #838A43",
"2. c #83844C",
"3. c #8B844C",
"4. c #848D4D",
"5. c #898B4C",
"6. c #928C4C",
"7. c #92824F",
"8. c #89944A",
"9. c #96924C",
"0. c #848353",
"q. c #8C8353",
"w. c #848B53",
"e. c #8C8A55",
"r. c #84825B",
"t. c #8D835B",
"y. c #848B5A",
"u. c #8C8B5B",
"i. c #938454",
"p. c #9A8655",
"a. c #938B54",
"s. c #9B8E55",
"d. c #93835B",
"f. c #9A845D",
"g. c #948A5C",
"h. c #9B8B5C",
"j. c #869254",
"k. c #8C9354",
"l. c #8B9A51",
"z. c #88925B",
"x. c #939254",
"c. c #9C9255",
"v. c #9B9A54",
"b. c #94925C",
"n. c #9B925C",
"m. c #9D9A5C",
"M. c #949B55",
"N. c #A38A5D",
"B. c #A88C5D",
"V. c #A3935D",
"C. c #A39A5D",
"Z. c #A19357",
"A. c #9BA058",
"S. c #8FA14E",
"D. c #8E8462",
"F. c #8D8B62",
"G. c #858D61",
"H. c #948362",
"J. c #9B8463",
"K. c #948C63",
"L. c #9C8B64",
"P. c #9D846A",
"I. c #9D8B6B",
"U. c #978869",
"Y. c #8D9265",
"T. c #949362",
"R. c #9C9363",
"E. c #9D9B64",
"W. c #9C946B",
"Q. c #9D986B",
"!. c #919A61",
"~. c #9D8C71",
"^. c #9E8574",
"/. c #9F9571",
"(. c #9E9970",
"). c #A38564",
"_. c #A28C65",
"`. c #A98D64",
"'. c #A2856A",
"]. c #A48C6B",
"[. c #A98D6B",
"{. c #A39465",
"}. c #AA9365",
"|. c #A49965",
" X c #AA9A65",
".X c #A4936B",
"XX c #AB946C",
"oX c #A49A6C",
"OX c #AB9B6D",
"+X c #B1956D",
"@X c #B29C6C",
"#X c #B49769",
"$X c #A58C72",
"%X c #AB8E73",
"&X c #A68975",
"*X c #A69373",
"=X c #AC9374",
"-X c #A79A73",
";X c #AC9B73",
":X c #AD947A",
">X c #A59A7A",
",X c #AD9B7A",
"<X c #A59278",
"1X c #B29574",
"2X c #B39B74",
"3X c #BA9D75",
"4X c #B2957A",
"5X c #B39A7B",
"6X c #BB9C7B",
"7X c #B89778",
"8X c #B78B68",
"9X c #9AA867",
"0X c #ABA26A",
"qX c #A7A264",
"wX c #AEA274",
"eX c #A7A179",
"rX c #B3A174",
"tX c #BCA375",
"yX c #B5A27B",
"uX c #BBA37C",
"iX c #BBA97D",
"pX c #C19A78",
"aX c #C3A57E",
"sX c #C2AB7B",
"dX c #C9AA75",
"fX c #B59A82",
"gX c #BB9E82",
"hX c #B29680",
"jX c #AD9580",
"kX c #BCA383",
"lX c #BBA786",
"zX c #A8A180",
"xX c #C4A484",
"cX c #C3AB84",
"vX c #C2A68A",
"bX c #C5AB8C",
"nX c #CBA789",
"mX c #CAB18B",
"MX c #D7B68A",
"NX c #C8AB91",
"BX c #D1B296",
"VX c #CDB497",
"CX c #EDC891",
/* pixels */
"s J.$X4X_.*.w.r 3 r $.X.# # t ).H B H n 8 M e.b M g P.XXL.^.'.E f.{ I.`.( 0.l &.q.v q., x Q J.XX2Xd.{.w r ,   % ",
"%.L.:X=Xt.e.n < @ > # y O.S.9X*.t H v 5 7 3 a L J.R.XX' J.' h ^ n W Q ( t.c   W q.q Q u.l g.{.OX].Q P c w n . # ",
"~ 4X:X_.g.}.5.8.l.: ; X.+.1 *.l.+.H 3.8 r c 4 B '.$X) m E J.oXu.;.#.W I Q q l %.a.f.+ K b 5.V.XX}.q.v v w 3 g.=.",
"W g } H.$X:Xk.e.-.-.n t o.7 n q.b 3.<.9 - 7 w A u.S / K E ! F t.OXK J 6 + c #.l p.f.o G 5.4.p.` J.Q y t q.4 r m ",
"].h._.%XH.V (.u.2.j.*.& l m.f.M b 8 > u ,.X.w D.m I.-Xt.i.q.m t.1XT.0 x E.2.B 2.F o 4 7 L .XK N.`._.q.u 5 c 8 ^ ",
"%X&XJ.Y XXR.R.I.d.a w.@.4.p.m L g.c.5.x.C.1 r u.eXkXU.~ R K.oX=X:XI.9Xe.w.W r.0.c < *.w z l q.+X3X=XV.y 1 e l r.",
"W V R L _.oX.X%XW.&.y.3.m.OX;.u.=XI.n.R.i.<.h.e.W.f.J.0.m }..X5X=XJ.yX^ M I.x w.L.oXwXL.;.l K.[.1X=X` .X#.7 u.W ",
"H.-XK Q ' L.s ) a 0 h.d.d.OX2X5X,XL..Xb.3.y 2.b.$.L J i.u.n L *X4X/ ) m u.[ g.F.h g ] 2XW.~ I.].`.^ / 1Xr b t.r.",
"5XW.u.t./ J #.  % e.c.a.w.XX=X$X,XyXuXT.n.|.m h.a._.y _.M r n.6X^.I.W.f.H.| #Xr.y.z.K.XX.X<X&X'.=Xf./ f._.N.T.lX",
"_.D.C Q y.e.e.$.$ m. XR.yXY ] P.[ :X5XL b.h.i.[.].rX}.h.g.b _.*X] H.=XXX` ) L..X.XuX;X.X$XP.'.) ' '._.g.e.].R.P.",
"] K.v f.yX;X].b b =XkXbXgXK.K.;Xd L.vXT.u.p.{.H.;XXX3Xc.n q.=XJ i.g.t.{..X] XX].=X7Xf.L.<X/ ^ [ Y t.;X{.1 I.kXXX",
"].! e.q.2.:X*X:.-XvXbXkXfX,Xy.Z u.L.'.-XR.].K.H.kXcX{.@X6.a.XX/ } oX|.W h.t.I.[.=X].C.|.~ /.*X[.W.w.h.P f.OX} { ",
"{ {.d r h.=X:XH.$X:X$XgXNXW.0.l z..X! _ 5XR.t.:X:X'.I.i.1XxX).&X' .X3Xh.3..Xd.5.0.8.dXxXg.E.h.>.x.c.h.{.N.T | ) ",
"{ J.2.{.uX4X$XP.<X*Xt./ V s 0.w.u.^ _.3./ P.D.P.} ^.&Xg.]._.f.3 h _.kXa..X:X5Xv.m.0X Xs.}.rXV.x.9.V.I.J.Q s / ' ",
"P.t.P.%X'.D.] P.'.4XK.a % %.;.0.L.u./ Q.f.gX;X$XjX:XR.^ i.W M.9 d.OX{.}.XXOX2X0Xx.sXv.6.1X=X Xc..Xn.c.3.g.a.W R ",
"3.h.f.'.'.g A &X! [ W.0.* %.M R E Z _ J./ 5X$X*XhXJ.K.b H N.qXx.m.2XaXtXuX,XuX3XwX{.V.c.H p.6.#XnXn.+.n 2XU W %.",
"y C.c.wXI.l r.'.H.Z A m p :.K.0.y.m N B W hX$X$X=X.Xw w q.L.6XaX|.g.2X X1X6XkXyXBXlXa.c.y 6.<.).&Xn : 5.{.0.q.a.",
"X.|.0Xh.<.&.0.( XXXXg.J Q U.,XW.L.j.%.4 W 1X6X].g.m.E.J.2.L 6XpXL.d..X[.| fX=Xh.yX6XcX}.p.I <.a.].v.8.a._.L.c @ ",
"3..X_.5.x.&.,.a._.f.` 3.t.:XvX6X.X&.&.B i.i.i.q.q OXg.^ e.h.a.P OXBX6X} '.gX].yXkX4X5Xs.6.N.I h.p.n.@Xg.r 8 @ 1.",
"g.{.g.m.h.H >.1.3.1 q u.J.:X=X'.~.K.K.2XXX#.X.,.L I L S ;.w & 7 `.pX3XI.] | J.6X4XW g.T.V.#XV.h.V.p.P G Q r y 2.",
"3XXX_.f.2.v n 2.r t =.L.P.s m U.H.~ A H.=Xx.#.s.a.5.2..Xb.%.* k H i.J 2.l H.6X3X].r.A T.V._.3X#XcX XR.P ^ g.<.<.",
"2X+XXXn 3 r <   q I p..X].{.^ ! g.|.2X_ I..X#.$.p..XR.a.L.e.k.b.*.#.< 2 u.2XaXtXuXz.;.r.R.L.).2XdX6X7X{.d.I.a.{.",
"1X7X{.e.m % 4 < c 3.G T.{.C. X8. XmX#XP ^ &.j.2.i.E R { L - #.e.b &.2.~ uXiX6X.XuXT.G.%.y.Q.i.XX6XxX].[.i.J.XX=X",
"J.cX-Xu.W 7 * J G I h.%X;Xv.A.m.rXv.h.]._.R.r 1 d n v u.k c m.j.b Z.c D.h.].| | lXOXT.T.T.z.:.{.yXXX_.uX2X=X7XXX",
"P XX*Xx ;.q k O   . [.;X5X0XM.3XsX1.h.^.,Xe.*.e @ q 4...v / 3.n.a.<.{.<XH.[ } [.xX6X$XJ.H.:.x L.I.h.2X5X1X1X.X=X",
"J K.>XG.x * c P 0 %.R.OXrXrXqXn.V.V.}.h U.b.8.l.> : X.9 - w 8.|.v.<.=X'._ ` 7XgX4XjX:X.X.Xr.p F.K.2XaXJ.$X[.%X_ ",
"u.K.D.(.%.@.u.c.2.|.oX7X6XcXkXVXn.g.}.R.K.K.e.O.9 ; t X.: ; 4.C.9.o.].M q.W xXvX:X&X7X<X=XyXQ.G.~.>XL.)..X5XL.k ",
";XXXL.K.:.eXg. X{.}.'.gXgX7XkXNX@X@X.XwXL.K.2.j.2.r +.1.S.j._ V.v.a.L $ m.z zX~.4X%X].5X~ P.=XlX>X=X).OX=X~.-Xr.",
"1XOX>X*XY.lXuXuXOX].'.%X6Xi.|.1XcXtXA R 7X$Xl ;.#.8 o.@ b 9X#.r q.a.w < s #.(.{ E I.( +X[.E f.=X:X' R ` :X3XbX=X",
"L.*XlXW.yXbXoX{.7X{ '.fXXX.XBX1XI.L.#.O R ;.&.0.@.4 2.$.2.l. .H H m 8 m   . s ) J.%Xr.L._.d.{ $X>XH.r 2.@XMXMXyX",
"R.5X;X;X.X_..X*X,X].! '.J.XXuXI.Z e.8.. = 0 e.e.-.k.h.g.J v 1.,.y r w d 8 # k t.$X$Xg.d E _.) =XXX Xf.g.( dXCXOX",
".XT.oX=X*Xu.:X].` XXb h ;XaX2XI.r.b 0.& e.c.{.Q }.;XL c q.b M a.v 9 < 5 y.#.L.5X5XXX.XL Q d.J.=X5XL.+XaXR.E.mXdX",
"^ ~.>XR.;XrXQ R.a.M &.t.uXpXsXyXY.2.&.0.OX Xa.4.h.,Xz.0.g.x.7  .; 8 v < c M Z [ %XL.XXL.q.f.P.%X1X1XOX3X5XbX1X2X",
"uX2X/.2X;XfXh.H &.3 R.uXaX3XoXlXW.H.,X5XlXuX,X;X_.=X6X2X:X.X6.,.y 8 7 1 W ].g.W %Xi.^ ) J E 1X_.OX+X, .XlX,X2XOX",
"iXiX].OX@XQ q.a.,.A |.o.9.c._.,XI.P.P.bXkXlXvX[ C $X&X:XL.g.{.m.N.9 e 0.r.$X%XXX).I..X*Xn E ` H.^ R.w K.;X].uX3X",
"XXmXaX{..Xi.<.@XH L.i.5.v.h.Z.d.^.4X<X] 4XlXfX/.T..X} 5X2XOXe.e.3.- B r.B S R R M { [ $X' _ ( f.g.OXu.|.XX_.`.].",
"rXyXXX@X{..Xh.2X{.rXtX}.c.2Xs.w.] P.&XW } lX*XF.~ H.d =XyX{.b.,.2.h.e.Q.W.:X_ J ( { P Y ( J._ '.J.Q i.p._.f.+XoX",
"n.].XXtXh.P ).Z.`.OX|.6.#XnXR.5.W P.K.c % s A B N u.t.vX*Xn E.{.t g.g.<X2XW.g.E R { R.r.H f.J.L.q.G m 3 N.W E t.",
"v a {.sXT.H g.c.c.n. Xs.p.g.L OXe.m T.l k %.0.&.0.T.].%XE.w.{.g.v I.cXL.J.^ V g.W j M K.%.c f._.^ q.v c .Xe.x n ",
"W k W K.b.2.3.s.8.P.|.{.3.e.i.I.r.B 2 * @.m L T.u.f.J.^ .XL.h.a.[.XXP.].D.K.d H.T.0.L.@XW 0.K ( Q q.#.M ' i.q B ",
"|.w.N 0.|.iX XL.Q a.d.W a.-X4X/ O %.L F.y.D.Z E b.R L._ ,XK.P.OXD ) ` | P.E x.{.rX-X=X.XJ M 6 f.&.X % w.E Q N g.",
"OXyXK.K.h.).I.Q H.wX Xh.g.7X;Xe.0.W H.P.hXT.;.Q R H.b.J [ K.T / d Y ` Y .XL 1 v U.gX=XW.%.0 d 3 l 0 M h.c M 2 L.",
"[.5XI.` _.` L./ } f.aX2Xf.OXOX;X.XI.=XNXkX.XL.;.m [ )._.5XH.Q m R W ] &Xf.L a.OX=X:X) ;XqX*.{.3.b z 3.B n q.1 2 ",
"_ d.f.d.OX2Xh.7X[ D J.OXXXuX6XgXhX/ g I.$X1Xu.*.%.B s 4XbXT.r.N D 0.m [ H.J.7X:X:XP./ '.D.b i.W 2.n p.@XF ( ;.z ",
"L.J. X2X_.;X6X[.v 3 |.rXaX@X1X%X6Xg.Z t.I.I.0.&.% z R.NX,X&.O m ^ W.u.! [ { $X[ S I..XR x K.D.A A Q j m O ( d &.",
"{.XXuX_.{._ =Xf.l.O.T.{..X|.[.'.6X].H.t.] t.H.;.x ;.u.NXkXu.z B I.[ :X:.K.7X4Xj m I.].J.U.' t.z T.$ o % < 3.#.h.",
".X;XJ.J.].L.J.L {.qXuXh.q.5X| } ) I.3X2X-XK.b y.K.L.A ;.I.U.0.%.m S ! ;.1X%XH.N ~ '.[.| ' 8XE.F.d.R.z.#.< <.a.c.",
"d.XXJ.H.&XK.B q..XpXnX}.yXnX6XL.l ^ aXuXwXkXwX=XI.H.;XeXW.D.m x s l ;.D.] f C :.T ].{ [ ) I.u.G.2 ^ 3Xa.k u.d.E ",
"B.` [ :X.XR.w M B h.}.H +X3Xf.6 b Q.nX=X` 7XxX=X:X=XI.$X[.J.D.K.W.u.^ N s X m x % f } ] J.].:XT.!.R ]..X;.% W B.",
"2X_.J.5X=X/ #.u.3.a.0.# r P &.7 d wXR.'.{ =X4X:X%X4X<Xi./ J.'.5X}.L.L.R s x K.*XM . Y ^ _.1X'.6XrX-XXX.X~ t..XOX",
"5XXXXX%X=XR.E.I.A :.0 % N e.w w.B ] H.{ | xXgX:X=XJ.XX=X)._ ` 5X3XXX_.Q K.t.I.XX1X&.h h R =XL.].].*X].>XP.].).+X",
"J.J.$X=Xf.x.|.P Z u.z.j.x.e.z c.,.-X$X^ | xXjX%X'.J.q.u.( N.H.J.:X;X.X& u.2X_.).2Xr.L s W t.Q _._.].$XH.&X&X+X_.",
"D J..X6Xg.5 q.H e.{.h.n w M.#.3.3.2X` Q L r.zX! _ <Xg.M 6 q._ ].XX]._.b.0.@X).( M m P c x N 0._._ f.H.Y P.) ].J.",
"_ ].=XP ,.2.q.k.R.a.J., c V.n.m.,.h.U.< n.@.D.! { %X]..XR.p.E ].'.^ q.XXh.d U R.;.q b |.!.T.L.` XX2XOXI.! Y } ).",
"I.].`.&...6.i._.d./ t.b R m b. X9.o.P e % $   k K.:XXX].J.) c K U ` ].L J c q N.d.L &..X2XkX].t.L.XX.XI.h g.t.>X",
"P.[.1XR.5.b n 3.Q r 2.e r X.1.m.v.C.2.< n = @ &.%X:X].g.^ *Xg.( J._ J.f.L 3.l K E Q 2 B d.}.d.L.OX Xi.B $ 2.&.y."
};
