/* XPM */
static char *My_project_1_11_1675078425[] = {
/* columns rows colors chars-per-pixel */
"56 56 245 2 ",
"   c #53601B",
".  c #545E2E",
"X  c #6C5F3C",
"o  c #596629",
"O  c #5E6733",
"+  c #5F722E",
"@  c #65672E",
"#  c #67772C",
"$  c #646B34",
"%  c #6B6D36",
"&  c #646D3A",
"*  c #6B6D3B",
"=  c #666231",
"-  c #736E3D",
";  c #7C6C3D",
":  c #6C7235",
">  c #65733A",
",  c #6C723B",
"<  c #697838",
"1  c #74743D",
"2  c #757A3D",
"3  c #7B7A3D",
"4  c #767539",
"5  c #735C5C",
"6  c #6C6A45",
"7  c #786C49",
"8  c #6D7241",
"9  c #6F7A42",
"0  c #6F7448",
"q  c #747343",
"w  c #7B7543",
"e  c #757A44",
"r  c #7B7B44",
"t  c #7D754B",
"y  c #757C4A",
"u  c #7D7B4A",
"i  c #6D6358",
"p  c #79685B",
"a  c #7C7353",
"s  c #7D7A52",
"d  c #7A7756",
"f  c #6C4D6C",
"g  c #67476B",
"h  c #714C6E",
"j  c #6B5368",
"k  c #755C64",
"l  c #77596A",
"z  c #664573",
"x  c #6A4575",
"c  c #6C4A75",
"v  c #6C467A",
"b  c #6D4A7B",
"n  c #664675",
"m  c #724D75",
"M  c #724C7D",
"N  c #71477E",
"B  c #6D5375",
"V  c #735374",
"C  c #74517C",
"Z  c #7A547E",
"A  c #7D5C72",
"S  c #7B6465",
"D  c #7D646A",
"F  c #786662",
"G  c #7C7463",
"H  c #7C6574",
"J  c #827545",
"K  c #827A45",
"L  c #897C45",
"P  c #83754D",
"I  c #837C4C",
"U  c #8B7C4C",
"Y  c #8A754D",
"T  c #917D4C",
"R  c #866E5B",
"E  c #847553",
"W  c #8B7554",
"Q  c #857C53",
"!  c #8C7C53",
"~  c #8C7B5A",
"^  c #88795B",
"/  c #927D55",
"(  c #937C5B",
")  c #997D5D",
"_  c #967759",
"`  c #806F41",
"'  c #846969",
"]  c #8E7B6C",
"[  c #897467",
"{  c #937D63",
"}  c #9A7D63",
"|  c #937A6D",
" . c #836673",
".. c #896A78",
"X. c #936E7B",
"o. c #987B76",
"O. c #8E7570",
"+. c #6F8234",
"@. c #7C813E",
"#. c #77843B",
"$. c #748145",
"%. c #7D8344",
"&. c #7F8B44",
"*. c #7B834B",
"=. c #79864B",
"-. c #7C8352",
";. c #7C8754",
":. c #6F824B",
">. c #8E8F3F",
",. c #828345",
"<. c #848942",
"1. c #83824C",
"2. c #8B834D",
"3. c #84894E",
"4. c #8C8B4D",
"5. c #888447",
"6. c #91854E",
"7. c #928B4D",
"8. c #988C49",
"9. c #88944C",
"0. c #848353",
"q. c #8C8353",
"w. c #858A54",
"e. c #8C8A54",
"r. c #85845A",
"t. c #8D845B",
"y. c #868A5C",
"u. c #8D8B5B",
"i. c #928454",
"p. c #9A8555",
"a. c #938B54",
"s. c #9B8B55",
"d. c #94835B",
"f. c #9A845D",
"g. c #948B5B",
"h. c #9B8B5C",
"j. c #889156",
"k. c #929054",
"l. c #9A9254",
"z. c #95915A",
"x. c #9C935B",
"c. c #999B58",
"v. c #93964F",
"b. c #A38A5D",
"n. c #A5885E",
"m. c #A3935C",
"M. c #A5995C",
"N. c #AA905D",
"B. c #A09A4C",
"V. c #8F8362",
"C. c #8A8C64",
"Z. c #948463",
"A. c #9A8463",
"S. c #948B63",
"D. c #9C8B63",
"F. c #9C846B",
"G. c #9C8C6A",
"H. c #938A6A",
"J. c #959163",
"K. c #9C9263",
"L. c #9C936A",
"P. c #999867",
"I. c #9C8476",
"U. c #9F9073",
"Y. c #A28465",
"T. c #A28C64",
"R. c #A98D65",
"E. c #A48569",
"W. c #A38C6B",
"Q. c #AA8E6B",
"!. c #A9876E",
"~. c #A39364",
"^. c #AB9364",
"/. c #A59A64",
"(. c #AC9962",
"). c #A4936B",
"_. c #AB946C",
"`. c #A49A6C",
"'. c #AC9B6C",
"]. c #B1966C",
"[. c #B29B6D",
"{. c #A48C72",
"}. c #AA8D73",
"|. c #A88A79",
" X c #A59372",
".X c #AB9473",
"XX c #AC9A73",
"oX c #AD937B",
"OX c #AF9C7B",
"+X c #A49875",
"@X c #B29573",
"#X c #B39B74",
"$X c #BA9A75",
"%X c #B49B7B",
"&X c #B8987A",
"*X c #B18F6D",
"=X c #AAA269",
"-X c #B2A56C",
";X c #ACA278",
":X c #B3A274",
">X c #BAA274",
",X c #B3A27B",
"<X c #BBA37C",
"1X c #BCA979",
"2X c #C3A47C",
"3X c #C6AF7D",
"4X c #6D4C82",
"5X c #744E82",
"6X c #774E8B",
"7X c #765283",
"8X c #795385",
"9X c #7B5985",
"0X c #76538A",
"qX c #7C5689",
"wX c #7E5A8A",
"eX c #774F92",
"rX c #7F6187",
"tX c #825C8C",
"yX c #815A86",
"uX c #845E93",
"iX c #84638C",
"pX c #856292",
"aX c #896493",
"sX c #8B6B95",
"dX c #896799",
"fX c #926D9D",
"gX c #93749D",
"hX c #967995",
"jX c #92728F",
"kX c #A17D89",
"lX c #9B7AA4",
"zX c #9574A1",
"xX c #A79A86",
"cX c #B69D85",
"vX c #BCA281",
"bX c #BCA887",
"nX c #B9A797",
"mX c #9F80AA",
"MX c #A486A6",
"NX c #A98AB2",
"BX c #AD94B6",
"VX c #B49AB7",
"CX c #A49D93",
"ZX c #C3A985",
"AX c #D8BC8E",
/* pixels */
"t.-.-.% J p.~.'.D.f._.h.P 1 Q P K 8 0.L / W.h._ i./ A.A.f.D..XE.;.o   9 , %.c.B.v.9.#.: 2 1.J u q.K #.<.z.].!.A.",
").u.! J h.~.).h.f.D.XX`.J.u I g.d.q 1 J / Z.( R h x v V o..X.X{.6 o + & , r 4.7.M.k.K 3 w 0.! i.a.7.4.2 1.T.W.G.",
"A.( W ~ A.).XX^.f.h.J.J.g.t w 1.A.T L t.S.A.' l g 5XeXm k | W.~ E y.y 3.q d.a.4.l.z.z.w , I f.h.a.a.K 3.g.W.E.Z.",
"T.E.} F.^ A.f.) T.0.-.*.u r P u ) n.D.u.e._ A v M m Z 7Xm A | f.{ U.V.! U } ).4.i.1.e.K *.u.D.d.U 2.r 2._._.} W ",
"E.@XE.|.F.W.W.W.D.d.! P q u t.~.n.N.).y.I p x n 6XqX9XqX6XN l T.oXoX&Xn.~ G.).e.j.#.3.3.=.j.e.1.2.x.a.h._.).E.) ",
"*XQ.G.A.{.{.).).).T.T.( t q t W._.D.Z.0.d A x v 7XiXaXaXtXM A |.oXcX&XR.( A.S.J *.$.3.r < < u *.z.J.K._..X{. X$X",
"^.D.t.r.)._.).XX.X.XW.} ~ 7 X s D.r.0 7 k f n 8XaXZ qXfXuX8XV  .|.&X$X) .XD.).w 1 r q.` < 3.e.5.0.1.q..X}.W.T.@X",
"T.2.> u D.).! z.).W. XE.{ _ 7 6 a 0 & i f z B 6X7X8XN tXuXuXM m |.<X_.} @XZXK.y 1 a.].N.4.K.h.! u e Z..X}.A.d.R.",
"T i.2., u.).q.q C.S.T./ ( E.( W *.7 ` [ h z C 5Xv M C x uX8Xm C U.=X=X:X2X&XA.t } @X<X$X^.>X#XT.1.Q g.{.F.Z.Q.b.",
"z.2.3., y q.g.y.0.T.E.} A.}.E.W 7 F.o.o.V n m M N M C N 7X7XC V ' V.S.U.XX@XW.q.) W.XXb.K.'.=Xx.U d.D.D.G.W._.b.",
"a.1.0.$ = = q w.%.t.) Z.A.).S.s E {.| l z 4XM N 5X5XN 7Xn yXyXC j d V.V.d.S.W._.E.W.XX~./.x.4.4.f.R.n.b.).'.'.T.",
"u w J = J w w 0.s t.t.s Q A.A.[ ( {.[ g n 4XN v 7X8X8X8Xv pXaXyXc [ G.G.Z.Q F.@X@X.X:X,X'.l.; K Q.]._.^._.).D.b.",
"r u 2.J p.q.r r xXH.U q.d.) !. XXX).O.c v 7XC m 5X8X8X7X5XqXfXgXB V.G.W.Z.W ~ %X%X$XXX#XXXT.Y ! W.XX_.^.f.f.A.f.",
"& & I P q.*.=.y CXxXw.P.XX} }.)._.p.F g v yXtXc 5X8X7X7X5XN fXVXB ] _.vXvX{.Z.L._.#XXXb.[.#XE.} ~ A.T.h.d.W.#X).",
"0.8 u P 0.9 > * d s , =.J..X%XK.L J p c v yXtXn 5XqX9XqX0Xc sXBXV R S.L.).S.~ 0.f.XX_.h.~.).).Z.d.h.D.T.g.G.XX'.",
"t.u P T / * O u ! ; w Q G..XQ.XXD.,.G n v tXwX4X8XuXtXtX0Xn rXjXM p y.C.r.W y * Q  XK.s.q.e.a.t.h.).'.).q.u e.P.",
"y e 0.! K e u ! ( I u 0.`.g.q.S.u.t ' g n 7XZ v 7XuXfXaXqXb wXpXm p %.:.> 8 s I A.i.a.s.D.K.l.g.l.q.a.g.a.0.q -.",
"w q e.f.; r 1.i.T.( I I d.! P P d.a D n 7Xb m C sXpXaXtXqXN 7XtX7Xi 6 8 9 -.Q q.x.a.p.a.l.).x.8.s.6.2.x.,X~.u u ",
"d.U i.n.; r K / f.f.q.! i.i./ W ~ F f c pX0XB iXNXpXb M uXtXC n 7Xj i 6 q K.~ 0.q.h.$X(.l.`._.N.m.p.i.h.#X_.D.h.",
"~.~.f.T.i.w.q.p.Y.f.p.Y ~ ~ ( ~ W k z C sX0XpXMXiXrXwX7XM M m N 7Xz iX{ Y ).I.i.a.b.XX{.] +X'.M.(.h.h.'.^._.1X'.",
"_._.T._.).e.J.f.f./ / / A.D.A.W W k n v C v fXVX7X9X9X5Xb C M n 7XN jX@Xb. X|.F.g.s.K.G.( G.h.i.^.i.i.'._.#XZX:X",
"].XX.XXXg.e S.f.f.( W / D.G.A.Y.A. .v m m 4XaXhXC 7X7X5Xv M M b m N X.ZX,X|.F.U..X).m.B.8.a.Q 0.a.i.q.).).'.:X1X",
"$X#X%X#XD.U ~.Q..XT.) Y ( t.A.W.d.l z n n N 7Xc 7X7X5X8Xv b b c 7Xv X.<X:XL.S.L.:X#X'.-X/.z.q 3 L d./.,XXX.XXX,X",
"#X:X2X%X:XK.).$XD.T.) / D.K.W.E.V.S z n c m 5Xv 5X7XqX7Xv 7X7Xn 7Xz O.).0.r.e.u.OX2X2X%XZ.0.w u.h.a.XXXX)..X Xf.",
">X3X[.~.XX_.).$X_.} A.L Q xXxX&X XD g v n M 7Xv tXuXtX5Xv 5XN c 7Xn F w.< =.r q.W.@X$X@XQ s D.f.W. XG.XXXX.XL.K.",
"2XAX2Xb.h.h.T.T..X} f.Y I xXnX|.Z.k g n c m 5Xb dXuXtXwXv 5XN M 8X0X5 = o ;.0.t.W.<X@XT.A.( W.Q.Q.XX). X.XXXXXL.",
">XAXZX[.i.J f.#XE.F.A.T.d.Z.{.} W k z N 7XZ 5X5XuX8X8XtXM 7XM m uX5XF t * u S.T._.1X)._.@XY.W.XX].'.,XXXXX,X%XD.",
"_.1X>X].p.P S.{.OXA./ T._.p.A.} { k c N tX7X5X0XaX7XN 7Xn wX9XN dXm  .L.U t.XX<X%XOXW.%X&XY.Q.XX>X'.;XP.L. X#X_.",
"V. X.XXX).G..X|.OX).D.D.R.!.Q.}.+XH z v sX9X5XwXwX9XwX7Xx uXtXN aXC ' ).).~.'.>XZXvX@X%X#XG.).).(.P.P.C.S.H.K.XX",
"d S. XQ.E.W. X XS.S.+XL.}.cX|.%XcX..z C lXiX5XaXv 7XtX7Xm tX9Xb aXB S G.D.^.m.m.bXZX2X>XOX).g.t.a.w.:.;.J.P.d.h.",
"t.W.oXE.W.%XOXA.y.s r.G.I.kXo.&X&X..c 7XBXsX7XyX5XM 5XM tXpXwX7XaXC  .A.Y b.m.x.~.'.:X[.#X Xd 0 *.e & 0 y.P.D.! ",
"_.W.@X@X$X'.D.~.C.d ;.Z.5 h ..OX}. .g B VXsXm 9X0Xv m pXNXlXwXm aXB H  XD.h.7.-X-XP.=X=X_.Y.i . @ , 8 y r.L.~.q.",
".X.X.X#X&XQ.@X#XK.3.w.C.B n H %Xb. .z N pXMXhX4X7XtXzXNXgXgXwXv Z v H `.f.~.m.'.c.c.M.'.).p.L q 9 + , I 0.`.&XW.",
"_._.D.A.R..X$X%X).s.z.H.G F ] OXXX..z z C MXMXb 8XwXdXMXfXpX7Xv Z v F q./ '.-X=Xl.M./._.D.T L q & O & w 0.L.$X].",
"h.g.d.p.T.#X>X>X%X~.s.g.r.u C.I.%XX.b b 7XlXgXb 5X8XuXpXtX9X5XN 5X7X' D.g.~./.Z.q.q.g.W.D.2.3 3 = & * - q.~.@X@X",
"5.,.a.d.i.s.^.>X#X^.^.~.u.0.Q F _...z C iXpX7Xn 8X5X7X7X7XN N 8X6Xn F ).G.~ Z.I.A.^ P t.J.e.3 : 4 r q L u.T.]._.",
"<.3 w J K a.h.^.N.n.^.m.z.H.| {.@XO.g v pXwXb m uXqX8X8X5Xn v 8X0Xf p G.L.H.+XnX{.{. XS.Q ; 2 5.4.%.<.a.z.s.T.K.",
"#.: 4 P 4.x.m.p.8.T p.8.x.XX.X2X%XF. .N 0XqXuX7XqXtXtX8X5XqXqX8Xc D ^ e.Q r.J.xX&XcX.Xi.U ( f.s.7.%.<.e.s.x.m.0.",
"# 1 e.g.a.4.l.D.p.U 2.7.M.[.@X>XXX_.o.N n C yXqXx tXuXqXv uXaXM m o..XU 1 r 0.H.W.+XH.I U Z.W.T.d.1.1.e.z./.M.%.",
",.U q.x.<.3 e.D.h.6.4.5.x.T.bXZX#X>XI.x n m 7XuX5XtXaXuXN tXtXM c o..X~ y y *.0.e.C.-.9 e s ~ d.G.Q t s.`.~.l.<.",
"-.! i.l.<.&.a.%XN.m.p.0.s.M.(.$X:X:X{.N g n 7XsXaX8Xv 8XtXyXC x N o.XX~ ) ^ E 1.I u :.< =.u.Z.{ F.~ a Z.E.Y.D.0.",
"7 ! ! g.2.e.M.M.m.m.'.m.6.M.=X/.'.[.o.n c 0X9X9XaXaXuXuXtX8XN x c | OXA.f.d.Z.g.q.0.0 O q Z.W.{.F.{ Z. XT.f.p.f.",
") W w ! f.T.M.8.8./.'.~.m.=X=Xc.^.'.o.g z 7X7XN uXaXfXaXqX5XN c V [ A.Z.~ f.S.t.0.-.s d ~ Z.{.{.F.{..XXXT.U f.Y.",
"_ _ I Z.T.n.l.k.2.x.D.~.-X=Xl.e.6.f.| h n 5XC x 5XtXuXuX8X5X5XqXc ] D.G.( d.S.u.r u H.vXcX}..X XA..XQ.p.K u i.} ",
"} E.F.q.g.h.q.K.K. XA.S.~.^.~._.~.D.R j z b 7X5Xv 8XtXqX5XM 9XtXn ] K.). X{.H.4.1.t.+XbXcXcXvXL.r.).).g.1.I A.} ",
"_.XXE.J a./.t.[ ( ( Z.S.h.~.].Q.).~.{ ' C c v 6Xx M 5XN 5X9XwXqXV ] i.g.G.OXG.L D.Z.F.OXvXvX`.0.-.K.).`.u.1.t.A.",
"G.L.).i.h.D.Z._ A.} F. X).'.,X XA.T.A.[ C f b uX9X7XM 5XwXpXtXC ' ~ l.g.h.'.}.) G.A.d.).'./.z.* , e.q.u.0.J t.F.",
";XD.h.f.Z._ A.T.W.{.E.}.).g.u.r.f.~.A.( B g 7XdXsXpXtXpXsXpX9XB ) 2.g.P.l.(.cXxX{. XD.s.k.z.e.$ o e I ! ~ d.). X",
"V.u.2 K h./ ) W.W.A.t.D.^.D.t u j.t.p.^ j v x 9XsXNXVXNXfX9XB V e.1.1.5.x./.W..X+XXX(.s.7.e.e 1 W 7 d.q./ W A.G.",
"0.*.4 r p.A.Q.@XW.d.q 0.J.K.S.C.;.^ t.Q G H N v qXaXlXgXwXb l I.e.1.<.z.s.h.).L.Z.q.K.z.3.w.y S.G.W.).A.Y Y ( ~ ",
"r.1 % : K h._.#X]./ y 9 e *.q t 0.I 0.3.w.F v x qX8XtXuX6XB ' P.g.r 4 4.k.5.a.u.U L e.3.$.=.u t.h.`.D.L.( ) G.).",
"I - , 2 r q.b.T.n.U u.$.> % = q I 1.0.*.%.i B b N 5X8X8X5XV [ r.*.e 1 #.@.4 3 ,.K 4.j.$.> =.=.3.a.g.! A.A.W.A.S.",
"e q % 1 2 3 T f.f.s.e.1.J = U q.2 e q w 7 7 p j x M 0XM h ' { ~ 1.2 % # 4 <.,.4 3.$.4 2 < #.&.9.e.x.).G.A.) W t.",
"%.r , 1 2 r i.Q.^.h.e.K L ; / i.y 8 1 W E L K G g g n j p ( D.Z.u % , : # 3 <.@.j.=.# <.#.# +.#.3.e.J.Z.}..XA.! ",
"O $ $ 1 2 K / T.[.h.a.w J U J 0.y $ q ~ _ L 3 Q ' ' D ' } n.g.g.Q % $ % 4 3 3 r <.c.9.#.# # < # , %.e.d.{.OXG.Q ",
"o   $ 1 3 z.D.XXR.D.0.8 , u w *.I : %.i.n.D.{ d.W A.D.E.W.Z.E t u 0.q 1 1 K ,.r v.#.# # +.#.: $ : *.e.D..X).V.7 "
};
