/* XPM */
static char *My_project_1_12_1675078425[] = {
/* columns rows colors chars-per-pixel */
"56 56 244 2 ",
"   c #515D26",
".  c #6C5F3C",
"X  c #59662A",
"o  c #5E6833",
"O  c #5F722E",
"+  c #65642F",
"@  c #67772C",
"#  c #656B34",
"$  c #6B6C36",
"%  c #6B6C3B",
"&  c #666635",
"*  c #736E3D",
"=  c #7C6C3D",
"-  c #6C7234",
";  c #65713B",
":  c #6C733B",
">  c #6C793D",
",  c #697734",
"<  c #73743C",
"1  c #7A733E",
"2  c #757B3C",
"3  c #7A7B3D",
"4  c #717534",
"5  c #6A5B57",
"6  c #765E52",
"7  c #796D46",
"8  c #6D7441",
"9  c #6F7B43",
"0  c #6F7449",
"q  c #747343",
"w  c #7B7543",
"e  c #747B44",
"r  c #7C7B44",
"t  c #7C754B",
"y  c #757D4B",
"u  c #7D7B4B",
"i  c #75754F",
"p  c #786858",
"a  c #7C7452",
"s  c #7D7B54",
"d  c #797854",
"f  c #6C6750",
"g  c #5F4369",
"h  c #65436D",
"j  c #6B4A6B",
"k  c #6B4968",
"l  c #6B536A",
"z  c #735C62",
"x  c #73556C",
"c  c #765A68",
"v  c #654573",
"b  c #6A4674",
"n  c #664972",
"m  c #6C4A75",
"M  c #6C467A",
"N  c #6D4A7B",
"B  c #674778",
"V  c #724D7D",
"C  c #714A77",
"Z  c #6F5374",
"A  c #735375",
"S  c #74527E",
"D  c #775779",
"F  c #724F6F",
"G  c #7C6A64",
"H  c #7B636C",
"J  c #796366",
"K  c #7D6A6F",
"L  c #826F48",
"P  c #817546",
"I  c #827B45",
"U  c #897B46",
"Y  c #84754C",
"T  c #827C4C",
"R  c #8C7C4D",
"E  c #8A744E",
"W  c #917E4B",
"Q  c #826B5D",
"!  c #8A7554",
"~  c #847C52",
"^  c #8C7C54",
"/  c #8A755A",
"(  c #8C7C5A",
")  c #857756",
"_  c #917D54",
"`  c #947D5C",
"'  c #9A7C5E",
"]  c #967759",
"[  c #866C66",
"{  c #8A7666",
"}  c #967E63",
"|  c #997E63",
" . c #987E6D",
".. c #876973",
"X. c #8C7574",
"o. c #977A76",
"O. c #A17F64",
"+. c #6F8234",
"@. c #78843C",
"#. c #7D8444",
"$. c #7F8B44",
"%. c #7C834B",
"&. c #768548",
"*. c #7B8252",
"=. c #7D8850",
"-. c #7F934C",
";. c #8E8F3F",
":. c #828344",
">. c #8B8446",
",. c #848942",
"<. c #83834C",
"1. c #8B834D",
"2. c #848A4C",
"3. c #8C8C4C",
"4. c #93884D",
"5. c #85944C",
"6. c #98974F",
"7. c #838353",
"8. c #8B8354",
"9. c #848955",
"0. c #8C8A54",
"q. c #858559",
"w. c #8C845A",
"e. c #8D8B5B",
"r. c #86895B",
"t. c #928454",
"y. c #9A8556",
"u. c #938B54",
"i. c #9B8B55",
"p. c #94835C",
"a. c #9A835C",
"s. c #948B5B",
"d. c #9B8B5C",
"f. c #8A9158",
"g. c #9B9255",
"h. c #95915B",
"j. c #9B935C",
"k. c #969656",
"l. c #A2865D",
"z. c #A38B5F",
"x. c #A9885F",
"c. c #A3935D",
"v. c #A6975B",
"b. c #9DA05B",
"n. c #A9A25C",
"m. c #8D8C62",
"M. c #8E8562",
"N. c #948462",
"B. c #9B8463",
"V. c #958B63",
"C. c #9C8B63",
"Z. c #9C856A",
"A. c #9C8B6A",
"S. c #95896A",
"D. c #8A9160",
"F. c #959162",
"G. c #9D9264",
"H. c #9C936B",
"J. c #999967",
"K. c #9B8873",
"L. c #9D9671",
"P. c #A28465",
"I. c #A28C64",
"U. c #A98C65",
"Y. c #A48C6B",
"T. c #AA8E6B",
"R. c #A4856A",
"E. c #A39365",
"W. c #AA9465",
"Q. c #A59A64",
"!. c #A4936B",
"~. c #AB946C",
"^. c #A59A6B",
"/. c #AC9A6D",
"(. c #AB9A65",
"). c #B2946E",
"_. c #B19A6D",
"`. c #B19266",
"'. c #A58D73",
"]. c #AA8D73",
"[. c #A98A79",
"{. c #A59372",
"}. c #AB9473",
"|. c #A69A74",
" X c #AC9A73",
".X c #A8957A",
"XX c #B29572",
"oX c #B39B74",
"OX c #BA9B75",
"+X c #B3947B",
"@X c #B59C7B",
"#X c #BB9A7B",
"$X c #B18F6D",
"%X c #A8A267",
"&X c #B1A36F",
"*X c #ACA277",
"=X c #B3A274",
"-X c #BBA374",
";X c #B3A27B",
":X c #BBA37B",
">X c #C29F7C",
",X c #C4A97C",
"<X c #6D4981",
"1X c #744D82",
"2X c #784F86",
"3X c #765182",
"4X c #7A5485",
"5X c #7D5A85",
"6X c #7A558A",
"7X c #7D5A8A",
"8X c #755489",
"9X c #7E5792",
"0X c #7E5895",
"qX c #7D618B",
"wX c #825D8C",
"eX c #815986",
"rX c #825D91",
"tX c #84628D",
"yX c #856C8B",
"uX c #866292",
"iX c #8A6494",
"pX c #896599",
"aX c #896A97",
"sX c #916B9C",
"dX c #94749D",
"fX c #967A9E",
"gX c #9C7AA7",
"hX c #8D6DA4",
"jX c #A37EAF",
"kX c #AA9783",
"lX c #B49C83",
"zX c #B99D85",
"xX c #AA9594",
"cX c #BBA483",
"vX c #B6A29B",
"bX c #9E84A5",
"nX c #9C83A7",
"mX c #9F84B1",
"MX c #A587AB",
"NX c #A98BB1",
"BX c #B297BB",
"VX c #AC91B7",
"CX c #C3A685",
"ZX c #D0B48F",
/* pixels */
"w.*.%.$ I y.Q./.C.B.W.C.T * T Y u < I ( p.l.y._ W Z.Z.` a.Y.}.Y.y X X , > #.6.v.6.9.f 7 q >.1 s 8.I @.2.h.`.R.C.",
"!.e.( P d.I.!.d.y.C. X^.h.t T s.N.t w 1 R Z.` ` ! Y p.d.Y.{.{.Z.8 X o ; % <.>.3.v.f.t a q 1.R t.0.u.2.2 <.I.R.A.",
"C.p.! ( B.!. XU.B.d.F.J.h.T w <.I.P U 4.N...x c c ! t.t.A.{.!.` ) q.y u t t.i.2.u.k.0.w % 7.d.d.t.u.:.:.d.Y.R.B.",
"Z.R.' O./ } a.l.C.1.s %.u t u t _ i.E.s.G A V C S J ! P ~ p.Y.N.` {.s.q.R p.G.3.1.2.3.#.e m.G.t.R >.I 8.!.~.B.! ",
"R.$XR.'.Z.A.Y.Y.C.p.^ t q u 8.G.P.W.J.G j m V 3X2Xb c ( t.B.Y.C.{.+X@XP.p.A.E.8.0.&.2.2.-.=.w.7.1.j.s.d.~.!.R.` ",
"`.Y.R.S.{.'.!.!.E.!.P.p.t q Y Y.~.C.G Z N N 1X6X2XrXD p A.Y.P.R.+X+X#XZ.` p.G.P $.e <.r , , %.~ h.h.G.!.}.'.}.oX",
").B.w.w.!.~.!. X!.}.Y.Z./ t . t g.w.z g M 2X6X8XiXjXaXz  .{.{.#X+X#X].l.I.Y.H.r 2 u ^ P - 2.s.<.8.%.w.~.+XA.P.OX",
"I.1.; %.B.E.^ h.Y.Y.{.R.] ] 7 f q z l n V V 3X5XtXgXbXyX..Z.XX].+X#X@XB.$X,XC.r q t./.z.0.F.d.>.r r p.].].C.p.x.",
"1.t.1.8 e.E.( w =.e.Y.` ` P.} ) d 5 h <X3X6XeXeXS uXjXgXA K.E.B.H.*X*X_.>XOXC.i B.XX:XoXW.:XoXI.7.T V.Y.Z.N.Y.l.",
"g.1.<.> &.w.s.r.V.E.R.' P.R.T.! ) z b M 3XpXpXeXS 1XiXrXl { 0.V.8.w.d.^.oX}.I.( | Y.XXz.G./.(.c.R p.d.A.C.Y.~.z.",
"0.<.<.# + + q 9.s ( ` p.A.A.C.a G D N V wXsX7XV S M 1XC 3XM.y e <.7.8.N.N.B.Y.XXP.R. XE.Q.j.3.2.a.W.I.l.!. X~.I.",
"u P P & P = w 7.*.w.w.T ~ B.Z.s H l b 4XtXwX4Xm V 2X2XC 8XH 0 ; %.8.A.A.M.) N.XX+X X=X=X/.g.1 I ~.XXU.W.~.^.I.z.",
"r t 1.P y.8.r r <.7.~ 8.p.} [.R.l j N 5XdXS C 4XeX8XB N <Xk p y =.m.A.Y.Z.) ( XXoXoXXXoXXXU.Y ^ Y.~.~.W.a.a.B.a.",
"; # T Y 8.%.%.y 7.u.<.^. X} [.K.A b S aXNXuX3XtXtX8XS 5X<Xb G a %.V.}.zXcXY.N.E.~.oX~.I./.XXY.' ` B.I.I.a.C. XE.",
"7.8 t Y 8.9 ; 8 $ r q %.V.Y.lXS.Z g aXNX5X3XhXMXD 6XfXfXV b K ~ T 8.V.{.A.V.q.7.a. X^.d.Q.!.E.a.w.a.C.d.s.A. X/.",
"e.u Y W ^ % X u _ 7 w <.E.).~.A.F n qXfXF V wXtX3X<XnXMXV j G w.^ s r.r.~ ~ u % ( !.G.d.1.e.s.8.d.~./.^.w.u 0.J.",
"y e 7.8.I e u R ^ U T s J.u.s.{ Z h 4XpXC 7X3XM 1Xm aXgXZ k K u.0.7.y 9 8 8 t 7.B.u.u.i.B.G.j.3.g.1.0.s.s.<.q 9.",
"r q 8.a.1 w 7.t.C.R T S.M.~ t G N C eXuX1XwX6XC 3Xb 6X7Xh N K w.7.*.: > y 7.u 8.J.t.y.i.g.Q.g.E.i.4.1.j.;XE.t u ",
"t.R p.l.= w T _ Y._ N.lXS.Z.Q k b 5XiXwX4XrX3XV 3XN V 3XN 1XZ 5 s *.7 % t e.q.8.0.d.-X(.i.%Xc.z.c.y.t.z.oXW.C.h.",
"W.Y.y.z.t.9.8.y.Z.B.B.K.( ^ [ C b tXiX4XwXpX4XZ rXV N 1X3X<XB H M.H.{.| ( A.R.{ 0.z.W.v.6.%X=X/.(.d.d.~.W./.:X&X",
"~.~.I.~.E.e.F.a.y._ _ ` S._ [ M B tX7XC pXsX7XV iXeXV S 5XM b H L.lXCXkX .[.kXo.B.g.g.v.4.j.s.1.W.i.8.~.~.oX:X&X",
"~.oX X~.s.w C.y.y.' R _ '.A.{ b b rX7XV iXuX4XS iXaX4X8XtXV v x Z.oXCXCXzX[.X.o.{.d.j.g.t.C.T <.t.t.8.^.~./.=XcX",
"oXoX:XoXd.<.E.T.Y.]._ L S.} [ m B 7X7X3XuX4XV 3X4XiX6X3XtX1XM c ^.oXOX@X.X{.M..XcX_.&X-X^.F.q :.R y.^.=X X}.}.;X",
"oX@X:X@X=XH.Y.OX}.Z.t.y.vXkX{ n b 3XS V iX1XV 1XS tX6X2XtXC M H e.h.(.Q.0.=.9.V. XCX,XXXu.:.w 0.d.u. X/.!.}.{.p.",
"-X,X_.W. X~.Y.OX}.| ` ^ {.|.[ B b 1XV S iXV V S C rX4X1X4XC M J 1.g.h.=.: #.I 8.Y.).>X{.) s C.a.Y.{.A.|.oX}.H.G.",
",XZX,Xl.d.d.E.U.Y.Z.P.^ a w. .m b 3XV N 7XV V 8XC wX3X1X4Xh B z 8.0.< o o %.<.q.Y.-X_.P.S.` I.}.!.~.{.{.~. X XH.",
",XZX,X_.t.P a. X~.} ` d.B.p.o.h b S N M 7XN 6XtXM 3XV M 3Xn N z %.u 9.d & u F.A.+X:XQ.'.+XO.Z.XX)./.=X X|.;X@XC.",
"W.:X,X(.y.Y V.'.{.R._ I.}.a.{ m b V V b 3Xb 4XiXC 1XV <XS B B z *.r d.Y.^ t.oXcXlX/.I.@X+XP.U.~.-X X*XJ.G.}. X~.",
"M.{.}./.Y.A.}..X@X.XV.a.].T.X.b n S V N 3Xb 6XtX4XM N 8XS n g z =.2.d.Y.T.Q.W.:XcXzXXXzX+XG.^.E.^.J.J.D.V.S.H. X",
"d V.{.T.C.Y.}.'.S.S.|.|.].].o.N b 1XV M 3Xb tXfX3X<XV 3XS aX8X5 &.5.h.V.A.E.d.C.lXCX,X#X X^.h.0.i.*.&.*.J.F.s.y.",
"w.'.+XR.Y.;X XB.m.i r.d.Y.+XK.b N 1XV M S N dXVXwX2X4X1X3XVXyX5 -.2.0.C.^ G.E.C.Z./.-XoX XE.r > <.e ; 0 r.H.B.8.",
"~.Y.$X#XXX}.C.E.D.d =.s.Z.T.o.b b V 1XV V m sXBXsXwXtX8X5XBXqX5 , >.d.!.N.d.C. X}.J.%X XXXB.$   + ; 8 d *.H.E.t.",
"].}.~.oXXX].XXoXj.q.D.f.J.V.o.m n wX4XN 1XN 3XgXVXyXpXpXm hXtXl i L.K.H.G.l.W.n.b.v.v.!.!.i.U t 9 ; : u 9.^.:XT.",
"~.~.C.C.Y.XXOX-XQ.B.F.9.q.r.M.n B wX4XN 1XN V tXMXdXpX2XN pXD c e.H.A.w.t.).-X%Xk.6.Q.~.P.1.I 1 # o & w q.G.XX).",
"j.s.y.p.I.oX-X-X_.Y.I.i.9.r.G n B uX5Xb qXV N 4XiXiX6X1XC pXD c #.=.h.C.a.^.^.s.t.8.s.Y.d.1.3 3 + ; % = 8.E.XXXX",
">.>.8.p.t.i.W.-XoXT.`.W.e.*.G N B wXwX5XNXqXV 1X8X8X3X1XD rX4Xc 0.#.3.Y.B.8.w.Z.B.) Y w.F.1.2 - 2 e 3 I 8.I.)./.",
",.2 P P I 4.i.W.v.x.`.v.s.r.[ C N 7X7XqXBXtX3XM 3X3X2X3X7X0XV c :.@.>.E.{.8.w.Z.'.'.K.C.8.w < :.3.,.:.u.h.d.z.G.",
"2 - * u 3.j.c.y.i.4.4.4.G. Xo.j m tX6XD BXyXB V 2XD C 1XpX9XN z 1.u.t.^ 7.=.e.{.@XcX}.p.^ _ y.l.4.#.:.0.i.j.c.8.",
"@ 1 8.h.u.3.g.C.y.U >.>.Q.=X[...n 5X8XqXMXfX5XN 2XS C 3XrX3Xx Q Y.+X~.R q y 7.s.Y.|.S.T T N.P.E.t.<.<.8.h.Q.c.#.",
":.7.t.g.,.3 0.A.d.t.4.>.d.I.oXxXA B 4XuXD bXgX1XB b 1X3XV C X.'.{.].[.7.9 y T 2.0.m.*.9 e s ( y.Y.~ i s.^.v.6.,.",
"*.8.t.g.,.$.i.cXv.l.u.1.i.v._.T.A b 3XtXC wXpXwXS 2XeX0Xb b [ +X].{.!.( a.( Y q.Y s y > &.e.N.| Z.( a N.R.I.B.9.",
"7 ^ ^ s.>.u.j.v.v.c./.c.y.g./.G.l B 6XaXN 2X7XeXrX3X4X6XN M X.+X[.}.oXB.B.p.( w.8.%.0 o 8 N.'.'.Z.N.} {.Y.y.a.a.",
"' ! q ^ B.I.v.,.g.c./.W.v.(.%Xf.A B 3XrXM V 2X4XwX7X4XV h b ..R.Y.B.a.p.` p.p.e.0.~ s s ( Z.R.'.Z.'.}. XC.R y.a.",
"] ] T N.U.l.i.6.>.j.E.G.&X&XG.7.Z M 1X3XC 1X1X4X2X2X4XV N b X.T.Y.A.A.R.B.N.s.h.e u F.lXkX].|.{.Z.}.Y.y.I t p.P.",
"| Y.Z.t.d.s.t.G.C.!.A.p.E.Q.U.Y.c b N 3XV V V 4X3X6X1XV eXD o.oXV.A.V.E.Y.!.N.8.<.w..XcXCXcX;XH.q.!.T.y.<.u a.P.",
"T.}.Y.P 3.Q.w.{ ` ` M.V.E.G.~.R.X.x M 1XV 1XM 3X6X3XM N D X.[.~.C.C.s.s.E.;XH.T F.B.S.+XzX:X|.~ %.F.^.^.e.~ q.Z.",
"A.H.Y.t.B.H.N.` | | Z.{.!.^.;X{.K.H v M 2X4X3X3X1XA 1XV A B.oXQ.d.s.h.s.s.{.!.` A.Z.p.E.%XQ.h.% > q.0.e.1.t ( A.",
"*XC.d.a.p.] B.U.R.[.[.T.!.s.e.q.p.J n B 2XuXrXS 2Xm 6XiXl I i.y.d.I k.j.h.oXzX].'.].C.d.k.u.0.# X w T ^ ^ p.!.}.",
"w.f.2 r z._ ' U.Y.S.p.C.E.I.t u r.c N j D uXjXnX4XD eXrXx a <.7.s.<.>.3.j.!.Y.}.|. X~.i.u.0.e q ! 7 p.^ ^ ^ B.A.",
"q.y < r s.a.T. XY.a.q 7.h.G.V.m.=.p c B 1X2XaXmXnXuX9XD [ ` d.C.8.1.<.3.g.j.H.!.s.t.j.s.2.9.y V.A.Y.^.a.E E ( ( ",
"w.< $ $ I d.~.oX$XR y 9 9 %.q u 9.7.G n <XN 5XgXMXhX8Xz / !.{.!.e.#.2 3.6.1.u.8.1.I 0.2.&.=.e r.d.!.G.I.` p.Y.A.",
"T * < 2 w t.l.I.x.R 0.&.; % + 7 y %.i k B A 4XiXuX6XM 6 ^ !.H.q.<.< : #.3 4 3 #.I <.f.e , %.:.<.s.s.( V.P.Y.B.B.",
"w < $ < 2 1 R a.a.i.0.<.P + R 8.3 2 w f k b 1X2X3XF Q / ) ^ ( 7.<.4 # @ 4 ,.:.4 2.e , @.4 +.-.5.0.h.H.A.B.' ! w.",
"&.#.: < 2 r t.~.W.j.t.r U = t.t.#.# q Y p x F h l J } / L ^ C.C.t : : - - :.:.,.f.$.4 ,.@.@ +.@.2.0.C.N.{.}.B.( ",
"o # # < 2 <.t.Y.).d.e.w P U I 7.y & * R ` / [ p G { ` ^ } Y.C.` u < # # 2 1 2 3 ,.b.5.+.@ 4 , @ : :.e.y.{. XA.~ ",
"    # < 1 h.d.~.U.C.<.8 < u w :.y 8 T t.I.y.p.` ] a.P.Y.!.p.t ) u 7.q < 1 I :.I 3.@.O +.+.@.$ # , %.8.C. XY.M.7 "
};
