/* XPM */
static char *_1675378034[] = {
/* columns rows colors chars-per-pixel */
"56 56 109 2 ",
"   c #361F0C",
".  c #2C260C",
"X  c #262B0D",
"o  c #2B2C0E",
"O  c #36210C",
"+  c #3A210D",
"@  c #342D0E",
"#  c #3A2B0E",
"$  c #2D310E",
"%  c #32330F",
"&  c #3B320F",
"*  c #3E2511",
"=  c #342D11",
"-  c #3B2D13",
";  c #333410",
":  c #3C3512",
">  c #353A11",
",  c #3C3D13",
"<  c #41260E",
"1  c #442B0E",
"2  c #4D2F0E",
"3  c #44310F",
"4  c #4B310F",
"5  c #54330F",
"6  c #412611",
"7  c #452B15",
"8  c #4A2E16",
"9  c #4A2F18",
"0  c #502F16",
"q  c #453415",
"w  c #4C3414",
"e  c #433C13",
"r  c #4B3C12",
"t  c #4B3119",
"y  c #4A3C18",
"u  c #553412",
"i  c #593612",
"p  c #533B12",
"a  c #5D3A12",
"s  c #543219",
"d  c #5B3319",
"f  c #603B12",
"g  c #6D3F17",
"h  c #673C18",
"j  c #6A3D18",
"k  c #3C4213",
"l  c #424314",
"z  c #4B4314",
"x  c #444B16",
"c  c #4B4D16",
"v  c #4A4418",
"b  c #494A18",
"n  c #554314",
"m  c #5A4214",
"M  c #524916",
"N  c #5B4B15",
"B  c #5E4119",
"V  c #4C5117",
"C  c #4A5118",
"Z  c #535417",
"A  c #575818",
"S  c #5B5D19",
"D  c #624415",
"F  c #6B4214",
"G  c #634A14",
"H  c #6B4C15",
"J  c #684B18",
"K  c #734416",
"L  c #744E15",
"P  c #7C4B15",
"I  c #655116",
"U  c #6B5317",
"Y  c #65561A",
"T  c #635F19",
"R  c #6D5D19",
"E  c #775116",
"W  c #7C5416",
"Q  c #705B19",
"!  c #7A5D19",
"~  c #62631B",
"^  c #6A611B",
"/  c #67691C",
"(  c #6B6B1C",
")  c #72621A",
"_  c #7D621B",
"`  c #78681B",
"'  c #78761F",
"]  c #7C791F",
"[  c #834E15",
"{  c #845115",
"}  c #895215",
"|  c #805D18",
" . c #905A17",
".. c #83651A",
"X. c #8B6319",
"o. c #866B1B",
"O. c #8E6A1B",
"+. c #80711D",
"@. c #8B731D",
"#. c #847B1F",
"$. c #967D1F",
"%. c #847E20",
"&. c #868120",
"*. c #928521",
"=. c #9B8320",
"-. c #918922",
";. c #A78320",
":. c #A39A25",
">. c #B4A828",
/* pixels */
"k e l z k k k k , k k k x V a f f f f f f f f a a & o > e a a a f f f f f 5 < O 5 f i f f f f f f f f f f f f f ",
", z c a r e z e z e l , x V m f f f f f f f a p & > k l 5 f f f a f f f f f a 4 0 u 0 f f f f f f f f f f f f f ",
"k l C c a f a a f i 5 p k x c m f f f f f a & o > l r 5 f f f f f f f f f f f f f i 2 f a f f f f f f f f f f f ",
"e k ~ / n f a 4 u 2 2 f e k x c m f f a a 3 % > l 5 i a f f a a f f f f f f a f ..@.N m f f m n m f f f a f f f ",
"5 A #.R M p u < u i i f p k k x M f a a 3 $ x z 5 f f i 4 u u d f f f f f f a ..%.:.S C M M c C M n n 5 u u u d ",
", ~ $.a M q u u a f f a a z V ' M u u a % > c p f f f a 1 i i i f f a f a f a I b A V C x k l x C x c a u 2 6 i ",
"k z D i 5 5 5 u i i i 5 5 p e M l 1 2 5 , , 4 5 i 5 i 5 5 i i i i 5 i 5 i u u e , r e l x l k e l k e i 5 5 2 i ",
"3 : 2 4 2 2 2 2 2 4 2 2 2 2 2 8 , q 2 2 @ @ 4 5 4 5 2 2 2 2 2 2 2 2 2 5 2 2 8 q , 4 4 3 , , , , , 4 2 5 2 2 2 2 ",
"O . O O             +           # #     o , > + O   +   O   O +   +   +   +       + +           O O O O         ",
"# % & 1 1 1 1 1                         . > k :                                                   < 1 1 1 1 1 < ",
"p k l p f f f i                           o > > + O O +   +           *                           a f f f f f 5 ",
"a k k r f f f i   + 8 0 0 8 0 8 0 8 8 8 6 = o k 3 # 7 + 6 7 6 6 6 7 - - 7 * * 9 *     - 9 7 *   + a f f f f 5 a ",
"5 k k r 5 i f i + < u g [ P P [ P [ j d s 7 o ; : 9 9 9 7 9 9 9 9 9 y t 9 9 9 9 t 9 * 7 t s t * + f f f f 5 5 a ",
"4 k l 5 i a f i   < 2 K } } } } } } [ j s 0 - o ; q 7 9 t t 9 y , $ > k y 7 9 7 9 t t t t 7 t *   a f f f i 5 5 ",
"r , e 5 i f i 5   6 8 h } } } } } } [ [ h d t 9 : , q 9 9 7 9 y x > ; k > - 9 9 9 7 9 9 t 7 O   + i f f f i r r ",
"> o # 5 a a i i   6 8 d K } } [ P } } } [ h d s - ; : t 9 9 9 t y l t v k k 9 9 9 9 9 9 9 7 9 * < a f f f p , k ",
"> @ 5 5 z m f i   * 9 9 d K } P g } P [ } [ j d 1 . > q 9 9 9 9 t t 9 9 y y 9 9 9 9 9 9 7 9 9 * + i a f M x k l ",
"k @ 5 5 M m f u   6 9 - - u K } } } K [ } } [ j d 8 ; q t 9 9 7 - - 9 9 9 7 t t 9 9 9 9 9 9 9 O + 5 2 m M V l 4 ",
"x o 3 5 z m a 6   6 9 e $ : s K } } } } } } } } j d 7 ; : t 9 : > ; 9 - t t t 7 * 7 9 9 9 9 9 * + i 5 m c k l 4 ",
"x % @ 5 n m a e   6 9 v x ; - d K } } } } } } g f g d @ , q : ; k k t 7 9 t t t * * 9 9 9 9 9 * + a f M x x k k ",
"C k & 5 N *.U v + * 9 t v x l t f g } } [ h } g f { h s $ k , k l l v t 9 9 9 7 9 7 9 9 9 9 9 O + i 5 r c c l k ",
"k k @ p +.>.^ v   * 7 7 9 y l = 0 h K } } [ } } [ } [ f = , , k , 9 y q 7 9 9 9 9 9 9 9 9 9 9 * + f f f M n 4 l ",
"k k o > / -.J 8   * 7 * 7 9 e ; * s f g [ } } } } } } P , e q k y 9 t y ; 9 t 9 9 9 9 9 9 9 9 O + i f f m p 4 , ",
"l x k l ` Y u 0   * 9 7 9 t t y 9 9 s d g } } } } } } [ l k s t , , q t , > 7 t 9 7 9 9 9 9 9 * + i f f f 5 l e ",
"5 z C c 4 5 i u + 6 9 9 9 9 9 9 9 9 8 8 s K } } } } } { l k e d s , t t 9 > ; t t t 9 7 9 9 9 * < i f f f i r 4 ",
"5 p C k r a f p   * 9 9 9 9 7 9 7 9 7 * 0 d K } } } } } G k e p s e , t t t , e 7 6 7 * 9 7 7 * + i f f f 5 l 4 ",
"5 p k 3 a f f i   6 9 9 9 7 7 6 * * * 6 0 s d K } } } } W l k m j s e e e 9 9 9 7 7 7 * * 7 t * + a f f f 5 r 4 ",
"5 3 $ r i f f i   * 9 9 * * t t 9 9 9 9 9 0 d d K } } } { J l I } j p t , q 9 9 9 9 9 7 * O 6 + < i f 5 < 2 l k ",
"5 4 o > p f f a * * 9 9 * 9 s t 9 9 t 9 9 7 9 s d K } } } W Z U } } h d t e 9 9 9 9 9 9 9 9 7 + + 5 f a 2 2 5 e ",
"5 5 # % p f f i O * t y t 9 9 9 9 9 9 9 9 ; o t d d K } } X.&.Q } } [ h s e t 9 9 9 9 9 9 9 9 + + a f f f 5 4 k ",
"5 5 @ % n f f i O * e C v t 9 9 9 9 9 9 t l ; ; 9 u d K { P ) &.| } } [ D l y 0 9 9 9 9 8 9 4 + < a f f D 5 l k ",
"5 3 $ , p f f 5 O * t l b v y 9 6 9 9 6 * t e ; ; t s d K } H ~ ) W } } } D e t 0 9 9 9 t 0 w + O a f f f 5 , k ",
"4 @ k k r f a 1 O + - , k x b 7 - t 9 - 6 7 t y ; : t s d K K k ( O.} } } O./ e t 0 9 9 9 6 * + + a f f f z k k ",
"@ $ l l 5 f a + O < - o > k k : 7 9 9 7 9 9 9 t , = = 9 s d F N A W } } } ..%.S s u 0 9 9 6 6 * + a f f ..T , k ",
"X > k x p f a 5 O < 7 = ; > $ = 9 7 9 9 9 9 9 9 t : o = 9 s s _ / v P } } { Q S B d 0 0 9 9 9 * + i a ! #.V k r ",
"o X k x p f f a O < 9 9 = o = q 9 9 9 9 9 9 9 9 9 9 : = 9 s s v C x P } }  .Q ] X.h s d 9 9 9 * O 5 1 G Z l k 4 ",
"4 % c z 5 f f 5   * 9 9 t 9 7 t 9 9 9 9 9 7 q 9 9 9 9 9 9 9 t y k l P } { o.( M [ [ j d s 0 8 + + i 2 n l 3 e r ",
"1 , l r a f f i + * 9 9 9 9 9 9 9 9 9 t : o ; 9 9 9 9 9 9 9 q k > , F } E ~ ^ L } } [ j d s 0 * + i f a c r r , ",
"+ p c z a f f a   6 9 9 9 * t 9 9 9 9 9 , ; = 9 9 t 9 9 7 t : $ % : s K E ] ;.} } } } [ j d d + + i 5 f m p 5 l ",
"+ 4 k z a a f 5   * 9 9 7 9 s t 9 9 9 t ; k : 9 9 - * * * t > X + t s i p A _ } } } } } [ j d 6 O 5 1 a a a 5 l ",
"O @ > n a f f i + 6 9 7 * t t 9 9 9 9 9 > k ; 9 9 7 6 - 7 ; = - 9 9 t t s e G } } } } } } } h * < 5 1 f f i 5 4 ",
"1 O $ x p a f 5   * 9 * 9 s t 9 9 9 = o k k ; - 9 9 9 e , o = 9 9 9 9 t v k G { } } } } } } j *   i a f f i 5 5 ",
"2 + X , p 5 a i   * 7 9 s t 9 9 9 9 - ; , , > 9 9 9 t , > o 9 9 9 9 9 t , e d K } } } } } } j 6   f f f f i 5 l ",
"5 2 @ k n a i 5 + 6 8 t t 9 9 9 9 9 9 = = q - 9 9 9 , > = = 9 9 9 9 9 t q , e d g } } } } } g 6   a f f f 5 2 3 ",
"5 # > x m f i u + 6 9 9 t 9 9 9 9 9 9 9 9 9 9 9 9 , k $ 7 9 7 9 t t t t 9 t , e d g } } } } j 6 + f f f a i 1 , ",
"4 o k l 1 i i 2   6 9 9 9 9 9 9 9 9 9 9 9 9 9 9 , k > - 9 9 7 6 7 7 7 7 6 7 q e r d g } } } g 6   a f f a r w r ",
"3 % C 3 + 1 6     + * * * * * * * * * * * * - : $ $ X * < 6 +             + 6 # # < 1 u u i 2   + 1 2 f f r , w ",
"# > x : + +   +   +     +     *   * O O O O ; o X . . O               +         +                   + 1 < # # < ",
"1 > x 3 4 4 5 4 8 5 2 2 2 5 2 2 5 2 2 2 2 4 > $ % 1 2 2 1 O < 2 0 2 4 2 2 2 2 2 5 2 3 4 3 3 4 2 2 2 5 i 5 i 2 2 ",
"p c x r 5 5 5 i i i 5 5 u 5 u u i i 5 i i 4 % o 3 5 5 a i 1 < i 5 i i 5 i i i i 5 4 k k x V p 5 5 5 a f f i 5 5 ",
"3 x k 3 5 5 a f f a a i 0 8 5 f f a f f a : o @ p f a a f 2 2 i f f a f f a a f p l l z &.] r a f f f a i < 5 f ",
"> x > # 5 2 a f f f f f f 2 1 i f f f f a c S $ 3 f f a 5 i f f f f f f p p U H l k p I =.) l a f f a i i 2 i f ",
"x x % o 4 a a f f f f f f f i i f f f f a N ( k & 5 f a < i f f f f p r k k ~ S k k k k n f f f f f f i f f f f ",
"C k , $ 1 a a f f f f f f f a a a f f f a m k k % r f a 1 a f f p l k l z r l x k k , r e p f f f f f i f f f f ",
"C k > o 1 u 2 a f f f f f f f f f f f f f a z l % 3 f f i a a p l , z a f a m m l l k l k k p f f f f f f f f f ",
"C > o @ u i i a f f a f f f a a f f f f f f f r , % 5 f f f p l z a a f f f f a a m 5 a r k e p f f f f f f f f "
};
