/* XPM */
static char *My_project1674947597[] = {
/* columns rows colors chars-per-pixel */
"56 56 243 2 ",
"   c #2C1C0C",
".  c #2F1A03",
"X  c #341D05",
"o  c #3A1D05",
"O  c #341D0C",
"+  c #3A1E0C",
"@  c #361703",
"#  c #341D11",
"$  c #3B1E13",
"%  c #3B2106",
"&  c #35210B",
"*  c #3B220C",
"=  c #3B280B",
"-  c #352113",
";  c #3B2212",
":  c #3C2716",
">  c #2C220A",
",  c #421F11",
"<  c #4C2C05",
"1  c #41240D",
"2  c #452B0C",
"3  c #4D2E0B",
"4  c #462D04",
"5  c #532C04",
"6  c #522E0C",
"7  c #5A2E09",
"8  c #4D3105",
"9  c #4D320B",
"0  c #4E3809",
"q  c #533206",
"w  c #53330C",
"e  c #5B350C",
"r  c #55390D",
"t  c #5C3A0D",
"y  c #5A3505",
"u  c #422412",
"i  c #432B13",
"p  c #4C2E12",
"a  c #472A1A",
"s  c #542E11",
"d  c #4D3212",
"f  c #4A3513",
"g  c #543312",
"h  c #5B3513",
"j  c #543A13",
"k  c #5C3A13",
"l  c #54351A",
"z  c #5B361A",
"x  c #553A1A",
"c  c #5C3C1A",
"v  c #623B0D",
"b  c #64360C",
"n  c #623513",
"m  c #623B13",
"M  c #623D1B",
"N  c #683A19",
"B  c #5E3F20",
"V  c #643D26",
"C  c #5B410F",
"Z  c #5C4213",
"A  c #5B421A",
"S  c #564417",
"D  c #624214",
"F  c #64441B",
"G  c #6A431D",
"H  c #68491B",
"J  c #63430B",
"K  c #5A4227",
"L  c #545031",
"P  c #654323",
"I  c #674924",
"U  c #735532",
"Y  c #596929",
"T  c #5E6B34",
"R  c #597137",
"E  c #68692D",
"W  c #6B6C36",
"Q  c #6D6D3B",
"!  c #656936",
"~  c #756938",
"^  c #6C7135",
"/  c #6E733B",
"(  c #657635",
")  c #73753C",
"_  c #74793D",
"`  c #797538",
"'  c #6A762A",
"]  c #4D4A48",
"[  c #544B45",
"{  c #544D4C",
"}  c #594E4D",
"|  c #5C4D43",
" . c #55524C",
".. c #5B544C",
"X. c #5B5C4E",
"o. c #575445",
"O. c #524E52",
"+. c #5B5452",
"@. c #5C5B53",
"#. c #585657",
"$. c #454F51",
"%. c #635949",
"&. c #635D54",
"*. c #645B5A",
"=. c #665A55",
"-. c #696849",
";. c #766C45",
":. c #6B7644",
">. c #757543",
",. c #7C7443",
"<. c #757D45",
"1. c #7B7B43",
"2. c #75734C",
"3. c #7D7D4A",
"4. c #777A4B",
"5. c #64635D",
"6. c #6B645C",
"7. c #696658",
"8. c #736959",
"9. c #7B7857",
"0. c #615C62",
"q. c #6B6562",
"w. c #6C6C65",
"e. c #6C6B6B",
"r. c #696365",
"t. c #736B64",
"y. c #736C6B",
"u. c #776A6B",
"i. c #6E726D",
"p. c #74726C",
"a. c #7B746C",
"s. c #7B7A6C",
"d. c #787666",
"f. c #6E6D71",
"g. c #766E72",
"h. c #757372",
"j. c #7C7572",
"k. c #7C7A74",
"l. c #7D777D",
"z. c #7D7C7B",
"x. c #757679",
"c. c #6F7074",
"v. c #846B3C",
"b. c #856C47",
"n. c #847C45",
"m. c #83744A",
"M. c #847C4C",
"N. c #8B7B4C",
"B. c #8A7646",
"V. c #98794A",
"C. c #8B7453",
"Z. c #867B52",
"A. c #8B7C53",
"S. c #877859",
"D. c #937D54",
"F. c #957C5D",
"G. c #9A7B59",
"H. c #886956",
"J. c #867968",
"K. c #9C7E63",
"L. c #937F61",
"P. c #837B74",
"I. c #827C7A",
"U. c #847976",
"Y. c #7B843D",
"T. c #768439",
"R. c #6F812D",
"E. c #6B8142",
"W. c #7D8146",
"Q. c #78814A",
"!. c #758251",
"~. c #85823C",
"^. c #838445",
"/. c #86834C",
"(. c #8C834B",
"). c #878747",
"_. c #92874B",
"`. c #848354",
"'. c #8B8254",
"]. c #8C8A53",
"[. c #8C845B",
"{. c #8C8A5C",
"}. c #868959",
"|. c #938454",
" X c #988254",
".X c #938A55",
"XX c #94835B",
"oX c #9A845C",
"OX c #958B5B",
"+X c #9A8B5C",
"@X c #9A8A54",
"#X c #9B925D",
"$X c #969359",
"%X c #929949",
"&X c #A2835E",
"*X c #A38B5C",
"=X c #A2935E",
"-X c #A99359",
";X c #898469",
":X c #948463",
">X c #9C8562",
",X c #958B62",
"<X c #9C8B63",
"1X c #9C8B6B",
"2X c #98846A",
"3X c #9C9264",
"4X c #9E936B",
"5X c #979568",
"6X c #84827D",
"7X c #898277",
"8X c #908071",
"9X c #A38662",
"0X c #A38B64",
"qX c #AB8C64",
"wX c #A2866A",
"eX c #A38C6A",
"rX c #AA8D6C",
"tX c #AB8665",
"yX c #A39265",
"uX c #A4936B",
"iX c #AA936C",
"pX c #AD9A6D",
"aX c #A79765",
"sX c #B3936E",
"dX c #B39869",
"fX c #A58B72",
"gX c #A49372",
"hX c #AC9372",
"jX c #AB9C73",
"kX c #A89979",
"lX c #B39272",
"zX c #B39B74",
"xX c #B89978",
"cX c #B8A376",
"vX c #AFA476",
"bX c #C09F72",
"nX c #C4B07E",
"mX c #7F7D80",
"MX c #857D84",
"NX c #888381",
"BX c #BCA382",
"VX c #B29A82",
"CX c #CCAF86",
/* pixels */
":.:XfXrX3X^.W.W E ' 1.R.Y -.&.9.J.2.9.S.2.2.9.-.9.J.;X7XS.8XJ.J.J.J.8XI.S.8.i.J.8.S.,.^ :.!.eXqXjX@X$X_ Q ! Y Y ",
"Z.>XlXeX|.].W.( R ' ( ' ) L o.7.e.p.s.s.w.X.[ o.r.e.e.k.k.u.7.t.d.t.a.w.+.] $...L :.M.N./ `.qXsX1XN.n.) ) E Y Y ",
"A.:XfX1XOX3X].W.Y.T.Y ' ' K : : a V c z V h h V p a u i z h < M H D m i o o 1 e I ;.~ b.1.(.*XaXrXD.` _ / / >.<.",
"A.S.:X2X>X0XOX].Y._ S r J 7 -   O 9 8 < w v m e ; & & % p w g g h k j & O o : h b N N N ` n.|.+XoXN.n.) / W >.,.",
"9X>X2X2X>XA.{.`.S S g h b 5 + & ; d g w 6 h m e + X & * 2 6 e < t m k & O X # e m e D Z D H B.V.9X+X(.>./ ^ ) 3.",
"0XwX:XF.<X,X3X'.c 3 l l y 8 + & & 2 8 6 r r t c u # ; + p p w h v v r & O + - b Z b t Z e N A.rXsXiX+Xn.( ^ / Z.",
"S.S.b.m.+XuXeXK.F w g l q q ; . * p 6 h M h 5 s + + O + g w 6 e b y v * + + O e e N b m N H N.uXiXiX>XOX1._ 4.`.",
"1X>XD.C.'.'.;.H.G t q d 9 8 $ * * < q w g e w 9 * O O * p g r k c e t + # + - k m k M h v J XXfXeXK.C.@X1.) }.}.",
"uX<X[.`.N.m.>.Y g j r e w 3 % O * 2 q v k w g 8 * ; # + 6 k e g h t w % & - % r v g k n n H K.K.qXG.S.XX|.OX<XkX",
"<X'.M.A.|.{./.E d w g w w 9 o O $ l e w g p p 9 & O O * p g r g h h w o   - % h 7 j Z m t D b.:XC.>XuX+X'.<X<XyX",
"F.D.B.OX5X4XOXI 3 3 k w g p & & X 9 w < w w w q * * O + p g 6 6 w r 3 % # - O w e M h h n m U C.J.[.#X(.m.uXhXrX",
"2XXXn.N.OXgX2Xx w 6 w < w d o * - d 6 w g p 3 < * + X u s 7 7 g s w 6 = - O @ 3 r e b k D v I _.<X X.X.XD.>XK.F.",
"K.XX1.n.oXhXwXI k h z g w x 2 ; i x x z g p P g = i = : d l c g h z l u : i p c x z V P k z P v._._.oX<XoXZ.G.G.",
"G.XXZ.+XiXrXfX8.i.y.h.y.@.r.e.c.i.h.w.5.X.X.p.5.#.y.x.x.U.g.*.[  .w.k.x.x.x.f.w.o.t.P.a.o.[ *.].%X=X*X<XZ.>.C.H.",
"oXXXXX0X0XF.8X7XP.P.j.t.X.7.J.P.j.j.P.u.u.j.NXI.k.p.7.s.p.&.X.X.t.P.7XI.I.I.7XI.k.7X7XI.d.6XI.@X$X#X|._.|.(.S.9.",
"/.oXwXwXoXm.9.k.I.k.z.z.h.t.h.+.@.*.U.a.P.k.a.P.I.6Xa.k.k.g.j.e.k.z.P.I.I.I.z.I.I.z.k.l.s.l.MX-XcXOXW.~.@X XM.!.",
"~.$X3XyX|.>.9.8.8...7.q.=.| [  .*.=.8.6.6.7.L [ &.r.@.O.-.8.6.8...8.7.*.6.r.r.8.t.8.| [ | | L L.fXW.T.).<X[.3.).",
"~.#X#X$X_._ >.K c p j c h 6 * * 1 r h h z g g g 1 i ; * l h j x l c w u * * a g g S 9 w d 9 H  X<XOX%X)..X'.) ' ",
"_.=X#X]._.).W.C 7 6 q w w w + % + g < s 6 < h 6 % + X + q 6 7 g 6 w < * + o ; 6 s g g g g s G V.oX$X$X/.n.) ' _ ",
"@X=X#X.X(.Y.` r 8 l w 3 d d & O - f w g l w Z 3 * & & - d d 3 l d d 2 ; & O # 2 g w 3 d g g F  X*X=XOXm.v.` _ ^.",
"pXqX0X.Xn.) ~ F e M t h h k + O % < q w w e t < * O O + 9 w q w w w < ; O X # 3 8 w 8 g g r H yXdXdX@XXX|.(.^.).",
"xXsXoXn.;.W W F v n b m v t @ + ; p g w g h g s * O X O 4 6 w 6 w 3 < + O X $ w s g w 6 p 6 G *XcXcXeX0XOX X X+X",
"lXzXuX`.>.! E t k k t D k h O   & 9 w 6 w w 8 3 = O & - 9 d r g d g 9 ; & & O 2 g 9 w 6 w g H *XzXbXsXyXXXwXiXyX",
"eXjXuX].4.! Y D k m t v b r + & # d w s g w 6 g * O X ; < 3 q 6 6 6 8 + O & $ w f 9 d w 6 w A +XkXlXqXzXgXrXlXrX",
"Z.iX5X!.4.! W Z m v k m m t ; & ; 3 w g w w p 3 % * X O 9 6 w g w 6 3 : O O - w w 3 7 g 9 5 P [.<XyXlXxXlXrXtXrX",
"Z.+X5X}.!.R W D r D t m m r ; . + < 6 g g 8 p g * O & $ 9 s w w 3 w < - + O ; w h h g 6 9 w I M.>XjXkXrXwXlXrX[.",
"{.XX:X,X!.E.3.H h C t m m r $ & O 8 r z h q p 6 % O O O 9 s w 6 w h 8 - O O - w w e h g 0 w F '.wXgXuX>XrXkX:X-.",
"uXyX<X,X{.5X[.F e t k m m t $ & + r h g 9 r g 3 % + & + 9 6 w 6 g h 9 O + O O 6 6 w m m w w I <XkXgX2X0XjXgX4X:X",
"iXjXuX<X5XvXeXP w k t v m t $ & + r j 6 6 w d 6 % O O O 9 s w 6 w n 9 O + & # w q 9 w z j n G 0X1XF.C. XiXpXxXzX",
">XuXjXjXvXcX&XS w k k m m t $ & + 8 w g w 8 d 6 % * & $ 9 s 6 w r h 8 - O X # 3 9 9 6 8 w m G >XhXXXn.'.dXCXCXcX",
"hXjXjX0X4XyX&XA w k m t m y $ & ; < 6 g r 3 p 6 % * & + < s w g h e 3 ; O X - 3 9 g g w w h G wXhX<XOX.X*XbXCXnX",
"<X3XiXjX4X<X9Xc g k k v m w $ & $ 9 6 s w 9 g 3 % - & # 9 6 r h r 5 < & O X - 8 g s 6 w 8 w h 1XzX0XiXpXaXdXnXcX",
"].fXgX4XdXrX|.c w h t m v t 1 O ; 6 w 6 e 5 w 6 % o O + 3 6 w s s g 6 o $ # $ 3 s w 9 g l 5 k eXsXqX5XcXsXBXCXsX",
"vXVXuX5XzXuXA.A w w t v v w + . O 4 6 6 h r h 3 % & O * 9 q w w 9 0 8 X   # * 9 w w w 6 s t F oXiX<X3.3XxXjXuXzX",
"vXxXpXaXpXXXB.D 6 g v m n k * # * 8 e z e q h < & O # * 3 < 6 g w 6 w * $ # @ < g w c z s h c C.|.<X<.OXzXuXjXcX",
"vXnXcXaX<X'.B.J g g r v v j & - - 2 3 l d 2 f d * O O O p 6 r g w < p X O O * l h w r r r 9 f C.OX0X{.+XtX&XiXqX",
"pXzXdX-X1X+X@XN g s t n n e ; O * w q s e w g 6 u * = * p w 6 3 6 g l @ O - & 4 z g 5 5 g g z G.oXB.'. XtX0XiXqX",
"3X<XaXdX<X(.B.K k c F F G e 1 * ; c k l g c l s = = = i x l x x z j l u i = 1 g < c h h c z F V.Z.,._ ,.D.'.m.'.",
",.2.OXpX3X(. Xt.q.h.s.x.e...O.O.#.7.y.e.#.5.h.p.u.y.g.g.j.u.u.t.y.y.u.y.e.{ ] } @.y.e.p.h.e.u.2X'.N.<.,. X`.<.Q.",
"`.:.`.3X$X).'.z.6.h.k.z.k.7.y.p.l.a.a.j...7.U.P.w.@. .@.k.6Xh.5.p.6X6Xk.k.i.h.j.a.p.w.k.6XI.8XD.A.n./ ,. XM.>.>.",
"$X{.W.'.=XpXgXP.p.*.X.....%.+.=.j.J.P.MXP.k.z.p.&. .@.k.k.j.6.u.l.NX6XNXp.*.I.k.7.5.y.I.6Xk.P.N.4.T -.N.V.B.<.`.",
"uXuX,X'.@X<X2XJ.y.e.5.{ { 7.0.O.O.o...r.g.k.k.w.*.w.e.h.*.+.*.j.u.y.p.c.p.t.g.p.a.q.*.t.h.x.u.2.>.R ) /.>.>.:.'.",
"iXzXeXoX+X XA.K m V r 7 w r p o * w k M k r z h p i = i 3 g z S c l x i i i u l j g w j f x A ` _ E.n.|.4.Q.-.! ",
"G.>XF.<XpXiX&XB h z 7 g n < + O $ g h h e w 6 6 % & . % g r m q q 8 0 X & o O q g n e q g N w <._ W.D.G.;.N.,.,.",
"oX0XyXuXyXrXqXc j c t g g 4 & > - 9 8 g r C g 9 ; ; # + d 6 h h g w w # - # # 3 w b k 0 w e x :.`.>.~ ;.~ b./ ^.",
"#XyXiXyXOX0X9Xk 8 h v m h < ; - ; h k k t e e e * * O + e v v m k m 7 , * X , 7 h m e h k N M.!.[.Q T T E (.W./.",
"*XyX0X0X2X,XA.F q d t m k 8 ; * * w r k D v D t & O # & g t r m k t q &   > : h e v v m G H  X[.[.[.}.E.! n.]..X",
"0XwXG.wX1X:XZ.~ c g e w 7 w ; O * e m N m t k t * O + + r v b m k v v 1 O O u e m t t F b.N.].[.>.].qX]./ (.N.[.",
"9X2X:XwXhX{.>.) c k y g w < $ # $ l k v n m m b o * > o r v v k D v t 1 . - * h v v m D V.wXgX<X{.'.0X3X4.:.3.<X",
"sX0X2XhXrX{.3.m.c j 8 f l 8 & O O d 0 e z k k t 1 $ # : z b t m k t e 1 # - * g x B c F D.1XuXuXjX0X0X0X`.'.+XsX",
"xXeXfXhX0X3X+X(.z c p l q q @ O * p w w g z m e ; #   = w m k D m M w +     * k v n m D N.4X2X0XiXiXrXiXwX0XtXqX",
"oX9XhXyXoXOX#Xm.~ U B B q j i : 1 d j w h c F k u * ; d w F m r k G g 2 a a p c M n N D ~ S.:X<X+X<X:X2X1XwXrXqX",
"C.oXgXyX(.3.n.N.(.{.t.g...[ [ ] { +.} { } } } [ O.O.O.5.@...} ..{ o. . .e.x.x.p.#. .8.4.!.4.A. XoX2X:XS.K.F.wXoX",
"F.wX0X|.^.^.(..X].Z.7.!.s.l.l.p.j.k.k.z.P.p.k.6Xz.x.k.6Xj.a.j.j.I.P.P.h.I.NXP.p.e.w.;X}.#X,X:X+X&XrXhXXXF.H.L.oX",
":XeX&X/.W.).(.|.oXn.4.,.>.U.U.h.a.NXh.U.U.t.a.I.NXNXNXMXz.6X6Xk.P.I.6Xk.q.q...&.| -.2.OXpXjX>X'.0XaXiX|.,.Z.oX4X",
"2XwXrX#X^._ n.(.S.` M.) >.I.h.-.@.u.+.5.h.k.6X6XmXmXMX!.NXk.p.q.mXz.k.p.{ #. .w.+.w.-./.V.rX>X3XaX=X|.n.Q Q.3.}."
};
